<?xml version="1.0" encoding="utf-8"?>
<!-- Generator: Adobe Illustrator 18.0.0, SVG Export Plug-In . SVG Version: 6.00 Build 0)  -->
<!DOCTYPE svg PUBLIC "-//W3C//DTD SVG 1.1//EN" "http://www.w3.org/Graphics/SVG/1.1/DTD/svg11.dtd">
<svg version="1.1" id="Layer_1" xmlns="http://www.w3.org/2000/svg" xmlns:xlink="http://www.w3.org/1999/xlink" x="0px" y="0px"
	 viewBox="0 0 100 100" enable-background="new 0 0 100 100" xml:space="preserve">
<path d="M71.8,71.1c0-0.8,0.6-1.4,1.4-1.4s1.4,0.6,1.4,1.4c0,0.8-0.6,1.4-1.4,1.4S71.8,71.9,71.8,71.1z"/>
<path fill="#302F2C" d="M87.7,35.7v8.6h-2v-7.6h-26v32.1h18.6v3.2c0,0.6,0.2,1,0.6,1.4H58.8c-0.7,0-1.3-0.6-1.3-1.4V35.7
	c0-0.8,0.6-1.4,1.3-1.4h27.7C87.2,34.4,87.7,35,87.7,35.7z"/>
<path fill="#E7E7E7" d="M71.9,71.1c0,0.7,0.6,1.3,1.3,1.3s1.3-0.6,1.3-1.3c0-0.7-0.6-1.3-1.3-1.3S71.9,70.4,71.9,71.1z"/>
<path fill="#E7E7E7" d="M72.9,35.7c0-0.2-0.1-0.3-0.3-0.3c-0.2,0-0.3,0.1-0.3,0.3s0.1,0.3,0.3,0.3C72.8,36,72.9,35.8,72.9,35.7z"/>
<polygon points="87.5,55.8 86,58.3 85.2,56.9 83.3,60.1 85.1,60.1 87,60.1 89.9,60.1 "/>
<path d="M86.3,69.6c-0.8,0-1.4,0.6-1.4,1.4s0.6,1.4,1.4,1.4s1.4-0.6,1.4-1.4S87,69.6,86.3,69.6z"/>
<path fill="#302F2C" d="M94.1,45.9v26.4c0,0.7-0.7,1.3-1.5,1.3H79.9c-0.8,0-1.5-0.6-1.5-1.3V45.9c0-0.7,0.7-1.3,1.5-1.3h12.8
	C93.4,44.6,94.1,45.2,94.1,45.9z"/>
<path fill="#E7E7E7" d="M85.5,46.4c0,0.1,0.1,0.2,0.2,0.2h1.9c0.1,0,0.2-0.1,0.2-0.2c0-0.1-0.1-0.2-0.2-0.2h-1.9
	C85.5,46.3,85.5,46.3,85.5,46.4z"/>
<path fill="#E7E7E7" d="M84.4,46.4c0,0.1,0.1,0.2,0.2,0.2c0.1,0,0.2-0.1,0.2-0.2s-0.1-0.2-0.2-0.2C84.5,46.3,84.4,46.3,84.4,46.4z"
	/>
<path fill="#E7E7E7" d="M87.5,71c0-0.6-0.5-1.1-1.1-1.1c-0.6,0-1.1,0.5-1.1,1.1c0,0.6,0.5,1.1,1.1,1.1C87,72.1,87.5,71.6,87.5,71z"
	/>
<rect x="79.3" y="48.2" fill="#FFFFFF" width="14" height="20.4"/>
<path fill="#302F2C" d="M57.2,72.5v-0.2v-2.6h-4V70c0,0.4-0.4,0.8-1,0.8h-10c-0.6,0-1-0.3-1-0.8v-0.3H5.9v1.7c0,1.2,1.3,2.1,2.7,2.1
	h48.5h0.6C57.7,73.5,57.2,73.1,57.2,72.5z"/>
<path fill="#302F2C" d="M81.9,29v5.7H79v-5.6H15.3v37.4h41.9v2.7H12.4V29.1c0-1.5,1.3-2.6,2.7-2.6h64.1C80.8,26.5,81.9,27.7,81.9,29
	z"/>
<path fill="#E7E7E7" d="M47.5,27.8c0-0.2-0.1-0.3-0.3-0.3s-0.3,0.1-0.3,0.3c0,0.2,0.1,0.3,0.3,0.3S47.5,27.9,47.5,27.8z"/>
<g>
	<path d="M49.5,40.7c0.1,0,0.2,0.1,0.3,0.1c0,0,0,0,0,0c0.3,0,0.6-0.2,0.8-0.5c0.1-0.2,0.1-0.4,0-0.6c-0.1-0.2-0.2-0.4-0.5-0.4
		c-0.1,0-0.2-0.1-0.3-0.1c-0.3,0-0.6,0.2-0.8,0.5c-0.1,0.2-0.1,0.4,0,0.6C49.2,40.5,49.3,40.6,49.5,40.7z"/>
	<path fill="#FCDC00" d="M49.3,39.8c0.1-0.2,0.3-0.3,0.5-0.3c0.1,0,0.1,0,0.2,0c0.1,0.1,0.2,0.2,0.3,0.3c0.1,0.1,0.1,0.3,0,0.4
		c-0.1,0.2-0.3,0.3-0.5,0.3c-0.1,0-0.1,0-0.2,0c-0.1-0.1-0.2-0.2-0.3-0.3C49.3,40,49.3,39.9,49.3,39.8z"/>
	<path fill="#302F2C" d="M50.4,42.9c-0.4,0-0.8-0.2-1-0.6c-0.2,0.2-0.5,0.3-0.8,0.3c-0.3,0-0.6-0.1-0.8-0.3
		c-0.2-0.2-0.4-0.5-0.4-0.8c0-0.2,0-0.5,0.2-0.7c-0.5-0.2-0.8-0.8-0.7-1.3c0.1-0.6,0.6-1,1.1-1c0-0.2,0-0.5,0.1-0.7
		c0.1-0.3,0.4-0.5,0.7-0.6c0.1,0,0.3-0.1,0.4-0.1c0.4,0,0.8,0.2,1,0.6c0.2-0.2,0.5-0.3,0.8-0.3c0.3,0,0.6,0.1,0.8,0.3
		c0.2,0.2,0.4,0.5,0.4,0.8c0,0.2,0,0.5-0.2,0.7c0.2,0.1,0.4,0.2,0.5,0.4c0.2,0.3,0.2,0.6,0.2,0.9c-0.1,0.6-0.6,1-1.1,1
		c0.1,0.6-0.2,1.1-0.8,1.3C50.7,42.8,50.6,42.9,50.4,42.9z"/>
	<path fill="#E7E7E7" d="M49.4,41.8C49.4,41.8,49.4,41.8,49.4,41.8L49.4,41.8c0.1,0,0.2,0.1,0.2,0.1c0.1,0.4,0.5,0.6,0.8,0.6
		c0.1,0,0.2,0,0.3-0.1c0.4-0.2,0.7-0.6,0.6-1.1c0,0-0.1-0.1,0-0.2c0-0.1,0.1-0.1,0.2-0.1c0.1,0,0.1,0,0.2,0c0.4,0,0.8-0.3,0.9-0.7
		c0-0.2,0-0.5-0.1-0.7c-0.1-0.2-0.3-0.3-0.6-0.4c-0.1,0-0.1-0.1-0.1-0.1c0-0.1,0-0.1,0.1-0.1c0.1-0.2,0.2-0.4,0.2-0.6
		c0-0.2-0.1-0.5-0.3-0.6c-0.2-0.1-0.4-0.2-0.6-0.2c-0.3,0-0.5,0.1-0.7,0.3c0,0-0.1,0.1-0.2,0l0,0c0,0-0.1,0-0.1-0.1
		c-0.1-0.4-0.5-0.6-0.8-0.6c-0.1,0-0.2,0-0.3,0.1c-0.2,0.1-0.4,0.2-0.5,0.5c-0.1,0.2-0.1,0.4-0.1,0.6c0,0,0.1,0.1,0,0.2
		c0,0.1-0.1,0.1-0.2,0.1c-0.1,0-0.1,0-0.2,0c-0.4,0-0.8,0.3-0.9,0.7c-0.1,0.5,0.2,0.9,0.7,1c0.1,0,0.1,0.1,0.1,0.1
		c0,0.1,0,0.1-0.1,0.1c-0.1,0.2-0.2,0.4-0.2,0.6c0,0.2,0.1,0.5,0.3,0.6c0.2,0.1,0.4,0.2,0.6,0.2c0.3,0,0.5-0.1,0.7-0.3
		C49.3,41.9,49.4,41.8,49.4,41.8z"/>
	<path fill="#302F2C" d="M43.8,46.4c-0.6,0-1.1-0.4-1.2-1c-0.1,0-0.3,0.1-0.4,0.1c-0.4,0-0.8-0.2-1-0.6c-0.2-0.3-0.2-0.6-0.1-0.9
		c0.1-0.2,0.2-0.4,0.3-0.6c-0.2-0.2-0.3-0.4-0.4-0.6C41,42.6,41,42.3,41.1,42c0.2-0.4,0.6-0.6,1-0.6c0.1,0,0.3,0,0.4,0.1
		c0-0.2,0.1-0.5,0.3-0.7c0.2-0.2,0.5-0.4,0.8-0.4l0,0c0.6,0,1.1,0.4,1.2,1c0.1,0,0.3-0.1,0.4-0.1c0.4,0,0.8,0.2,1,0.6
		c0.3,0.5,0.2,1.1-0.2,1.5c0.4,0.4,0.6,1,0.3,1.5c-0.2,0.4-0.6,0.6-1,0.6c-0.1,0-0.3,0-0.4-0.1c0,0.2-0.1,0.5-0.3,0.7
		C44.5,46.3,44.2,46.4,43.8,46.4L43.8,46.4z"/>
	<path fill="#E7E7E7" d="M42.9,45.3c0,0.5,0.4,0.8,0.9,0.8l0,0c0.2,0,0.5-0.1,0.6-0.3c0.2-0.2,0.2-0.4,0.2-0.6c0-0.1,0-0.1,0.1-0.1
		l0,0c0,0,0.1,0,0.1,0c0.1,0.1,0.3,0.1,0.4,0.1c0.3,0,0.6-0.2,0.8-0.5c0.2-0.4,0.1-0.9-0.3-1.2c-0.1,0-0.1,0-0.1-0.1
		c0-0.1,0-0.1,0.1-0.2c0.4-0.3,0.5-0.8,0.3-1.2c-0.2-0.3-0.4-0.4-0.8-0.4c-0.2,0-0.3,0-0.5,0.1c-0.1,0-0.1,0-0.2,0
		c0,0-0.1-0.1,0-0.2c0-0.5-0.4-0.8-0.9-0.8l0,0c-0.2,0-0.5,0.1-0.6,0.3c-0.2,0.2-0.2,0.4-0.2,0.6c0,0.1,0,0.1-0.1,0.1l0,0
		c0,0-0.1,0-0.1,0c-0.1-0.1-0.3-0.1-0.4-0.1c-0.3,0-0.6,0.2-0.8,0.5c-0.1,0.2-0.1,0.4-0.1,0.7c0.1,0.2,0.2,0.4,0.4,0.5
		c0.1,0,0.1,0,0.1,0.1c0,0.1,0,0.1-0.1,0.2c-0.2,0.1-0.3,0.3-0.4,0.5c-0.1,0.2,0,0.5,0.1,0.7c0.2,0.3,0.4,0.4,0.8,0.4
		c0.2,0,0.3,0,0.5-0.1c0.1,0,0.1,0,0.2,0C43,45.2,43,45.2,42.9,45.3z"/>
	<path fill="#302F2C" d="M49.1,45.8C49.1,45.8,49.1,45.8,49.1,45.8c0.3,0,0.6-0.1,1-0.2c0.9-0.3,1.5-0.9,1.3-1.3
		c-0.1-0.3-0.4-0.4-0.9-0.4c-0.3,0-0.6,0.1-1,0.2c-0.3,0.1-0.6,0.3-0.9,0.4c0.5-1.5,0.9-2.3,0.9-2.3L49.3,42c0,0.1-0.6,1.1-1.1,3.1
		c0,0,0,0,0,0c-0.3,1.3-0.6,3-0.8,5.2h-0.8c-0.2-2.9-1.5-5-1.6-5.1l-0.3,0.2c0,0,0.4,0.6,0.7,1.5c-0.2-0.1-0.5-0.1-0.7-0.1
		c-0.7,0.1-1.1,0.4-1.1,0.8c0,0.3,0.4,0.6,1,0.6l0,0c0.1,0,0.1,0,0.2,0c0.3,0,0.6-0.1,0.8-0.2c0.1,0,0.1-0.1,0.2-0.1
		c0.2,0.7,0.4,1.6,0.5,2.6h-2.8c-0.2,0-0.4,0.2-0.4,0.4v1.5c0,0.2,0.2,0.4,0.4,0.4h0.3c0.1,0.7,0.7,3,1.4,3h3.3c0.8,0,1.3-2.3,1.4-3
		h0.3c0.2,0,0.4-0.2,0.4-0.4v-1.5c0-0.2-0.2-0.4-0.4-0.4h-2.5c0.1-1.9,0.4-3.4,0.7-4.6C48.5,45.7,48.8,45.8,49.1,45.8z"/>
	<path fill="#FCDC00" stroke="#3F3E3B" stroke-width="0.2" stroke-miterlimit="10" d="M43,43c0.1-0.2,0.3-0.4,0.5-0.4
		c0.1,0,0.2-0.1,0.3-0.1c0.4,0,0.7,0.2,0.8,0.6c0.1,0.2,0.1,0.4,0,0.6c-0.1,0.2-0.3,0.4-0.5,0.4c-0.1,0-0.2,0.1-0.3,0.1l0,0
		c-0.4,0-0.7-0.2-0.8-0.6C42.9,43.5,42.9,43.3,43,43z"/>
	<path fill="#FCDC00" d="M45.5,47.5c-0.2,0.1-0.4,0.2-0.6,0.2c-0.1,0-0.1,0-0.2,0l0,0c-0.4,0-0.7-0.1-0.7-0.3c0-0.2,0.3-0.4,0.8-0.4
		c0.1,0,0.1,0,0.2,0c0.4,0,0.7,0.1,0.7,0.3C45.7,47.4,45.6,47.5,45.5,47.5z"/>
	<path fill="#E72477" d="M48.5,55.2h-3.3c-0.4,0-0.9-1.4-1.1-2.7h5.6C49.4,53.8,48.9,55.2,48.5,55.2z"/>
	<path fill="#65519D" d="M50.3,50.6v1.5c0,0,0,0.1-0.1,0.1h-6.7c0,0-0.1,0-0.1-0.1v-1.5c0,0,0-0.1,0.1-0.1L50.3,50.6
		C50.2,50.6,50.3,50.6,50.3,50.6z"/>
	<path fill="#FCDC00" d="M49.6,44.3c0.3-0.1,0.6-0.2,0.9-0.2c0.3,0,0.6,0.1,0.6,0.2c0.1,0.2-0.3,0.7-1.2,0.9
		c-0.3,0.1-0.6,0.2-0.9,0.2c0,0,0,0,0,0c-0.3,0-0.6-0.1-0.6-0.2c0,0,0,0,0-0.1c0,0,0,0,0-0.1C48.6,44.9,49,44.5,49.6,44.3z"/>
	<path fill="#FCDC00" stroke="#3F3E3B" stroke-width="0.2" stroke-miterlimit="10" d="M49.1,39.6c0.1-0.2,0.3-0.4,0.5-0.4
		c0.1,0,0.2-0.1,0.3-0.1c0.4,0,0.7,0.2,0.8,0.6c0.1,0.2,0.1,0.4,0,0.6c-0.1,0.2-0.3,0.4-0.5,0.4c-0.1,0-0.2,0.1-0.3,0.1l0,0
		c-0.4,0-0.7-0.2-0.8-0.6C49,40,49,39.8,49.1,39.6z"/>
</g>
<g>
	<path d="M74.2,45.9c0.1,0,0.1,0,0.2,0c0,0,0,0,0,0c0.3,0,0.5-0.2,0.6-0.4c0.1-0.2,0.1-0.3,0-0.5c-0.1-0.2-0.2-0.3-0.3-0.3
		c-0.1,0-0.2,0-0.2,0c-0.3,0-0.5,0.1-0.6,0.4c-0.1,0.2-0.1,0.3,0,0.5C74,45.7,74.1,45.9,74.2,45.9z"/>
	<path fill="#FCDC00" d="M74.1,45.2c0.1-0.1,0.2-0.2,0.4-0.2c0,0,0.1,0,0.1,0c0.1,0,0.2,0.1,0.2,0.2c0,0.1,0,0.2,0,0.3
		c-0.1,0.1-0.2,0.2-0.4,0.2c0,0-0.1,0-0.1,0c-0.1,0-0.2-0.1-0.2-0.2C74.1,45.4,74.1,45.3,74.1,45.2z"/>
	<path fill="#302F2C" d="M74.9,47.5c-0.3,0-0.6-0.2-0.8-0.5c-0.2,0.1-0.4,0.2-0.6,0.2c-0.2,0-0.4-0.1-0.6-0.2
		c-0.2-0.2-0.3-0.4-0.3-0.6c0-0.2,0-0.4,0.1-0.5c-0.4-0.2-0.6-0.6-0.5-1c0.1-0.4,0.4-0.7,0.8-0.7c0-0.2,0-0.4,0.1-0.5
		c0.1-0.2,0.3-0.4,0.5-0.4c0.1,0,0.2-0.1,0.3-0.1c0.3,0,0.6,0.2,0.8,0.5c0.2-0.1,0.4-0.2,0.6-0.2c0.2,0,0.4,0.1,0.6,0.2
		c0.2,0.2,0.3,0.4,0.3,0.6c0,0.2,0,0.4-0.1,0.5c0.2,0.1,0.3,0.2,0.4,0.3c0.1,0.2,0.2,0.4,0.1,0.7c-0.1,0.4-0.4,0.7-0.8,0.7
		c0.1,0.4-0.2,0.8-0.6,1C75.1,47.5,75,47.5,74.9,47.5z"/>
	<path fill="#E7E7E7" d="M74.2,46.8C74.2,46.8,74.2,46.8,74.2,46.8L74.2,46.8c0.1,0,0.1,0.1,0.1,0.1c0.1,0.3,0.3,0.4,0.6,0.4
		c0.1,0,0.1,0,0.2,0c0.3-0.1,0.5-0.5,0.4-0.8c0,0,0-0.1,0-0.1c0,0,0.1-0.1,0.1-0.1c0,0,0.1,0,0.1,0c0.3,0,0.6-0.2,0.6-0.5
		c0-0.2,0-0.3-0.1-0.5C76.2,45.1,76,45,75.9,45c-0.1,0-0.1-0.1-0.1-0.1c0-0.1,0-0.1,0.1-0.1c0.1-0.1,0.1-0.3,0.1-0.4
		c0-0.2-0.1-0.3-0.2-0.4c-0.1-0.1-0.3-0.2-0.4-0.2c-0.2,0-0.4,0.1-0.5,0.2c0,0-0.1,0-0.1,0l0,0c0,0-0.1,0-0.1-0.1
		c-0.1-0.3-0.3-0.4-0.6-0.4c-0.1,0-0.1,0-0.2,0c-0.2,0.1-0.3,0.2-0.4,0.3c-0.1,0.1-0.1,0.3,0,0.5c0,0,0,0.1,0,0.1
		c0,0-0.1,0.1-0.1,0.1c0,0-0.1,0-0.1,0c-0.3,0-0.6,0.2-0.6,0.5c-0.1,0.4,0.2,0.7,0.5,0.8c0.1,0,0.1,0.1,0.1,0.1c0,0.1,0,0.1-0.1,0.1
		c-0.1,0.1-0.1,0.3-0.1,0.4c0,0.2,0.1,0.3,0.2,0.4c0.1,0.1,0.3,0.2,0.4,0.2C73.8,47,74,46.9,74.2,46.8
		C74.1,46.8,74.1,46.8,74.2,46.8z"/>
	<path fill="#302F2C" d="M70,50.1c-0.4,0-0.8-0.3-0.9-0.7c-0.1,0-0.2,0-0.3,0c-0.3,0-0.6-0.2-0.7-0.4C68,48.8,68,48.6,68,48.4
		c0-0.2,0.1-0.3,0.2-0.4c-0.1-0.1-0.2-0.3-0.3-0.4c-0.1-0.2,0-0.5,0.1-0.7c0.2-0.3,0.4-0.5,0.8-0.5c0.1,0,0.2,0,0.3,0
		c0-0.2,0.1-0.3,0.2-0.5c0.2-0.2,0.4-0.3,0.6-0.3l0,0c0.4,0,0.8,0.3,0.9,0.7c0.1,0,0.2,0,0.3,0c0.3,0,0.6,0.2,0.7,0.4
		c0.2,0.4,0.2,0.8-0.1,1.1c0.3,0.3,0.4,0.7,0.2,1.1c-0.2,0.3-0.4,0.5-0.8,0.5c-0.1,0-0.2,0-0.3,0c0,0.2-0.1,0.3-0.2,0.5
		C70.5,50,70.3,50.1,70,50.1L70,50.1z"/>
	<path fill="#E7E7E7" d="M69.4,49.3c0,0.3,0.3,0.6,0.7,0.6l0,0c0.2,0,0.3-0.1,0.5-0.2c0.1-0.1,0.2-0.3,0.2-0.5c0,0,0-0.1,0.1-0.1
		l0,0c0,0,0.1,0,0.1,0c0.1,0.1,0.2,0.1,0.3,0.1c0.2,0,0.5-0.1,0.6-0.3c0.2-0.3,0.1-0.7-0.2-0.9c0,0-0.1,0-0.1-0.1c0-0.1,0-0.1,0-0.1
		c0.3-0.2,0.4-0.6,0.2-0.9c-0.1-0.2-0.3-0.3-0.6-0.3c-0.1,0-0.2,0-0.3,0.1c0,0-0.1,0-0.1,0c0,0,0-0.1,0-0.1c0-0.3-0.3-0.6-0.7-0.6
		l0,0c-0.2,0-0.3,0.1-0.5,0.2s-0.2,0.3-0.2,0.5c0,0,0,0.1-0.1,0.1l0,0c0,0-0.1,0-0.1,0c-0.1-0.1-0.2-0.1-0.3-0.1
		c-0.2,0-0.5,0.1-0.6,0.3c-0.1,0.2-0.1,0.3-0.1,0.5c0,0.2,0.1,0.3,0.3,0.4c0,0,0.1,0,0.1,0.1c0,0.1,0,0.1,0,0.1
		c-0.1,0.1-0.3,0.2-0.3,0.4c0,0.2,0,0.3,0.1,0.5c0.1,0.2,0.3,0.3,0.6,0.3c0.1,0,0.2,0,0.3-0.1c0,0,0.1,0,0.1,0
		C69.4,49.2,69.4,49.3,69.4,49.3z"/>
	<path fill="#302F2C" d="M73.9,49.7C73.9,49.7,73.9,49.7,73.9,49.7c0.2,0,0.5,0,0.7-0.1c0.7-0.2,1.1-0.6,1-1
		c-0.1-0.2-0.3-0.3-0.7-0.3c-0.2,0-0.5,0-0.7,0.1c-0.3,0.1-0.5,0.2-0.6,0.3c0.3-1.1,0.6-1.7,0.7-1.7l-0.2-0.1c0,0-0.4,0.8-0.8,2.3
		c0,0,0,0,0,0c-0.2,1-0.5,2.2-0.6,3.8h-0.6c-0.1-2.2-1.1-3.7-1.2-3.8l-0.2,0.1c0,0,0.3,0.4,0.6,1.1c-0.2-0.1-0.3-0.1-0.5-0.1
		c-0.5,0-0.8,0.3-0.8,0.6c0,0.2,0.3,0.4,0.7,0.4l0,0c0,0,0.1,0,0.1,0c0.2,0,0.4-0.1,0.6-0.2c0.1,0,0.1-0.1,0.1-0.1
		c0.2,0.5,0.3,1.2,0.4,1.9h-2.1c-0.1,0-0.3,0.1-0.3,0.3v1.1c0,0.1,0.1,0.3,0.3,0.3H70c0.1,0.5,0.5,2.2,1.1,2.2h2.4
		c0.6,0,1-1.7,1.1-2.2h0.2c0.1,0,0.3-0.1,0.3-0.3v-1.1c0-0.1-0.1-0.3-0.3-0.3h-1.9c0.1-1.4,0.3-2.5,0.5-3.4
		C73.5,49.6,73.7,49.7,73.9,49.7z"/>
	<path fill="#FCDC00" stroke="#3F3E3B" stroke-width="0.2" stroke-miterlimit="10" d="M69.5,47.6c0.1-0.2,0.2-0.3,0.4-0.3
		c0.1,0,0.1,0,0.2,0c0.3,0,0.5,0.2,0.6,0.4c0.1,0.2,0.1,0.3,0,0.5c-0.1,0.2-0.2,0.3-0.4,0.3c-0.1,0-0.1,0-0.2,0l0,0
		c-0.3,0-0.5-0.2-0.6-0.4C69.4,48,69.4,47.8,69.5,47.6z"/>
	<path fill="#FCDC00" d="M71.3,51c-0.1,0.1-0.3,0.1-0.5,0.1c0,0-0.1,0-0.1,0l0,0c-0.3,0-0.5-0.1-0.5-0.2c0-0.1,0.2-0.3,0.6-0.3
		c0,0,0.1,0,0.1,0c0.3,0,0.5,0.1,0.5,0.2C71.4,50.8,71.3,50.9,71.3,51z"/>
	<path fill="#E72477" d="M73.5,56.6H71c-0.3,0-0.6-1-0.8-2h4.1C74.1,55.6,73.8,56.6,73.5,56.6z"/>
	<path fill="#65519D" d="M74.8,53.2v1.1c0,0,0,0,0,0h-5c0,0,0,0,0,0v-1.1c0,0,0,0,0,0L74.8,53.2C74.8,53.2,74.8,53.2,74.8,53.2z"/>
	<path fill="#FCDC00" d="M74.3,48.6c0.2-0.1,0.4-0.1,0.6-0.1c0.2,0,0.4,0.1,0.5,0.2c0.1,0.2-0.2,0.5-0.9,0.7
		c-0.2,0.1-0.4,0.1-0.6,0.1c0,0,0,0,0,0c-0.2,0-0.4-0.1-0.5-0.2c0,0,0,0,0,0c0,0,0,0,0-0.1C73.5,49,73.8,48.7,74.3,48.6z"/>
	<path fill="#FCDC00" stroke="#3F3E3B" stroke-width="0.2" stroke-miterlimit="10" d="M73.9,45.1c0.1-0.2,0.2-0.3,0.4-0.3
		c0.1,0,0.1,0,0.2,0c0.3,0,0.5,0.2,0.6,0.4c0.1,0.2,0.1,0.3,0,0.5c-0.1,0.2-0.2,0.3-0.4,0.3c-0.1,0-0.1,0-0.2,0l0,0
		c-0.3,0-0.5-0.2-0.6-0.4C73.8,45.4,73.8,45.3,73.9,45.1z"/>
</g>
<g>
	<path d="M88.1,54.2c0.1,0,0.1,0,0.2,0c0,0,0,0,0,0c0.2,0,0.4-0.1,0.4-0.3c0-0.1,0-0.2,0-0.4c0-0.1-0.1-0.2-0.3-0.2
		c-0.1,0-0.1,0-0.2,0c-0.2,0-0.4,0.1-0.4,0.3c0,0.1,0,0.2,0,0.4C87.9,54.1,88,54.1,88.1,54.2z"/>
	<path fill="#FCDC00" d="M88,53.7c0-0.1,0.2-0.2,0.3-0.2c0,0,0.1,0,0.1,0c0.1,0,0.1,0.1,0.2,0.2c0,0.1,0,0.2,0,0.2
		c0,0.1-0.2,0.2-0.3,0.2c0,0-0.1,0-0.1,0c-0.1,0-0.1-0.1-0.2-0.2C88,53.8,88,53.7,88,53.7z"/>
	<path fill="#302F2C" d="M88.6,55.4c-0.2,0-0.5-0.1-0.6-0.3c-0.1,0.1-0.3,0.2-0.4,0.2c-0.2,0-0.3-0.1-0.4-0.2
		c-0.1-0.1-0.2-0.3-0.2-0.5c0-0.1,0-0.3,0.1-0.4c-0.3-0.1-0.4-0.4-0.4-0.7c0.1-0.3,0.3-0.5,0.6-0.5c0-0.1,0-0.3,0.1-0.4
		c0.1-0.2,0.2-0.3,0.4-0.3c0.1,0,0.1,0,0.2,0c0.2,0,0.5,0.1,0.6,0.3c0.1-0.1,0.3-0.2,0.4-0.2c0.2,0,0.3,0.1,0.4,0.2
		c0.1,0.1,0.2,0.3,0.2,0.5c0,0.1,0,0.3-0.1,0.4c0.1,0,0.2,0.1,0.3,0.2c0.1,0.1,0.1,0.3,0.1,0.5c-0.1,0.3-0.3,0.5-0.6,0.5
		c0.1,0.3-0.1,0.6-0.4,0.7C88.8,55.4,88.7,55.4,88.6,55.4z"/>
	<path fill="#E7E7E7" d="M88.1,54.8C88.1,54.8,88.1,54.8,88.1,54.8L88.1,54.8c0.1,0,0.1,0,0.1,0.1c0.1,0.2,0.3,0.3,0.5,0.3
		c0.1,0,0.1,0,0.2,0c0.2-0.1,0.4-0.4,0.3-0.6c0,0,0-0.1,0-0.1c0,0,0.1-0.1,0.1-0.1c0,0,0.1,0,0.1,0c0.2,0,0.4-0.2,0.5-0.4
		c0-0.1,0-0.3-0.1-0.4s-0.2-0.2-0.3-0.2c0,0-0.1,0-0.1-0.1c0,0,0-0.1,0.1-0.1c0.1-0.1,0.1-0.2,0.1-0.3c0-0.1-0.1-0.3-0.2-0.3
		c-0.1-0.1-0.2-0.1-0.3-0.1c-0.1,0-0.3,0.1-0.4,0.2c0,0-0.1,0-0.1,0l0,0c0,0,0,0-0.1-0.1c-0.1-0.2-0.3-0.3-0.5-0.3
		c-0.1,0-0.1,0-0.2,0c-0.1,0-0.2,0.1-0.3,0.3c-0.1,0.1-0.1,0.2,0,0.4c0,0,0,0.1,0,0.1c0,0-0.1,0.1-0.1,0.1c0,0-0.1,0-0.1,0
		c-0.2,0-0.4,0.2-0.5,0.4c0,0.3,0.1,0.5,0.4,0.6c0,0,0.1,0,0.1,0.1c0,0,0,0.1-0.1,0.1c-0.1,0.1-0.1,0.2-0.1,0.3
		c0,0.1,0.1,0.3,0.2,0.3c0.1,0.1,0.2,0.1,0.3,0.1C87.8,55,87.9,55,88.1,54.8C88,54.8,88,54.8,88.1,54.8z"/>
	<path fill="#302F2C" d="M85,57.4c-0.3,0-0.6-0.2-0.6-0.5c-0.1,0-0.1,0-0.2,0c-0.2,0-0.4-0.1-0.6-0.3c-0.1-0.2-0.1-0.3-0.1-0.5
		c0-0.1,0.1-0.2,0.2-0.3c-0.1-0.1-0.2-0.2-0.2-0.3c-0.1-0.2,0-0.3,0.1-0.5c0.1-0.2,0.3-0.3,0.6-0.3c0.1,0,0.1,0,0.2,0
		c0-0.1,0.1-0.3,0.2-0.4c0.1-0.1,0.3-0.2,0.5-0.2l0,0c0.3,0,0.6,0.2,0.6,0.5c0.1,0,0.1,0,0.2,0c0.2,0,0.4,0.1,0.6,0.3
		c0.2,0.3,0.1,0.6-0.1,0.8c0.2,0.2,0.3,0.5,0.2,0.8c-0.1,0.2-0.3,0.3-0.6,0.3c-0.1,0-0.1,0-0.2,0c0,0.1-0.1,0.3-0.2,0.4
		C85.3,57.3,85.2,57.4,85,57.4L85,57.4z"/>
	<path fill="#E7E7E7" d="M84.5,56.7c0,0.3,0.2,0.5,0.5,0.5l0,0c0.1,0,0.3-0.1,0.3-0.2c0.1-0.1,0.1-0.2,0.1-0.4c0,0,0-0.1,0-0.1l0,0
		c0,0,0.1,0,0.1,0c0.1,0,0.2,0.1,0.2,0.1c0.2,0,0.3-0.1,0.4-0.3c0.1-0.2,0-0.5-0.2-0.7c0,0-0.1,0-0.1-0.1c0,0,0-0.1,0-0.1
		c0.2-0.1,0.3-0.4,0.2-0.7c-0.1-0.1-0.2-0.2-0.4-0.2c-0.1,0-0.2,0-0.3,0.1c0,0-0.1,0-0.1,0c0,0,0-0.1,0-0.1c0-0.3-0.2-0.5-0.5-0.5
		l0,0c-0.1,0-0.3,0.1-0.3,0.2c-0.1,0.1-0.1,0.2-0.1,0.4c0,0,0,0.1,0,0.1l0,0c0,0-0.1,0-0.1,0c-0.1,0-0.2-0.1-0.2-0.1
		c-0.2,0-0.3,0.1-0.4,0.3c-0.1,0.1-0.1,0.2,0,0.4c0,0.1,0.1,0.2,0.2,0.3c0,0,0.1,0,0.1,0.1c0,0,0,0.1,0,0.1
		c-0.1,0.1-0.2,0.2-0.2,0.3c0,0.1,0,0.3,0.1,0.4c0.1,0.1,0.2,0.2,0.4,0.2c0.1,0,0.2,0,0.3-0.1c0,0,0.1,0,0.1,0
		C84.5,56.7,84.5,56.7,84.5,56.7z"/>
	<path fill="#302F2C" d="M87.9,57C87.9,57,87.9,57,87.9,57c0.2,0,0.4,0,0.5-0.1c0.5-0.2,0.8-0.5,0.7-0.7c0-0.2-0.2-0.2-0.5-0.2
		c-0.2,0-0.4,0-0.5,0.1c-0.2,0.1-0.4,0.1-0.5,0.2c0.3-0.9,0.5-1.3,0.5-1.3L88,54.9c0,0-0.3,0.6-0.6,1.7c0,0,0,0,0,0
		c-0.2,0.7-0.4,1.7-0.4,2.9h-0.4c-0.1-1.6-0.9-2.8-0.9-2.8l-0.1,0.1c0,0,0.2,0.3,0.4,0.8c-0.1,0-0.3-0.1-0.4,0
		c-0.4,0-0.6,0.2-0.6,0.4c0,0.2,0.2,0.3,0.6,0.3l0,0c0,0,0.1,0,0.1,0c0.2,0,0.3-0.1,0.4-0.1c0,0,0.1-0.1,0.1-0.1
		c0.1,0.4,0.2,0.9,0.3,1.4h-1.6c-0.1,0-0.2,0.1-0.2,0.2v0.8c0,0.1,0.1,0.2,0.2,0.2h0.2c0.1,0.4,0.4,1.7,0.8,1.7h1.8
		c0.4,0,0.7-1.3,0.8-1.7h0.2c0.1,0,0.2-0.1,0.2-0.2v-0.8c0-0.1-0.1-0.2-0.2-0.2h-1.4c0.1-1,0.2-1.9,0.4-2.6C87.6,57,87.7,57,87.9,57
		z"/>
	<path fill="#FCDC00" stroke="#3F3E3B" stroke-width="0.2" stroke-miterlimit="10" d="M84.5,55.5c0.1-0.1,0.1-0.2,0.3-0.2
		c0.1,0,0.1,0,0.2,0c0.2,0,0.4,0.1,0.4,0.3c0,0.1,0,0.2,0,0.4c-0.1,0.1-0.1,0.2-0.3,0.2c-0.1,0-0.1,0-0.2,0l0,0
		c-0.2,0-0.4-0.1-0.4-0.3C84.5,55.7,84.5,55.6,84.5,55.5z"/>
	<path fill="#FCDC00" d="M85.9,58c-0.1,0.1-0.2,0.1-0.3,0.1c0,0-0.1,0-0.1,0l0,0c-0.2,0-0.4-0.1-0.4-0.2c0-0.1,0.2-0.2,0.4-0.2
		c0,0,0.1,0,0.1,0c0.2,0,0.4,0.1,0.4,0.2C86,57.9,85.9,57.9,85.9,58z"/>
	<path fill="#E72477" d="M87.6,62.2h-1.8c-0.2,0-0.5-0.8-0.6-1.5h3.1C88,61.4,87.8,62.2,87.6,62.2z"/>
	<path fill="#65519D" d="M88.5,59.7v0.8c0,0,0,0,0,0h-3.7c0,0,0,0,0,0v-0.8c0,0,0,0,0,0L88.5,59.7C88.5,59.7,88.5,59.7,88.5,59.7z"
		/>
	<path fill="#FCDC00" d="M88.2,56.2c0.2-0.1,0.3-0.1,0.5-0.1c0.2,0,0.3,0,0.3,0.1c0,0.1-0.2,0.4-0.6,0.5c-0.2,0.1-0.3,0.1-0.5,0.1
		c0,0,0,0,0,0c-0.2,0-0.3,0-0.3-0.1c0,0,0,0,0,0c0,0,0,0,0,0C87.6,56.5,87.8,56.3,88.2,56.2z"/>
	<path fill="#FCDC00" stroke="#3F3E3B" stroke-width="0.2" stroke-miterlimit="10" d="M87.9,53.6c0.1-0.1,0.1-0.2,0.3-0.2
		c0.1,0,0.1,0,0.2,0c0.2,0,0.4,0.1,0.4,0.3c0,0.1,0,0.2,0,0.4c-0.1,0.1-0.1,0.2-0.3,0.2c-0.1,0-0.1,0-0.2,0l0,0
		c-0.2,0-0.4-0.1-0.4-0.3C87.8,53.8,87.8,53.7,87.9,53.6z"/>
</g>
</svg>
