<svg xmlns="http://www.w3.org/2000/svg" width="452" height="194.406"><path fill="#5182BC" d="M173.73 162.217c-.001 0-2.154-2.352-5.094-6.658-8.821-12.92-24.725-43.426-10.828-80.772 1.695-4.555 4.101-9.214 6.979-13.989.95-1.569 1.953-3.15 2.809-4.26 1.255-2.125.22 5.073.563 12.913 3.528-11.275 4.41 32.275 10.886.507-2.407-20.429.674-21.95.716-26.897-.317-3.159.974-4.678 2.267-6.176 1.349-1.507 2.756-3.001 4.222-4.489 10.268-10.412 23.5-20.504 40.754-32.397 0 0 14.078 8.706 32.438 24.97 2.295 2.033 4.605 4.197 6.91 6.503 1.154 1.152 2.301 2.334 3.426 3.521 1.172 1.262 2.207 2.336 3.293 3.538 1.295 1.586 2.182 2.46 2.84 4.452.953.542.209 4.888.305 8.405 1.068-.031.262 7.197.557 12.846 2.598-10.483 1.926 20.124 4.086 29.085 1.646-28.387 3.238-2.197 4.639-9.271-1.154-23.62 1.08-9.495 1.461-14.089-1.244-13.602.439-6.592.562-8.814-.07-3.159 1.137-2.3 2.305-.348.682 2.331 2.307 4.021 3.391 6.108.133 1.488 1.838 3.713 2.602 5.435-.16.82 1.383 3.271 1.926 4.795-.23.532.98 2.923 1.365 4.352-.146.604.709 2.825.982 4.265-.045.842.51 2.91.684 4.419-.031.774.232 2.273.314 3.474.029 1.067.15 2.46.197 3.779.057 1.339.098 2.762.119 4.25.021 1.487.018 3.04-.002 4.667-.191 14.974-6.176 33.462-20.266 54.62 0 0-1.064.324-1.986 1.633-9.688-4.924-3.021 3.942-5.83 7.116-19.191-15.245-5.748 5.356-11.197 9.364-15.381-19.935-8.412 4.643-15.136 7.256-10.884-19.747-12.009 2.639-20.465 3.074-3.096-27.911-16.886-2.585-25.526-5.846 4.076-21.102-10.764-6.351-15.333-10.038 8.883-14.286-5.364-5.371-7.287-7.645 5.016-6.944-2.599-3.42-4.648-3.658z"/><path fill="#5E90CB" d="M173.191 158.398c6.868-4.086-1.518-2.721-3.709-7.334 4.113-4.213-1.918-5.101-2.867-8.27 2.821-3.918-1.42-6.59-1.908-10.322.685-3.646-.518-7.441-1.444-11.527-.944-4.09-1.647-8.473-1.922-13.111-.549-9.276.614-19.572 4.695-30.538.995-2.675 2.176-4.858 2.604.333 1.664-8.114 1.101 11.36 2.437 19.623 1.949-18.17 3.419 4.891 5.8-3.805-.626-20.959 1.405-12.157 1.938-19.381-1.141-14.078.606-12.386.744-16.278-.004-3.443.657-4.504 1.268-5.74.997-1.393 2.039-2.765 3.129-4.12 9.808-12.194 23.493-23.042 43.034-36.512 0 0 12.401 7.668 28.574 21.996 1.264 1.12 2.533 2.284 3.803 3.496 1.27 1.211 2.541 2.47 3.793 3.766 1.283 1.323 2.408 2.566 3.572 3.906 1.465 1.583 2.309 2.739 3.453 4.21 1.734 1.875 2.248 2.985 3.32 4.565 2.029 2.147 2.162 3.332 2.932 6.906 1.355.034.809 10.922 1.219 15.693 1.176-4.323.844 7.458 1.656 12.359 1.783-15.157 2.604 6.299 3.604 5.74.408-17.677 1.336-3.347 2.033-6.521.73-15.357 1.506-10.468 2.26-10.332 1.041.468 1.686 3.591 2.322 5.26.607.415 1.125 3.224 1.527 4.855.375.828.713 3.319.943 5.107.207 1.392.373 3.657.455 5.705.082 2.077.104 4.415.07 6.967-.057 4.396-.68 9.136-1.943 14.192-.635 2.529.037 5.097.043 7.869-3.115 2.669-.361 5.85-.785 9.029-6.045 2.081-1.441 6.706-2.551 10.336-7.576 1.058-2.969 7.265-4.963 11.056-7.652-4.37-.355.615-1.072 1.803-16.865-9.073-2.436 3.668-4.84 6.812-18.742-13.869-3.326 3.759-6.352 6.715-16.41-14.081-6.273 5.037-11.895 8.562-15.123-23.447-10.164 4.523-20.178 7.067-10.61-32.271-20.255.109-28.355-1.715 2.588-23.923-11.948-4.911-18.642-9.062 11.712-22.94-10.152-9.005-13.451-12.945 10.395-12.022-3.531-5.074-4.351-6.415z"/><text transform="translate(188.59 149.254)" fill="#fff" font-family="'MyriadPro-Regular'" font-size="205.745">s</text><path fill="#CD4A40" d="M323.729 162.217s-2.154-2.352-5.094-6.658c-8.821-12.92-24.725-43.426-10.828-80.772 1.695-4.555 4.101-9.214 6.979-13.989.949-1.569 1.953-3.15 2.809-4.26 1.255-2.125.22 5.073.563 12.913 3.528-11.275 4.409 32.275 10.886.507-2.406-20.429.674-21.95.717-26.897-.316-3.159.975-4.678 2.267-6.176 1.349-1.507 2.756-3.001 4.222-4.489 10.268-10.412 23.5-20.504 40.754-32.397 0 0 14.078 8.706 32.438 24.97 2.295 2.033 4.605 4.197 6.91 6.503 1.154 1.152 2.301 2.334 3.426 3.521 1.172 1.262 2.207 2.336 3.293 3.538 1.295 1.586 2.182 2.46 2.84 4.452.953.542.209 4.888.305 8.405 1.068-.031.262 7.197.557 12.846 2.598-10.483 1.926 20.124 4.086 29.085 1.646-28.387 3.238-2.197 4.639-9.271-1.154-23.62 1.08-9.495 1.461-14.089-1.244-13.602.439-6.592.562-8.814-.07-3.159 1.137-2.3 2.305-.348.682 2.331 2.307 4.021 3.391 6.108.133 1.488 1.838 3.713 2.602 5.435-.16.82 1.383 3.271 1.926 4.795-.23.532.98 2.923 1.365 4.352-.146.604.709 2.825.982 4.265-.045.842.51 2.91.684 4.419-.031.774.232 2.273.314 3.474.029 1.067.15 2.46.197 3.779.057 1.339.098 2.762.119 4.25.021 1.487.018 3.04-.002 4.667-.191 14.974-6.176 33.462-20.266 54.62 0 0-1.064.324-1.986 1.633-9.688-4.924-3.021 3.942-5.83 7.116-19.191-15.245-5.748 5.356-11.197 9.364-15.381-19.935-8.412 4.643-15.137 7.256-10.883-19.747-12.008 2.639-20.465 3.074-3.096-27.911-16.886-2.585-25.526-5.846 4.076-21.102-10.765-6.351-15.333-10.038 8.884-14.286-5.363-5.371-7.286-7.645 5.016-6.944-2.6-3.42-4.649-3.658z"/><path fill="#DC5F56" d="M323.191 158.398c6.868-4.086-1.519-2.721-3.71-7.334 4.113-4.213-1.918-5.101-2.867-8.27 2.822-3.918-1.42-6.59-1.908-10.322.686-3.646-.518-7.441-1.443-11.527-.944-4.09-1.648-8.473-1.923-13.111-.55-9.276.614-19.572 4.694-30.538.995-2.675 2.176-4.858 2.604.333 1.664-8.114 1.102 11.36 2.438 19.623 1.949-18.17 3.418 4.891 5.8-3.805-.626-20.959 1.405-12.157 1.938-19.381-1.141-14.078.606-12.386.744-16.278-.004-3.443.656-4.504 1.268-5.74.997-1.393 2.039-2.765 3.129-4.12 9.809-12.194 23.492-23.042 43.033-36.512 0 0 12.402 7.668 28.574 21.996 1.264 1.12 2.533 2.284 3.803 3.496 1.27 1.211 2.541 2.47 3.793 3.766 1.283 1.323 2.408 2.566 3.572 3.906 1.465 1.583 2.309 2.739 3.453 4.21 1.734 1.875 2.248 2.985 3.32 4.565 2.029 2.147 2.162 3.332 2.932 6.906 1.355.034.809 10.922 1.219 15.693 1.176-4.323.844 7.458 1.656 12.359 1.783-15.157 2.604 6.299 3.604 5.74.408-17.677 1.336-3.347 2.033-6.521.73-15.357 1.506-10.468 2.26-10.332 1.041.468 1.686 3.591 2.322 5.26.607.415 1.125 3.224 1.527 4.855.375.828.713 3.319.943 5.107.207 1.392.373 3.657.455 5.705.082 2.077.104 4.415.07 6.967-.057 4.396-.68 9.136-1.943 14.192-.635 2.529.037 5.097.043 7.869-3.115 2.669-.361 5.85-.785 9.029-6.045 2.081-1.441 6.706-2.551 10.336-7.576 1.058-2.969 7.265-4.963 11.056-7.652-4.37-.355.615-1.072 1.803-16.865-9.073-2.436 3.668-4.84 6.812-18.742-13.869-3.326 3.759-6.352 6.715-16.41-14.081-6.273 5.037-11.895 8.562-15.123-23.447-10.164 4.523-20.178 7.067-10.611-32.271-20.256.109-28.355-1.715 2.588-23.923-11.947-4.911-18.643-9.062 11.713-22.94-10.151-9.005-13.45-12.945 10.397-12.022-3.529-5.074-4.349-6.415z"/><text transform="translate(338.591 149.254)" fill="#fff" font-family="'MyriadPro-Regular'" font-size="205.745">s</text><path fill="#DBA628" d="M22.729 162.217s-2.154-2.352-5.094-6.658c-8.821-12.92-24.725-43.426-10.828-80.772 1.695-4.555 4.101-9.214 6.979-13.989.949-1.569 1.953-3.15 2.809-4.26 1.255-2.125.22 5.073.563 12.913 3.528-11.275 4.409 32.275 10.886.507-2.406-20.429.674-21.95.717-26.897-.316-3.159.975-4.678 2.267-6.176 1.349-1.507 2.756-3.001 4.222-4.489 10.267-10.41 23.499-20.502 40.753-32.396 0 0 14.078 8.706 32.438 24.97 2.295 2.033 4.605 4.197 6.91 6.503 1.154 1.152 2.301 2.334 3.426 3.521 1.172 1.262 2.207 2.336 3.293 3.538 1.295 1.586 2.182 2.46 2.84 4.452.953.542.209 4.888.305 8.405 1.068-.031.262 7.197.557 12.846 2.598-10.483 1.926 20.124 4.086 29.085 1.646-28.387 3.238-2.197 4.639-9.271-1.154-23.62 1.08-9.495 1.461-14.089-1.244-13.602.439-6.592.562-8.814-.07-3.159 1.137-2.3 2.305-.348.682 2.331 2.307 4.021 3.391 6.108.133 1.488 1.838 3.713 2.602 5.435-.16.82 1.383 3.271 1.926 4.795-.23.532.98 2.923 1.365 4.352-.146.604.709 2.825.982 4.265-.045.843.51 2.909.684 4.419-.031.774.232 2.273.314 3.474.029 1.067.15 2.46.197 3.779.057 1.339.098 2.762.119 4.25.021 1.487.018 3.04-.002 4.667-.191 14.974-6.176 33.462-20.266 54.62 0 0-1.064.324-1.986 1.633-9.688-4.924-3.021 3.942-5.83 7.116-19.191-15.245-5.748 5.356-11.197 9.364-15.381-19.935-8.412 4.643-15.137 7.256-10.883-19.747-12.008 2.639-20.465 3.074-3.096-27.911-16.886-2.585-25.526-5.846 4.076-21.102-10.765-6.351-15.333-10.038 8.884-14.286-5.363-5.371-7.286-7.645 5.017-6.945-2.599-3.421-4.648-3.659z"/><path fill="#FBCC43" d="M22.191 158.398c6.868-4.086-1.519-2.721-3.71-7.334 4.113-4.213-1.918-5.101-2.867-8.27 2.822-3.918-1.42-6.59-1.908-10.322.686-3.646-.518-7.441-1.443-11.527-.944-4.09-1.648-8.473-1.923-13.111-.55-9.276.614-19.572 4.694-30.538.995-2.675 2.176-4.858 2.604.333 1.664-8.114 1.102 11.36 2.438 19.623 1.949-18.17 3.418 4.891 5.8-3.805-.626-20.959 1.405-12.157 1.938-19.381-1.141-14.078.606-12.386.744-16.278-.004-3.443.656-4.504 1.268-5.74.997-1.393 2.039-2.765 3.129-4.12 9.809-12.194 23.492-23.042 43.033-36.512 0 0 12.402 7.668 28.574 21.996 1.264 1.12 2.533 2.284 3.803 3.496 1.27 1.211 2.541 2.47 3.793 3.766 1.283 1.323 2.408 2.566 3.572 3.906 1.465 1.583 2.309 2.739 3.453 4.21 1.734 1.875 2.248 2.985 3.32 4.565 2.029 2.147 2.162 3.332 2.932 6.906 1.355.034.809 10.922 1.219 15.693 1.176-4.323.844 7.458 1.656 12.36 1.783-15.157 2.604 6.299 3.604 5.739.408-17.677 1.336-3.347 2.033-6.521.73-15.357 1.506-10.468 2.26-10.332 1.041.468 1.686 3.591 2.322 5.26.607.415 1.125 3.223 1.527 4.855.375.827.713 3.319.943 5.107.207 1.392.373 3.657.455 5.705.082 2.077.104 4.415.07 6.967-.057 4.396-.68 9.136-1.943 14.192-.635 2.529.037 5.097.043 7.869-3.115 2.669-.361 5.85-.785 9.029-6.045 2.081-1.441 6.706-2.551 10.336-7.576 1.058-2.969 7.265-4.963 11.056-7.652-4.37-.355.615-1.072 1.803-16.865-9.073-2.436 3.668-4.84 6.812-18.742-13.869-3.326 3.759-6.352 6.715-16.41-14.081-6.273 5.037-11.895 8.562-15.123-23.447-10.164 4.523-20.178 7.067-10.611-32.271-20.256.109-28.355-1.715 2.588-23.923-11.947-4.911-18.643-9.062 11.713-22.94-10.151-9.005-13.45-12.945 10.397-12.022-3.529-5.074-4.349-6.415z"/><text transform="translate(37.59 149.254)" fill="#fff" font-family="'MyriadPro-Regular'" font-size="205.745">s</text></svg>