<svg xmlns="http://www.w3.org/2000/svg" width="148.951" height="200"><path fill="#C60956" d="M21.396 167.766c-.001 0-2.154-2.352-5.094-6.658-8.821-12.92-24.725-43.426-10.828-80.772 1.695-4.555 4.101-9.214 6.979-13.989.95-1.569 1.953-3.15 2.809-4.26 1.255-2.125.22 5.073.563 12.913 3.528-11.275 4.41 32.275 10.886.507-2.407-20.429.674-21.95.716-26.897-.317-3.159.974-4.678 2.267-6.176 1.349-1.507 2.756-3.001 4.222-4.489 10.268-10.412 23.5-20.504 40.754-32.397 0 0 14.078 8.706 32.438 24.97 2.294 2.033 4.604 4.197 6.91 6.503 1.154 1.152 2.301 2.334 3.426 3.521 1.171 1.262 2.207 2.336 3.293 3.538 1.295 1.586 2.181 2.46 2.839 4.452.953.542.21 4.888.305 8.405 1.068-.031.263 7.197.558 12.846 2.597-10.483 1.925 20.124 4.085 29.085 1.647-28.387 3.239-2.197 4.639-9.271-1.153-23.62 1.081-9.495 1.461-14.089-1.243-13.602.44-6.592.562-8.814-.069-3.159 1.138-2.3 2.306-.348.682 2.331 2.307 4.021 3.391 6.108.132 1.488 1.838 3.713 2.601 5.435-.16.82 1.384 3.271 1.927 4.795-.23.532.979 2.923 1.365 4.352-.147.604.709 2.825.982 4.265-.046.842.51 2.91.683 4.418-.031.775.233 2.274.315 3.474.029 1.067.149 2.46.197 3.779.056 1.339.098 2.762.118 4.25.021 1.487.019 3.04-.001 4.667-.191 14.974-6.177 33.462-20.267 54.62 0 0-1.064.324-1.986 1.633-9.688-4.924-3.021 3.942-5.83 7.116-19.191-15.245-5.747 5.356-11.196 9.364-15.382-19.935-8.413 4.643-15.137 7.256-10.884-19.747-12.009 2.639-20.465 3.074-3.096-27.911-16.886-2.585-25.526-5.846 4.076-21.102-10.764-6.351-15.333-10.038 8.883-14.286-5.364-5.371-7.287-7.645 5.018-6.944-2.598-3.42-4.647-3.657z"/><path fill="#D31C5D" d="M20.858 163.946c6.868-4.086-1.518-2.721-3.709-7.334 4.113-4.213-1.918-5.101-2.867-8.27 2.821-3.918-1.42-6.59-1.908-10.322.685-3.646-.518-7.441-1.444-11.527-.944-4.09-1.647-8.473-1.922-13.111-.549-9.276.614-19.572 4.695-30.538.995-2.675 2.176-4.858 2.604.333 1.664-8.114 1.101 11.36 2.437 19.623 1.949-18.17 3.419 4.891 5.8-3.805-.626-20.959 1.405-12.157 1.938-19.381-1.141-14.078.606-12.386.744-16.278-.004-3.443.657-4.504 1.268-5.74.997-1.393 2.039-2.765 3.129-4.12 9.808-12.194 23.493-23.042 43.034-36.512 0 0 12.401 7.668 28.574 21.996 1.263 1.12 2.532 2.284 3.802 3.496 1.271 1.211 2.541 2.47 3.794 3.766 1.282 1.323 2.407 2.566 3.571 3.906 1.466 1.583 2.309 2.739 3.453 4.21 1.734 1.875 2.248 2.985 3.32 4.565 2.03 2.147 2.163 3.332 2.933 6.906 1.354.034.809 10.922 1.219 15.693 1.176-4.323.843 7.458 1.656 12.359 1.783-15.157 2.604 6.299 3.604 5.74.408-17.677 1.336-3.346 2.033-6.521.73-15.357 1.506-10.468 2.259-10.332 1.041.468 1.687 3.591 2.322 5.26.607.415 1.125 3.224 1.527 4.855.375.828.713 3.319.944 5.107.206 1.391.373 3.657.454 5.705.083 2.077.104 4.415.07 6.967-.057 4.396-.679 9.136-1.943 14.192-.634 2.529.037 5.097.044 7.869-3.116 2.669-.362 5.85-.786 9.029-6.044 2.081-1.441 6.706-2.55 10.336-7.576 1.058-2.97 7.265-4.963 11.056-7.652-4.37-.356.615-1.073 1.803-16.864-9.073-2.436 3.668-4.839 6.812-18.743-13.869-3.327 3.759-6.352 6.715-16.411-14.081-6.273 5.037-11.895 8.562-15.123-23.447-10.164 4.523-20.179 7.067-10.61-32.271-20.255.109-28.355-1.715 2.588-23.923-11.948-4.911-18.642-9.062 11.712-22.94-10.152-9.005-13.451-12.945 10.395-12.022-3.53-5.074-4.35-6.415z"/><text transform="translate(36.257 154.803)" fill="#fff" font-family="'MyriadPro-Regular'" font-size="205.745">s</text></svg>