<?xml version="1.0" encoding="utf-8"?>
<!-- Generator: Adobe Illustrator 18.0.0, SVG Export Plug-In . SVG Version: 6.00 Build 0)  -->
<!DOCTYPE svg PUBLIC "-//W3C//DTD SVG 1.1//EN" "http://www.w3.org/Graphics/SVG/1.1/DTD/svg11.dtd">
<svg version="1.1" id="Layer_1" xmlns="http://www.w3.org/2000/svg" xmlns:xlink="http://www.w3.org/1999/xlink" x="0px" y="0px"
	 viewBox="0 0 100 100" enable-background="new 0 0 100 100" xml:space="preserve">
<circle cx="50.4" cy="17.9" r="1.6"/>
<path d="M27.2,38.8l4.5-5.5c0.4-0.5,0.3-1.2-0.2-1.5c-0.5-0.4-1.2-0.3-1.5,0.2l-5.2,6.3c-0.4,0.4-0.3,1.1,0.1,1.5l5.6,5.6
	c0.2,0.2,0.5,0.3,0.8,0.3c0.3,0,0.6-0.1,0.8-0.3c0.4-0.4,0.4-1.1,0-1.5L27.2,38.8z"/>
<path d="M46.4,37.4l-5.6-5.6c-0.4-0.4-1.1-0.4-1.5,0c-0.4,0.4-0.4,1.1,0,1.5l4.9,4.9l-4.5,5.5c-0.4,0.5-0.3,1.2,0.2,1.5
	c0.2,0.2,0.4,0.2,0.7,0.2c0.3,0,0.6-0.1,0.8-0.4l5.2-6.3C46.8,38.4,46.8,37.8,46.4,37.4z"/>
<path d="M79.3,13H20.7c-3.7,0-7,3-7,6.6v41.2c0,3.7,3.3,7,7,7h23.2c0.1,1.5,0.2,6.1-0.2,7.7c-0.9,1.3-10,4-17.9,5.8
	c-0.5,0.1-0.9,0.5-0.9,1v3.7c0,0.6,0.6,1.1,1.2,1.1H74c0.6,0,1.2-0.5,1.2-1.1v-3.7c0-0.5-0.4-0.9-0.9-1.1
	c-7.9-1.8-17.1-4.5-17.9-5.6c-0.5-1.6-0.5-6.3-0.4-7.8h23.4c3.7,0,7-3.3,7-7V19.6C86.3,15.9,83,13,79.3,13z"/>
<path fill="#E7E7E7" d="M73,83.1v1.7H27v-1.7c8.1-2,17.8-4.5,18.6-6.9c0.6-2.1,0.5-6.9,0.4-8.4h7.7c-0.1,1.5-0.1,6.3,0.5,8.4
	C55,78.6,64.8,81.2,73,83.1z"/>
<path fill="#E7E7E7" d="M84.1,61.1c0,2.5-2.7,4.5-5.2,4.5H20.4c-2.5,0-4.5-2-4.5-4.5V19.6c0-2.5,2-4.5,4.5-4.5h58.5
	c2.5,0,5.2,2,5.2,4.5V61.1z"/>
<path d="M79.3,21.9H20.7c-0.6,0-1.1,0.5-1.1,1.1v32.6c0,0.6,0.5,1.1,1.1,1.1h58.6c0.6,0,1.1-0.5,1.1-1.1V22.9
	C80.4,22.3,79.9,21.9,79.3,21.9z"/>
<rect x="21.9" y="24.1" fill="#FFFFFF" width="27.4" height="30.4"/>
<rect x="51.5" y="24.1" fill="#E7E7E7" width="26.7" height="30.4"/>
<path fill="#FCDC00" stroke="#232323" stroke-miterlimit="10" d="M54.8,26.9h20.1c0.4,0,0.6,0.3,0.6,0.6v10.1c0,0.4-0.3,0.6-0.6,0.6
	H54.8c-0.4,0-0.6-0.3-0.6-0.6V27.5C54.1,27.2,54.4,26.9,54.8,26.9z"/>
<path fill="#65519D" d="M75.2,41.9H54.4c-0.6,0-1.1,0.5-1.1,1.1s0.5,1.1,1.1,1.1h20.7c0.6,0,1.1-0.5,1.1-1.1S75.8,41.9,75.2,41.9z"
	/>
<path fill="#65519D" d="M75.2,46.3H54.4c-0.6,0-1.1,0.5-1.1,1.1c0,0.6,0.5,1.1,1.1,1.1h20.7c0.6,0,1.1-0.5,1.1-1.1
	C76.3,46.8,75.8,46.3,75.2,46.3z"/>
<path fill="#65519D" d="M75.2,50.7H54.4c-0.6,0-1.1,0.5-1.1,1.1c0,0.6,0.5,1.1,1.1,1.1h20.7c0.6,0,1.1-0.5,1.1-1.1
	C76.3,51.2,75.8,50.7,75.2,50.7z"/>
<path fill="#E72477" stroke="#232323" stroke-width="0.5" stroke-miterlimit="10" d="M27.1,39.9l4.5-5.5c0.4-0.5,0.3-1.2-0.2-1.5
	C31,32.4,30.3,32.5,30,33l-5.2,6.3c-0.4,0.4-0.3,1.1,0.1,1.5l5.6,5.6c0.2,0.2,0.5,0.3,0.8,0.3c0.3,0,0.6-0.1,0.8-0.3
	c0.4-0.4,0.4-1.1,0-1.5L27.1,39.9z"/>
<path fill="#E72477" stroke="#232323" stroke-width="0.5" stroke-miterlimit="10" d="M46.2,38.5l-5.6-5.6c-0.4-0.4-1.1-0.4-1.5,0
	c-0.4,0.4-0.4,1.1,0,1.5l4.9,4.9l-4.5,5.5c-0.4,0.5-0.3,1.2,0.2,1.5c0.2,0.2,0.4,0.2,0.7,0.2c0.3,0,0.6-0.1,0.8-0.4l5.2-6.3
	C46.7,39.6,46.6,38.9,46.2,38.5z"/>
</svg>
