<?xml version="1.0" encoding="utf-8"?>
<!-- Generator: Adobe Illustrator 18.0.0, SVG Export Plug-In . SVG Version: 6.00 Build 0)  -->
<!DOCTYPE svg PUBLIC "-//W3C//DTD SVG 1.1//EN" "http://www.w3.org/Graphics/SVG/1.1/DTD/svg11.dtd">
<svg version="1.1" id="Layer_1" xmlns="http://www.w3.org/2000/svg" xmlns:xlink="http://www.w3.org/1999/xlink" x="0px" y="0px"
	 viewBox="0 0 100 100" enable-background="new 0 0 100 100" xml:space="preserve">
<g>
	<path fill="#F4F4F4" stroke="#302F2C" stroke-miterlimit="10" d="M88.9,90.8H11.1c-1.5,0-2.7-1.2-2.7-2.7V10.3
		c0-1.5,1.2-2.7,2.7-2.7h77.8c1.5,0,2.7,1.2,2.7,2.7v77.8C91.7,89.6,90.4,90.8,88.9,90.8z"/>
	<polyline fill="none" stroke="#302F2C" stroke-width="0.2" stroke-miterlimit="10" points="18.5,31.5 27.5,38.9 35.5,31.1 
		45.5,33.3 53.5,22.6 62.5,41 71.5,27.8 80.9,34.5 	"/>
	<polyline fill="none" stroke="#302F2C" stroke-linecap="round" stroke-miterlimit="10" points="18.5,17 18.5,45.5 84,45.5 	"/>
	<circle fill="#E72477" stroke="#302F2C" stroke-width="0.2" stroke-miterlimit="10" cx="21.6" cy="29.9" r="1.3"/>
	<circle fill="#65519D" stroke="#302F2C" stroke-width="0.2" stroke-miterlimit="10" cx="37.6" cy="35.9" r="1.9"/>
	<circle fill="#FCDC00" stroke="#302F2C" stroke-width="0.2" stroke-miterlimit="10" cx="50.6" cy="36.9" r="1.4"/>
	<circle fill="#65519D" stroke="#302F2C" stroke-width="0.2" stroke-miterlimit="10" cx="61.4" cy="29.7" r="2.7"/>
	<circle fill="#E72477" stroke="#302F2C" stroke-width="0.2" stroke-miterlimit="10" cx="44.5" cy="28.8" r="2.2"/>
	<circle fill="#FCDC00" stroke="#302F2C" stroke-width="0.1" stroke-miterlimit="10" cx="27.5" cy="38.3" r="0.9"/>
	<circle fill="#FCDC00" stroke="#302F2C" stroke-width="0.1" stroke-miterlimit="10" cx="35.5" cy="31.3" r="0.9"/>
	<circle fill="#FCDC00" stroke="#302F2C" stroke-width="0.1" stroke-miterlimit="10" cx="45.5" cy="33.3" r="0.9"/>
	<circle fill="#FCDC00" stroke="#302F2C" stroke-width="0.1" stroke-miterlimit="10" cx="53.5" cy="23.3" r="0.9"/>
	<circle fill="#FCDC00" stroke="#302F2C" stroke-width="0.1" stroke-miterlimit="10" cx="62.5" cy="40.3" r="0.9"/>
	<circle fill="#FCDC00" stroke="#302F2C" stroke-width="0.1" stroke-miterlimit="10" cx="71.5" cy="28.3" r="0.9"/>
	<circle fill="#FCDC00" stroke="#302F2C" stroke-width="0.1" stroke-miterlimit="10" cx="80.5" cy="34.3" r="0.9"/>
	<g>
		<g>
			<path fill="#E72477" d="M28.2,80.2c-2.2,0-4.5-0.9-6-1.8l6-8.6l5.4,9C32,79.8,30.4,80.2,28.2,80.2z"/>
			<path fill="#302F2C" d="M28.2,70.2l5,8.5c-1.5,0.9-3,1.2-5,1.2c-2,0-4.2-0.8-5.6-1.6L28.2,70.2 M28.2,69.3l-6.4,9.2
				c1.7,1.1,4.2,2,6.4,2c2.2,0,3.9-0.4,5.7-1.6L28.2,69.3L28.2,69.3z"/>
		</g>
		<path d="M29,67.6"/>
		<g>
			<g>
				<path fill="#FCDC00" d="M21.4,76.8c-3-1.9-4.3-4.4-4.3-8.6c0-6.2,5-11.2,11.2-11.2c6.2,0,11.2,5,11.2,11.2
					c0,1.1-0.1,1.9-0.3,2.7l-0.1,0.2L28,67.8l-6.4,9.1L21.4,76.8z"/>
				<path fill="#302F2C" d="M28.3,57.2c6,0,10.9,4.9,10.9,10.9c0,1.2-0.1,2-0.3,2.6l-11-3.3l0,0l-6.4,9c-3.1-1.9-4.1-4.5-4.1-8.4
					C17.4,62.1,22.3,57.2,28.3,57.2 M28.3,56.7c-6.3,0-11.4,5.1-11.4,11.4c0,4.2,1.3,6.9,4.4,8.8l0.4,0.3l0.3-0.4l6.2-8.8l10.7,3.2
					l0.5,0.1l0.1-0.5c0.2-0.8,0.3-1.7,0.3-2.8C39.8,61.9,34.6,56.7,28.3,56.7L28.3,56.7z"/>
			</g>
		</g>
		<g>
			<path fill="#65519D" d="M29.7,69.4l9.4,3.2c-0.8,2.1-2.2,3.9-4,5.2L29.7,69.4z"/>
			<path fill="#302F2C" d="M30.3,69.9l8.5,2.9c-0.7,1.9-2,3.5-3.6,4.7L30.3,69.9 M29.1,68.9l5.9,9.2c2-1.3,3.6-3.3,4.4-5.7
				L29.1,68.9L29.1,68.9z"/>
		</g>
	</g>
	<polyline fill="none" stroke="#302F2C" stroke-linecap="round" stroke-miterlimit="10" points="52.5,53 52.5,79.5 84,79.3 	"/>
	<path fill="#FCDC00" stroke="#302F2C" stroke-width="0.5" stroke-linecap="round" stroke-miterlimit="10" d="M58.8,77.6h-2.6
		c-0.6,0-1-0.5-1-1v-10c0-0.6,0.5-1,1-1h2.6c0.6,0,1,0.5,1,1v10C59.8,77.2,59.4,77.6,58.8,77.6z"/>
	<path fill="#65519D" stroke="#302F2C" stroke-width="0.5" stroke-linecap="round" stroke-miterlimit="10" d="M66.5,77.8H64
		c-0.6,0-1.1-0.5-1.1-1.1V56.2c0-0.6,0.5-1.1,1.1-1.1h2.5c0.6,0,1.1,0.5,1.1,1.1v20.5C67.6,77.3,67.1,77.8,66.5,77.8z"/>
	<path fill="#E72477" stroke="#302F2C" stroke-width="0.5" stroke-linecap="round" stroke-miterlimit="10" d="M74.8,77.8h-2.6
		c-0.6,0-1-0.5-1-1V60.9c0-0.6,0.5-1,1-1h2.6c0.6,0,1,0.5,1,1v15.9C75.8,77.3,75.3,77.8,74.8,77.8z"/>
	<path fill="#FFFFFF" stroke="#302F2C" stroke-width="0.5" stroke-linecap="round" stroke-miterlimit="10" d="M81.9,77.8h-2.6
		c-0.6,0-1-0.5-1-1v-4.1c0-0.6,0.5-1,1-1h2.6c0.6,0,1,0.5,1,1v4.1C82.9,77.3,82.5,77.8,81.9,77.8z"/>
</g>
</svg>
