<?xml version="1.0" encoding="utf-8"?>
<!-- Generator: Adobe Illustrator 18.0.0, SVG Export Plug-In . SVG Version: 6.00 Build 0)  -->
<!DOCTYPE svg PUBLIC "-//W3C//DTD SVG 1.1//EN" "http://www.w3.org/Graphics/SVG/1.1/DTD/svg11.dtd">
<svg version="1.1" id="Layer_1" xmlns="http://www.w3.org/2000/svg" xmlns:xlink="http://www.w3.org/1999/xlink" x="0px" y="0px"
	 viewBox="0 0 100 100" enable-background="new 0 0 100 100" xml:space="preserve">
<g>
	<circle fill="#E7E7E7" stroke="#232323" stroke-width="1.5" stroke-miterlimit="10" cx="48.3" cy="47.7" r="23.3"/>
	<circle fill="#FCDC00" stroke="#232323" stroke-miterlimit="10" cx="48.3" cy="47.7" r="12.2"/>
	<circle fill="#E72477" stroke="#232323" stroke-miterlimit="10" cx="48.3" cy="47.7" r="7.2"/>
	<g>
		<path fill="#232323" d="M67.1,66.3c-0.2,0-0.8,0.1-1.4,0.3c-0.2-2-1.9-3.7-3.9-3.7c-0.9,0-1.8,0.3-2.5,0.9
			c-0.5-1.5-1.8-2.6-3.5-2.6c-1.1,0-2.1,0.4-2.7,1.2l-0.4-10.5c0-2.4-1.7-4.2-4-4.2c-2.3,0-4,1.8-4,4.3L45.2,70
			c-0.5,0.2-1.1,0.7-2,1.5c-3.1,2.8-4.1,9.5-0.6,14.8c3.9,5.8,8.4,8.3,15.1,8.3c7.1,0,9.5-3.6,11.4-7.2c1.8-3.5,1.8-17,1.8-17.6
			C70.8,67.8,69.1,66.3,67.1,66.3z"/>
		<path fill="#E7E7E7" d="M67.5,86.5c-1.7,3.5-3.7,6.3-9.8,6.3c-6.2,0-10.1-2.2-13.7-7.5c-2.1-3.1-3-9.6,0.3-12.6
			c0.4-0.3,0.7-0.6,0.9-0.8l0.1,5.9c0,0.5,0.4,0.8,0.9,0.8c0.5,0,0.8-0.4,0.8-0.9l-0.6-26c0-1.5,0.9-2.5,2.3-2.5s2.3,1,2.3,2.6
			l0.6,15.8c0,0.4,0.4,0.8,0.8,0.8c0.4,0,0.8-0.3,0.9-0.7l0.4-2.5c0,0,0-0.1,0-0.1c0-1.3,0.9-2.3,2.1-2.3c1.4,0,2,1.2,2,2.3v1.7
			c0,0.5,0.4,0.8,0.8,0.8c0.5,0,0.8-0.4,0.8-0.8c0-1.2,1-2.3,2.3-2.3s2.3,1,2.3,2.3v3.7c0,0.5,0.4,0.8,0.8,0.8
			c0.5,0,0.8-0.4,0.8-0.8v-2.2c0.3-0.2,1-0.4,1.4-0.4c1,0,2,0.8,2,1.7C69.1,73.4,68.8,83.9,67.5,86.5z"/>
	</g>
	<circle fill="#E72477" stroke="#232323" stroke-miterlimit="10" cx="89.5" cy="23" r="5.5"/>
	<circle fill="#E72477" stroke="#232323" stroke-miterlimit="10" cx="10.5" cy="62" r="5.5"/>
	<circle fill="#65519D" stroke="#232323" stroke-miterlimit="10" cx="85.5" cy="62" r="5.5"/>
	<circle fill="#FCDC00" stroke="#232323" stroke-miterlimit="10" cx="54.5" cy="11" r="5.5"/>
	<circle fill="#65519D" stroke="#232323" stroke-miterlimit="10" cx="15.5" cy="18" r="5.5"/>
	<line fill="none" stroke="#232323" stroke-width="1.5" stroke-miterlimit="10" x1="70.5" y1="55" x2="80" y2="59.9"/>
	<line fill="none" stroke="#232323" stroke-width="1.5" stroke-miterlimit="10" x1="69.1" y1="35.6" x2="85.5" y2="25.6"/>
	<line fill="none" stroke="#232323" stroke-width="1.5" stroke-miterlimit="10" x1="51.8" y1="24.7" x2="53.6" y2="16"/>
	<line fill="none" stroke="#232323" stroke-width="1.5" stroke-miterlimit="10" x1="32.6" y1="30.9" x2="19.3" y2="21"/>
	<line fill="none" stroke="#232323" stroke-width="1.5" stroke-miterlimit="10" x1="26.2" y1="55" x2="16" y2="60"/>
</g>
</svg>
