<?xml version="1.0" encoding="utf-8"?>
<!-- Generator: Adobe Illustrator 18.0.0, SVG Export Plug-In . SVG Version: 6.00 Build 0)  -->
<!DOCTYPE svg PUBLIC "-//W3C//DTD SVG 1.1//EN" "http://www.w3.org/Graphics/SVG/1.1/DTD/svg11.dtd">
<svg version="1.1" id="Layer_1" xmlns="http://www.w3.org/2000/svg" xmlns:xlink="http://www.w3.org/1999/xlink" x="0px" y="0px"
	 viewBox="0 0 100 100" enable-background="new 0 0 100 100" xml:space="preserve">
<g>
	<path fill="#E72477" stroke="#302F2C" stroke-miterlimit="10" d="M14.4,25.5c0,0-1.1,11.7,2.1,15.7l11.6-0.4c0,0-2.7-9.3-2.1-15.3
		H14.4z"/>
	<path fill="#E72477" stroke="#302F2C" stroke-miterlimit="10" d="M23.9,44.5c0,0-1.1,11.7,2.1,15.7l11.6-0.3c0,0-2.7-9.3-2.1-15.3
		H23.9z"/>
	<path fill="#E72477" stroke="#302F2C" stroke-miterlimit="10" d="M30.9,25.5c0,0-1.1,11.7,2.1,15.7l11.6-0.4c0,0-2.7-9.3-2.1-15.3
		H30.9z"/>
	<path fill="#65519D" stroke="#302F2C" stroke-miterlimit="10" d="M53.8,21.5c0,0-1.1,11.8,2.1,15.7l11.6-0.4c0,0-2.7-8.3-2.1-15.3
		H53.8z"/>
	<path fill="#65519D" stroke="#302F2C" stroke-miterlimit="10" d="M69.6,41.5c0,0-1.1,11.6,2.1,15.6l11.6-0.3c0,0-2.7-9.3-2.1-15.3
		H69.6z"/>
	<path fill="#65519D" stroke="#302F2C" stroke-miterlimit="10" d="M69.6,21.5c0,0-1.1,11.8,2.1,15.7l11.6-0.4c0,0-2.7-8.3-2.1-15.3
		H69.6z"/>
	<path fill="#FCDC00" stroke="#302F2C" stroke-miterlimit="10" d="M28.6,67.5c0,0-1.1,11.7,2.1,15.6l11.6-0.3c0,0-2.7-9.3-2.1-15.3
		H28.6z"/>
	<path fill="#FCDC00" stroke="#302F2C" stroke-miterlimit="10" d="M46.7,67.5c0,0-1.1,11.7,2.1,15.6l11.6-0.3c0,0-2.7-9.3-2.1-15.3
		H46.7z"/>
	<path fill="#FCDC00" stroke="#302F2C" stroke-miterlimit="10" d="M64.9,67.5c0,0-1.1,11.7,2.1,15.6l11.6-0.3c0,0-2.7-9.3-2.1-15.3
		H64.9z"/>
	<path fill="#65519D" stroke="#302F2C" stroke-miterlimit="10" d="M50.7,41.5c0,0-1.1,11.6,2.1,15.6l11.6-0.3c0,0-2.7-9.3-2.1-15.3
		H50.7z"/>
</g>
</svg>
