<?xml version="1.0" encoding="utf-8"?>
<!-- Generator: Adobe Illustrator 18.0.0, SVG Export Plug-In . SVG Version: 6.00 Build 0)  -->
<!DOCTYPE svg PUBLIC "-//W3C//DTD SVG 1.1//EN" "http://www.w3.org/Graphics/SVG/1.1/DTD/svg11.dtd">
<svg version="1.1" id="Layer_1" xmlns="http://www.w3.org/2000/svg" xmlns:xlink="http://www.w3.org/1999/xlink" x="0px" y="0px"
	 viewBox="0 0 100 100" enable-background="new 0 0 100 100" xml:space="preserve">
<polygon display="none" fill="none" points="27.9,34 31.6,36.8 33.2,35.1 30.4,31.5 "/>
<polygon display="none" fill="none" points="44,44.9 34.6,36.5 33,38.1 41.4,47.4 "/>
<path display="none" fill="none" d="M27.1,20.9l-13-4.9c-0.2,0.3-0.4,0.5-0.8,0.9c-0.2,0.3-0.5,0.5-0.9,0.8l4.9,13
	c1-0.1,3.4-0.4,6.3-3.3S27.1,22,27.1,20.9z"/>
<path display="none" fill="none" d="M84.6,18.1c-0.9-1-3-0.8-6,0.6l5.5,5.1C85.2,21,85.4,19,84.6,18.1z"/>
<path display="none" fill="none" d="M40.9,49.7c-0.1,0-0.3-0.1-0.4-0.2l-9.7-10.7l-4.9-3.9c-0.2-0.1-0.3-0.3-0.3-0.6
	c0-0.3,0.1-0.5,0.3-0.8l4-4c0.2-0.2,0.4-0.3,0.8-0.3c0.2,0,0.4,0.1,0.6,0.3l4,5.1l10.6,9.6l0.1,0.1c0.5-0.5,1-1.1,1.5-1.6l-8.1-8.1
	c-6-5.9-9.1-9.7-10.7-11.7c-0.4,1.6-1.4,3.7-3.5,5.8c-2.3,2.1-4.3,3.1-5.8,3.5c2,1.6,5.8,4.8,11.7,10.7l8.4,8.5
	C39.9,50.9,40.4,50.2,40.9,49.7z"/>
<g>
	<path fill="none" d="M37.6,63.9c-1.9,1.3-4.1,1.2-6.1,1.1c-2.5-0.1-5.1-0.2-7.8,2c-2.4,1.9-3.7,5.2-4.7,8c-0.3,0.8-0.6,1.5-1,2.3
		c1.6,0.3,5.1,1.6,3.2,6.3c3.7,0.8,8.2,0.4,12.3-3.7c8-8,7.1-12.5,6.9-13.3L37.6,63.9z"/>
	<path fill="none" d="M36.3,60l8.2,8.2c0.8-0.6,2.1-1.8,4-3.3l-8.7-8.7C38.1,57.9,36.9,59.3,36.3,60z"/>
	<path fill="none" d="M84.5,26.6l-7.2-6.1c-4.9,3-11.6,8.3-19.6,16.2c-5.7,5.7-12.4,13-16.9,18.1l8.8,8.8
		c5.2-4.5,12.5-11.1,18.3-16.8c7.2-7.2,12.8-13.9,16-19.2C84.2,27.3,84.3,27,84.5,26.6z"/>
	<path fill="none" d="M80.3,82.2c-0.5,0.6-1.2,1.2-1.9,1.6c0.2,0.2,0.3,0.4,0.5,0.6c1.1,1.1,2.7,1.1,3.8,0c0.4-0.4,0.8-1.1,0.8-1.8
		c0-0.6-0.2-1.3-0.8-1.8c-0.1-0.2-0.4-0.3-0.8-0.5C81.4,80.9,80.9,81.6,80.3,82.2z"/>
	<path fill="none" d="M53,63.2l5.5,5.5c7.6,7.6,14.1,14.1,15,15c0.8,0.1,3.4-0.6,5.6-2.8c2.1-2,2.9-4.7,2.8-5.5L61.7,55.2
		C58.7,58.1,55.7,60.8,53,63.2z"/>
	<path fill="#010101" d="M85.5,28.6c3.5-5.8,4.3-9.7,2.3-11.7c-4-4-15.7,2.9-31.3,18.5c-1.9,1.9-3.9,4-5.9,6.1l-8.1-8.1
		C32.6,23.5,30.6,20,30.6,20c-0.1-0.2-0.3-0.3-0.5-0.4l-14.4-5.6c-0.5-0.2-1.1,0.1-1.2,0.5c0,0.1-0.1,0.2-0.1,0.3L12.4,13l-1.3,1.3
		l1.9,1.9c-0.1,0-0.2,0.1-0.3,0.1c-0.2,0.1-0.4,0.2-0.5,0.5c-0.1,0.2-0.1,0.5,0,0.8l5.5,14.3c0.1,0.2,0.2,0.4,0.4,0.5
		c0,0,3.7,2,13.4,11.9l8.5,8.5c-3.4,3.9-5.8,6.6-5.8,6.7c-0.3,0.3-0.3,1,0,1.3l1.8,1.8c-1.3,0.8-2.8,0.6-4.6,0.6
		c-2.7-0.1-5.8-0.3-9.1,2.4c-2.8,2.3-4.2,5.7-5.4,8.7c-1.4,3.7-2.4,5.7-4.4,5.5c-0.4,0-0.9,0.2-1,0.5c-0.2,0.4,0,0.9,0.3,1.1
		c0.1,0.1,5.7,4.3,12.2,4.3c3.4,0,7.1-1.1,10.4-4.5c5.8-5.8,7.3-10,7.5-12.7l1.6,1.6c0.3,0.3,0.9,0.3,1.3,0c0.1,0,2.8-2.4,6.7-5.8
		l4,4l1.6,1.6c8.2,8.2,14.9,14.9,15.2,15.2c0.8,0.8,2.6,0.5,4.5-0.4c0.2,0.4,0.4,0.8,0.8,1.1c0.9,0.9,2,1.3,3.2,1.3s2.4-0.4,3.2-1.3
		c0.9-0.9,1.3-1.9,1.3-3.2c0-1.2-0.4-2.4-1.3-3.2c-0.3-0.3-0.6-0.6-1.1-0.8c0.9-1.9,1.2-3.8,0.4-4.5L63.1,53.9
		c2.1-1.9,4.2-4,6.1-5.9C76.5,40.8,82.2,34,85.5,28.6z"/>
	<path fill="#FDDE00" d="M86.4,18.1c0.9,0.9,0.6,2.9-0.5,5.7l-5.5-5.1C83.3,17.4,85.5,17.2,86.4,18.1z"/>
	<path fill="#E72376" d="M14.2,17.6c0.3-0.2,0.6-0.4,0.9-0.8c0.3-0.3,0.5-0.5,0.8-0.9l13,4.9c0,1.1-0.4,3.4-3.3,6.3
		s-5.4,3.2-6.3,3.3L14.2,17.6z"/>
	<path fill="#E7E7E6" d="M32.8,43c-5.9-5.9-9.7-9.1-11.7-10.7c1.5-0.4,3.5-1.4,5.8-3.5c2.1-2.1,3.1-4.2,3.5-5.8
		c1.6,2,4.7,5.8,10.7,11.7l8.1,8.1c-0.5,0.5-1,1.1-1.5,1.6l-0.1-0.1L37,34.6l-4-5.1c-0.2-0.2-0.4-0.3-0.6-0.3
		c-0.3,0-0.5,0.1-0.8,0.3l-4,4c-0.2,0.2-0.3,0.4-0.3,0.8c0,0.3,0.1,0.5,0.3,0.6l4.9,3.9l9.7,10.7c0.1,0.1,0.3,0.2,0.4,0.2
		c-0.5,0.5-1.1,1.2-1.5,1.7L32.8,43z"/>
	<polygon fill="#FEDC00" points="36.4,36.5 45.7,44.9 43.2,47.5 34.8,38.1 	"/>
	<polygon fill="#FDDD00" points="33.4,36.8 29.7,34 32.2,31.6 35,35.1 	"/>
	<path fill="#E82477" d="M33.4,79.9c-4.1,4.1-8.6,4.4-12.3,3.7c1.8-4.7-1.6-6-3.2-6.3c0.3-0.8,0.6-1.5,1-2.3c1.1-2.8,2.4-6,4.7-8
		c2.8-2.3,5.4-2.1,7.8-2c2,0.1,4.2,0.2,6.1-1.1l2.7,2.7C40.5,67.5,41.3,72,33.4,79.9z"/>
	<path fill="#FDDD00" d="M44.4,68.2L36.3,60c0.6-0.8,1.8-2.1,3.4-3.9l8.7,8.7C46.6,66.4,45.2,67.6,44.4,68.2z"/>
	<path fill="#FDDD00" d="M82.7,80.8c0.5,0.5,0.8,1.2,0.8,1.8c0,0.8-0.3,1.4-0.8,1.8c-1.1,1.1-2.7,1.1-3.8,0
		c-0.2-0.2-0.3-0.4-0.5-0.6c0.8-0.4,1.4-1,1.9-1.6c0.5-0.5,1.1-1.3,1.6-1.9C82.3,80.5,82.6,80.6,82.7,80.8z"/>
	<path fill="#E7E7E6" d="M81.9,75.4c0.1,0.8-0.6,3.4-2.8,5.5c-2.1,2.1-4.8,2.9-5.6,2.8c-1-1-7.4-7.4-15-15L53,63.2
		c2.7-2.4,5.7-5.1,8.7-8L81.9,75.4z"/>
	<path fill="#E8E8E8" d="M49.7,63.6l-8.8-8.8c4.5-5.1,11.2-12.4,16.9-18.1c8-8,14.6-13.2,19.6-16.2l7.2,6.1c-0.2,0.3-0.3,0.6-0.5,1
		c-3.2,5.4-8.8,12-16,19.2C62.2,52.5,54.9,59.1,49.7,63.6z"/>
</g>
</svg>
