<?xml version="1.0" encoding="utf-8"?>
<!-- Generator: Adobe Illustrator 18.0.0, SVG Export Plug-In . SVG Version: 6.00 Build 0)  -->
<!DOCTYPE svg PUBLIC "-//W3C//DTD SVG 1.1//EN" "http://www.w3.org/Graphics/SVG/1.1/DTD/svg11.dtd">
<svg version="1.1" id="Layer_1" xmlns="http://www.w3.org/2000/svg" xmlns:xlink="http://www.w3.org/1999/xlink" x="0px" y="0px"
	 viewBox="0 0 100 100" enable-background="new 0 0 100 100" xml:space="preserve">
<polygon display="none" fill="none" points="27.9,34 31.6,36.8 33.2,35.1 30.4,31.5 "/>
<polygon display="none" fill="none" points="44,44.9 34.6,36.5 33,38.1 41.4,47.4 "/>
<path display="none" fill="none" d="M27.1,20.9l-13-4.9c-0.2,0.3-0.4,0.5-0.8,0.9c-0.2,0.3-0.5,0.5-0.9,0.8l4.9,13
	c1-0.1,3.4-0.4,6.3-3.3S27.1,22,27.1,20.9z"/>
<path display="none" fill="none" d="M84.6,18.1c-0.9-1-3-0.8-6,0.6l5.5,5.1C85.2,21,85.4,19,84.6,18.1z"/>
<path display="none" fill="none" d="M40.9,49.7c-0.1,0-0.3-0.1-0.4-0.2l-9.7-10.7l-4.9-3.9c-0.2-0.1-0.3-0.3-0.3-0.6
	c0-0.3,0.1-0.5,0.3-0.8l4-4c0.2-0.2,0.4-0.3,0.8-0.3c0.2,0,0.4,0.1,0.6,0.3l4,5.1l10.6,9.6l0.1,0.1c0.5-0.5,1-1.1,1.5-1.6l-8.1-8.1
	c-6-5.9-9.1-9.7-10.7-11.7c-0.4,1.6-1.4,3.7-3.5,5.8c-2.3,2.1-4.3,3.1-5.8,3.5c2,1.6,5.8,4.8,11.7,10.7l8.4,8.5
	C39.9,50.9,40.4,50.2,40.9,49.7z"/>
<g>
	<path fill="none" d="M39.2,62.1c-1.7,1.1-3.5,1-5.3,0.9c-2.1-0.1-4.4-0.2-6.8,1.8c-2.1,1.7-3.2,4.5-4.1,6.9c-0.3,0.7-0.6,1.3-0.8,2
		c1.4,0.3,4.4,1.4,2.8,5.5c3.2,0.7,7.1,0.4,10.6-3.2c6.9-6.9,6.2-10.8,6-11.6L39.2,62.1z"/>
	<path fill="none" d="M38.1,58.7l7.1,7.1c0.7-0.6,1.9-1.6,3.5-2.9l-7.6-7.6C39.7,56.9,38.6,58.1,38.1,58.7z"/>
	<path fill="none" d="M80,29.7l-6.3-5.3c-4.3,2.6-10.1,7.2-17,14.1C51.8,43.4,46,49.8,42.1,54.2l7.6,7.6c4.5-3.9,10.8-9.6,15.9-14.6
		c6.3-6.3,11.1-12,13.9-16.7C79.7,30.3,79.8,30,80,29.7z"/>
	<path fill="none" d="M76.3,77.9c-0.5,0.6-1,1-1.7,1.4c0.2,0.2,0.3,0.4,0.5,0.6c0.9,0.9,2.3,0.9,3.3,0c0.4-0.4,0.7-0.9,0.7-1.6
		c0-0.6-0.2-1.1-0.7-1.6c-0.1-0.2-0.4-0.3-0.7-0.5C77.3,76.8,76.8,77.5,76.3,77.9z"/>
	<path fill="none" d="M52.6,61.4l4.8,4.8c6.6,6.6,12.2,12.2,13.1,13.1c0.7,0.1,3-0.6,4.9-2.4c1.9-1.8,2.5-4.1,2.4-4.8L60.2,54.5
		C57.6,57,55,59.4,52.6,61.4z"/>
	<path fill="#010101" d="M80.8,31.4c3.1-5,3.7-8.4,2-10.2c-3.5-3.5-13.6,2.5-27.1,16c-1.7,1.7-3.4,3.5-5.1,5.3l-7-7
		C34.9,27,33.1,23.9,33.1,23.9c-0.1-0.2-0.3-0.3-0.5-0.4l-12.5-4.9c-0.5-0.2-0.9,0.1-1,0.5c0,0.1-0.1,0.2-0.1,0.3l-1.7-1.6L16.3,19
		l1.7,1.7c-0.1,0-0.2,0.1-0.3,0.1c-0.2,0.1-0.4,0.2-0.5,0.5c-0.1,0.2-0.1,0.5,0,0.7l4.8,12.4c0.1,0.2,0.2,0.4,0.4,0.5
		c0,0,3.2,1.8,11.7,10.4l7.4,7.4c-3,3.4-5,5.7-5,5.8c-0.3,0.3-0.3,0.8,0,1.1l1.6,1.6c-1.1,0.7-2.4,0.6-4,0.6c-2.3-0.1-5-0.3-7.9,2.1
		c-2.4,2-3.6,4.9-4.7,7.6c-1.2,3.2-2.1,4.9-3.8,4.8c-0.4,0-0.7,0.2-0.8,0.5c-0.2,0.4,0,0.7,0.3,0.9C17,77.4,21.9,81,27.5,81
		c3,0,6.2-0.9,9-3.9c5-5,6.3-8.7,6.5-11l1.4,1.4c0.3,0.3,0.7,0.3,1.1,0c0.1,0,2.4-2.1,5.8-5l3.5,3.5l1.4,1.4
		c7.1,7.1,13,13,13.2,13.2c0.7,0.7,2.2,0.5,3.9-0.4c0.2,0.4,0.4,0.7,0.7,0.9c0.7,0.7,1.8,1.1,2.8,1.1s2.1-0.4,2.8-1.1
		c0.7-0.7,1.1-1.7,1.1-2.8c0-1-0.4-2.1-1.1-2.8c-0.3-0.3-0.6-0.6-0.9-0.7c0.7-1.7,1-3.3,0.4-3.9L61.4,53.4c1.9-1.7,3.6-3.5,5.3-5.1
		C73,42,77.9,36.1,80.8,31.4z"/>
	<path fill="#FDDE00" d="M81.6,22.3c0.7,0.7,0.6,2.5-0.5,4.9l-4.8-4.4C78.9,21.7,80.8,21.5,81.6,22.3z"/>
	<path fill="#E72376" d="M19,21.9c0.3-0.2,0.6-0.4,0.7-0.7c0.3-0.3,0.5-0.5,0.7-0.7l11.3,4.3c0,0.9-0.4,3-2.9,5.5s-4.7,2.8-5.5,2.9
		L19,21.9z"/>
	<path fill="#E7E7E6" d="M35.1,43.9c-5.1-5.1-8.4-7.9-10.2-9.3c1.3-0.4,3.1-1.2,5-3.1c1.9-1.9,2.7-3.6,3.1-5c1.4,1.8,4.1,5,9.3,10.2
		l7,7c-0.5,0.5-0.8,0.9-1.3,1.4L48,44.9l-9.2-8.3l-3.5-4.4c-0.2-0.2-0.4-0.3-0.6-0.3c-0.3,0-0.5,0.1-0.7,0.3l-3.5,3.5
		c-0.2,0.2-0.3,0.4-0.3,0.7c0,0.3,0.1,0.5,0.3,0.6l4.3,3.4l8.4,9.3c0.1,0.1,0.3,0.2,0.4,0.2c-0.5,0.5-0.9,1-1.3,1.5L35.1,43.9z"/>
	<polygon fill="#FEDC00" points="38.2,38.3 46.3,45.6 44.1,47.8 36.8,39.7 	"/>
	<polygon fill="#FDDD00" points="35.6,38.6 32.4,36.1 34.5,34 37,37.1 	"/>
	<path fill="#E82477" d="M35.6,76c-3.5,3.5-7.5,3.8-10.6,3.2c1.6-4.1-1.4-5.2-2.8-5.5c0.3-0.7,0.6-1.3,0.8-2
		c0.9-2.4,2.1-5.2,4.1-6.9c2.4-2,4.7-1.9,6.8-1.8c1.8,0.1,3.6,0.2,5.3-0.9l2.3,2.3C41.7,65.2,42.5,69.1,35.6,76z"/>
	<path fill="#FDDD00" d="M45.2,65.8l-7.1-7.1c0.6-0.7,1.6-1.9,3-3.4l7.6,7.6C47,64.2,45.8,65.3,45.2,65.8z"/>
	<path fill="#FDDD00" d="M78.4,76.7c0.5,0.5,0.7,1,0.7,1.6c0,0.7-0.3,1.2-0.7,1.6c-0.9,0.9-2.3,0.9-3.3,0c-0.2-0.2-0.3-0.4-0.5-0.6
		c0.7-0.4,1.2-0.8,1.7-1.4c0.5-0.5,0.9-1.1,1.4-1.7C78,76.4,78.3,76.5,78.4,76.7z"/>
	<path fill="#E7E7E6" d="M77.7,72.1c0.1,0.7-0.6,3-2.4,4.8c-1.9,1.9-4.2,2.5-4.9,2.4c-0.8-0.8-6.4-6.4-13.1-13.1l-4.8-4.8
		c2.3-2.1,4.9-4.4,7.6-6.9L77.7,72.1z"/>
	<path fill="#E8E8E8" d="M49.7,61.8l-7.6-7.6c3.9-4.4,9.7-10.7,14.6-15.7c6.9-6.9,12.7-11.5,17-14.1l6.3,5.3
		c-0.2,0.3-0.3,0.6-0.5,0.8c-2.8,4.7-7.6,10.4-13.9,16.7C60.6,52.2,54.2,57.9,49.7,61.8z"/>
</g>
</svg>
