<?xml version="1.0" encoding="utf-8"?>
<!-- Generator: Adobe Illustrator 18.0.0, SVG Export Plug-In . SVG Version: 6.00 Build 0)  -->
<!DOCTYPE svg PUBLIC "-//W3C//DTD SVG 1.1//EN" "http://www.w3.org/Graphics/SVG/1.1/DTD/svg11.dtd">
<svg version="1.1" id="Layer_1" xmlns="http://www.w3.org/2000/svg" xmlns:xlink="http://www.w3.org/1999/xlink" x="0px" y="0px"
	 viewBox="0 0 250 100" enable-background="new 0 0 250 100" xml:space="preserve">
<g>
	<path fill="#FFFFFF" d="M88.6,33l-4.6-3.9l7.7-9H66.1V15h25.6l-7.7-9l4.6-3.8L102,17.6L88.6,33z"/>
	<path fill="#FFFFFF" d="M15.1,33l4.6-3.9l-7.7-9h25.6V15H12l7.7-9l-4.6-3.8L1.8,17.6L15.1,33z"/>
	<path fill="#FFFFFF" d="M141.1,17.7L126.6,3.2l3.6-3.6L144.7,14l14.5-14.5l3.6,3.6l-14.5,14.5l14.5,14.5l-3.6,3.6l-14.5-14.5
		l-14.5,14.5l-3.6-3.6L141.1,17.7z"/>
	<path fill="#FFFFFF" d="M141.1,82.3l-14.5-14.5l3.6-3.6l14.5,14.5l14.5-14.5l3.6,3.6l-14.5,14.5l14.5,14.5l-3.6,3.6L144.7,86
		l-14.5,14.5l-3.6-3.6L141.1,82.3z"/>
	<path fill="#FFFFFF" d="M88.6,97.7l-4.6-3.9l7.7-9H66.1v-5.1h25.6l-7.7-9l4.6-3.8L102,82.3L88.6,97.7z"/>
	<path fill="#FFFFFF" d="M15.1,97.7l4.6-3.9l-7.7-9h25.6v-5.1H12l7.7-9L15.1,67L1.8,82.3L15.1,97.7z"/>
</g>
</svg>
