<svg xmlns="http://www.w3.org/2000/svg" width="149.284" height="189.406"><path fill="#35A7BA" d="M21.729 162.217s-2.154-2.352-5.094-6.658c-8.822-12.92-24.725-43.426-10.829-80.771 1.695-4.555 4.101-9.215 6.979-13.988.949-1.569 1.953-3.15 2.809-4.26 1.254-2.125.219 5.072.562 12.912 3.529-11.275 4.41 32.275 10.887.508-2.406-20.429.674-21.949.717-26.896-.316-3.16.975-4.679 2.266-6.176 1.35-1.508 2.756-3.002 4.223-4.489 10.268-10.413 23.5-20.505 40.754-32.399 0 0 14.078 8.706 32.438 24.97 2.295 2.033 4.605 4.197 6.91 6.502 1.154 1.152 2.301 2.335 3.426 3.521 1.172 1.262 2.207 2.336 3.293 3.538 1.295 1.586 2.182 2.46 2.84 4.452.953.542.209 4.889.305 8.404 1.068-.031.262 7.197.557 12.847 2.598-10.483 1.926 20.124 4.086 29.085 1.646-28.387 3.238-2.197 4.639-9.271-1.154-23.619 1.08-9.494 1.461-14.088-1.244-13.603.439-6.592.562-8.814-.07-3.159 1.137-2.3 2.305-.348.682 2.33 2.307 4.02 3.391 6.107.133 1.488 1.838 3.714 2.602 5.436-.16.82 1.383 3.271 1.926 4.795-.23.531.98 2.922 1.365 4.352-.146.604.709 2.825.982 4.266-.045.842.51 2.908.684 4.418-.031.775.232 2.273.314 3.475.029 1.066.15 2.459.197 3.779.057 1.338.098 2.762.119 4.25.021 1.486.018 3.039-.002 4.666-.191 14.975-6.176 33.463-20.266 54.621 0 0-1.064.324-1.986 1.633-9.688-4.924-3.021 3.941-5.83 7.115-19.191-15.244-5.748 5.357-11.197 9.365-15.381-19.936-8.412 4.643-15.137 7.256-10.883-19.748-12.008 2.639-20.465 3.074-3.096-27.912-16.887-2.586-25.527-5.846 4.076-21.102-10.764-6.352-15.332-10.039 8.883-14.285-5.363-5.371-7.287-7.645 5.018-6.944-2.598-3.421-4.647-3.659z"/><path fill="#4DBFD9" d="M21.19 158.398c6.869-4.086-1.518-2.721-3.709-7.334 4.113-4.213-1.918-5.102-2.868-8.27 2.823-3.918-1.42-6.59-1.908-10.322.686-3.646-.518-7.441-1.443-11.527-.944-4.09-1.648-8.473-1.923-13.111-.55-9.277.614-19.572 4.694-30.539.995-2.675 2.176-4.857 2.604.334 1.664-8.115 1.102 11.359 2.438 19.623 1.949-18.171 3.418 4.891 5.799-3.805-.625-20.959 1.406-12.158 1.939-19.382-1.141-14.078.605-12.386.744-16.278-.004-3.443.656-4.504 1.268-5.739.996-1.394 2.039-2.765 3.129-4.12 9.809-12.193 23.492-23.042 43.033-36.512 0 0 12.402 7.668 28.574 21.996 1.264 1.12 2.533 2.284 3.803 3.495s2.541 2.471 3.793 3.767c1.283 1.323 2.408 2.565 3.572 3.905 1.465 1.583 2.309 2.74 3.453 4.211 1.734 1.875 2.248 2.984 3.32 4.564 2.029 2.148 2.162 3.332 2.932 6.906 1.355.034.809 10.922 1.219 15.693 1.176-4.323.844 7.459 1.656 12.359 1.783-15.156 2.604 6.299 3.604 5.74.408-17.678 1.336-3.348 2.033-6.521.73-15.357 1.506-10.469 2.26-10.332 1.041.468 1.686 3.591 2.322 5.26.607.415 1.125 3.223 1.527 4.855.375.826.713 3.318.943 5.107.207 1.391.373 3.656.455 5.705.082 2.076.104 4.414.07 6.967-.057 4.396-.68 9.135-1.943 14.191-.635 2.529.037 5.098.043 7.869-3.115 2.67-.361 5.85-.785 9.029-6.045 2.082-1.441 6.707-2.551 10.336-7.576 1.059-2.969 7.266-4.963 11.057-7.652-4.371-.355.615-1.072 1.803-16.865-9.074-2.436 3.668-4.84 6.811-18.742-13.869-3.326 3.76-6.352 6.715-16.41-14.08-6.273 5.037-11.895 8.562-15.123-23.447-10.164 4.523-20.178 7.068-10.611-32.271-20.256.109-28.355-1.715 2.588-23.924-11.947-4.912-18.643-9.062 11.713-22.941-10.152-9.006-13.451-12.945 10.399-12.021-3.527-5.074-4.348-6.414z"/><text transform="translate(36.59 149.254)" fill="#fff" font-family="'MyriadPro-Regular'" font-size="205.745">s</text></svg>