<svg xmlns="http://www.w3.org/2000/svg" width="149.285" height="189.406"><path fill="#DBA628" d="M21.729 162.217s-2.154-2.352-5.094-6.658c-8.822-12.92-24.725-43.426-10.829-80.771 1.695-4.555 4.101-9.215 6.979-13.988.949-1.569 1.953-3.15 2.809-4.26 1.254-2.125.219 5.072.562 12.912 3.529-11.275 4.41 32.274 10.887.508-2.406-20.429.674-21.949.717-26.896-.316-3.16.975-4.679 2.266-6.176 1.35-1.508 2.756-3.002 4.223-4.489 10.268-10.413 23.5-20.505 40.754-32.399 0 0 14.079 8.706 32.438 24.97 2.295 2.033 4.605 4.197 6.91 6.502 1.154 1.152 2.301 2.335 3.426 3.521 1.172 1.262 2.207 2.336 3.293 3.538 1.295 1.586 2.182 2.46 2.84 4.452.953.542.209 4.889.305 8.404 1.068-.031.263 7.197.558 12.847 2.599-10.483 1.927 20.124 4.086 29.085 1.646-28.387 3.238-2.197 4.64-9.271-1.154-23.619 1.08-9.494 1.461-14.088-1.244-13.603.438-6.592.562-8.814-.069-3.159 1.138-2.3 2.306-.348.682 2.33 2.307 4.02 3.391 6.107.133 1.488 1.838 3.714 2.602 5.436-.16.82 1.383 3.271 1.926 4.795-.229.531.98 2.922 1.365 4.352-.146.604.709 2.825.982 4.266-.045.842.51 2.908.684 4.418-.031.775.232 2.273.314 3.475.029 1.066.149 2.458.197 3.779.057 1.338.098 2.762.118 4.25.021 1.486.019 3.039-.002 4.666-.19 14.975-6.176 33.463-20.266 54.621 0 0-1.063.324-1.986 1.633-9.688-4.924-3.021 3.941-5.83 7.115-19.19-15.244-5.747 5.357-11.196 9.365-15.381-19.936-8.412 4.643-15.138 7.256-10.883-19.748-12.008 2.639-20.465 3.074-3.096-27.912-16.887-2.586-25.527-5.846 4.076-21.103-10.764-6.353-15.332-10.039 8.883-14.285-5.363-5.371-7.287-7.646 5.016-6.943-2.6-3.42-4.649-3.658z"/><path fill="#EFBB37" d="M21.19 158.398c6.869-4.086-1.518-2.722-3.709-7.334 4.113-4.213-1.918-5.103-2.868-8.271 2.823-3.918-1.42-6.59-1.908-10.321.686-3.646-.518-7.441-1.443-11.527-.944-4.09-1.648-8.473-1.923-13.111-.55-9.277.614-19.572 4.694-30.539.995-2.675 2.176-4.857 2.604.334 1.664-8.115 1.102 11.359 2.438 19.623 1.949-18.171 3.418 4.891 5.799-3.805-.625-20.959 1.406-12.158 1.939-19.382-1.141-14.078.605-12.386.744-16.278-.004-3.443.656-4.504 1.268-5.739.996-1.394 2.039-2.765 3.129-4.12 9.809-12.193 23.492-23.042 43.033-36.512 0 0 12.402 7.668 28.574 21.996 1.265 1.12 2.532 2.284 3.803 3.495 1.271 1.211 2.541 2.471 3.794 3.767 1.282 1.323 2.407 2.565 3.571 3.905 1.465 1.583 2.31 2.74 3.453 4.211 1.733 1.875 2.248 2.984 3.319 4.564 2.029 2.148 2.162 3.332 2.933 6.906 1.354.034.81 10.922 1.219 15.693 1.177-4.323.845 7.459 1.656 12.359 1.782-15.156 2.604 6.299 3.604 5.74.407-17.678 1.336-3.348 2.032-6.521.729-15.357 1.507-10.469 2.261-10.332 1.041.468 1.686 3.591 2.321 5.26.606.415 1.125 3.223 1.527 4.855.375.826.713 3.318.942 5.107.207 1.391.373 3.656.455 5.705.082 2.076.104 4.414.07 6.967-.057 4.396-.68 9.136-1.943 14.191-.635 2.528.037 5.098.043 7.868-3.115 2.671-.36 5.851-.785 9.029-6.045 2.082-1.44 6.707-2.551 10.336-7.576 1.06-2.969 7.267-4.963 11.058-7.652-4.371-.354.614-1.072 1.803-16.864-9.074-2.436 3.668-4.84 6.812-18.742-13.869-3.326 3.76-6.352 6.715-16.41-14.08-6.273 5.037-11.895 8.562-15.123-23.446-10.164 4.523-20.179 7.068-10.61-32.271-20.256.108-28.355-1.716 2.588-23.924-11.947-4.911-18.643-9.062 11.713-22.94-10.152-9.006-13.451-12.944 10.402-12.022-3.524-5.075-4.345-6.415z"/><text transform="translate(36.59 149.254)" fill="#fff" font-family="'MyriadPro-Regular'" font-size="205.745">s</text></svg>