<?xml version="1.0" encoding="utf-8"?>
<!-- Generator: Adobe Illustrator 16.0.0, SVG Export Plug-In . SVG Version: 6.00 Build 0)  -->
<!DOCTYPE svg PUBLIC "-//W3C//DTD SVG 1.1//EN" "http://www.w3.org/Graphics/SVG/1.1/DTD/svg11.dtd">
<svg version="1.1" id="Layer_1" xmlns="http://www.w3.org/2000/svg" xmlns:xlink="http://www.w3.org/1999/xlink" x="0px" y="0px"
	 width="149.285px" height="189.406px" viewBox="0 0 149.285 189.406" enable-background="new 0 0 149.285 189.406"
	 xml:space="preserve">
<path fill="#67AA48" d="M21.729,162.217c0,0-2.154-2.352-5.094-6.658C7.813,142.639-8.09,112.133,5.806,74.788
	c1.695-4.555,4.101-9.215,6.979-13.988c0.949-1.569,1.953-3.15,2.809-4.26c1.254-2.125,0.219,5.072,0.562,12.912
	c3.529-11.275,4.41,32.274,10.887,0.508c-2.406-20.429,0.674-21.949,0.717-26.896c-0.316-3.16,0.975-4.679,2.266-6.176
	c1.35-1.508,2.756-3.002,4.223-4.489C44.517,21.986,57.749,11.894,75.003,0c0,0,14.079,8.706,32.438,24.97
	c2.295,2.033,4.605,4.197,6.91,6.502c1.154,1.152,2.301,2.335,3.426,3.521c1.172,1.262,2.207,2.336,3.293,3.538
	c1.295,1.586,2.182,2.46,2.84,4.452c0.953,0.542,0.209,4.889,0.305,8.404c1.068-0.031,0.263,7.197,0.558,12.847
	c2.599-10.483,1.927,20.124,4.086,29.085c1.646-28.387,3.238-2.197,4.64-9.271c-1.154-23.619,1.08-9.494,1.461-14.088
	c-1.244-13.603,0.438-6.592,0.562-8.814c-0.069-3.159,1.138-2.3,2.306-0.348c0.682,2.33,2.307,4.02,3.391,6.107
	c0.133,1.488,1.838,3.714,2.602,5.436c-0.16,0.82,1.383,3.271,1.926,4.795c-0.229,0.531,0.98,2.922,1.365,4.352
	c-0.146,0.604,0.709,2.825,0.982,4.266c-0.045,0.842,0.51,2.908,0.684,4.418c-0.031,0.775,0.232,2.273,0.314,3.475
	c0.029,1.066,0.149,2.458,0.197,3.779c0.057,1.338,0.098,2.762,0.118,4.25c0.021,1.486,0.019,3.039-0.002,4.666
	c-0.19,14.975-6.176,33.463-20.266,54.621c0,0-1.063,0.324-1.986,1.633c-9.688-4.924-3.021,3.941-5.83,7.115
	c-19.19-15.244-5.747,5.357-11.196,9.365c-15.381-19.936-8.412,4.643-15.138,7.256c-10.883-19.748-12.008,2.639-20.465,3.074
	c-3.096-27.912-16.887-2.586-25.527-5.846c4.076-21.103-10.764-6.353-15.332-10.039c8.883-14.285-5.363-5.371-7.287-7.646
	C31.394,158.932,23.778,162.455,21.729,162.217z"/>
<path fill="#84BC69" d="M21.19,158.398c6.869-4.086-1.518-2.722-3.709-7.334c4.113-4.213-1.918-5.103-2.868-8.271
	c2.823-3.918-1.42-6.59-1.908-10.321c0.686-3.646-0.518-7.441-1.443-11.527c-0.944-4.09-1.648-8.473-1.923-13.111
	c-0.55-9.277,0.614-19.572,4.694-30.539c0.995-2.675,2.176-4.857,2.604,0.334c1.664-8.115,1.102,11.359,2.438,19.623
	c1.949-18.171,3.418,4.891,5.799-3.805c-0.625-20.959,1.406-12.158,1.939-19.382c-1.141-14.078,0.605-12.386,0.744-16.278
	c-0.004-3.443,0.656-4.504,1.268-5.739c0.996-1.394,2.039-2.765,3.129-4.12c9.809-12.193,23.492-23.042,43.033-36.512
	c0,0,12.402,7.668,28.574,21.996c1.265,1.12,2.532,2.284,3.803,3.495c1.271,1.211,2.541,2.471,3.794,3.767
	c1.282,1.323,2.407,2.565,3.571,3.905c1.465,1.583,2.31,2.74,3.453,4.211c1.733,1.875,2.248,2.984,3.319,4.564
	c2.029,2.148,2.162,3.332,2.933,6.906c1.354,0.034,0.81,10.922,1.219,15.693c1.177-4.323,0.845,7.459,1.656,12.359
	c1.782-15.156,2.604,6.299,3.604,5.74c0.407-17.678,1.336-3.348,2.032-6.521c0.729-15.357,1.507-10.469,2.261-10.332
	c1.041,0.468,1.686,3.591,2.321,5.26c0.606,0.415,1.125,3.223,1.527,4.855c0.375,0.826,0.713,3.318,0.942,5.107
	c0.207,1.391,0.373,3.656,0.455,5.705c0.082,2.076,0.104,4.414,0.07,6.967c-0.057,4.396-0.68,9.136-1.943,14.191
	c-0.635,2.528,0.037,5.098,0.043,7.868c-3.115,2.671-0.36,5.851-0.785,9.029c-6.045,2.082-1.44,6.707-2.551,10.336
	c-7.576,1.06-2.969,7.267-4.963,11.058c-7.652-4.371-0.354,0.614-1.072,1.803c-16.864-9.073-2.436,3.668-4.84,6.812
	c-18.742-13.869-3.326,3.76-6.352,6.715c-16.41-14.08-6.273,5.037-11.895,8.562c-15.123-23.446-10.164,4.522-20.179,7.068
	c-10.61-32.271-20.256,0.108-28.355-1.716c2.588-23.924-11.947-4.911-18.643-9.062c11.713-22.94-10.152-9.006-13.451-12.944
	C35.937,152.791,22.011,159.738,21.19,158.398z"/>
<g>
	<g enable-background="new    ">
		<path fill="#FFFFFF" d="M49.141,130.736c5.35,3.498,14.814,7.201,23.867,7.201c13.168,0,19.341-6.584,19.341-14.813
			c0-8.642-5.144-13.374-18.518-18.312c-17.9-6.379-26.336-16.255-26.336-28.188c0-16.048,12.962-29.216,34.36-29.216
			c10.082,0,18.929,2.88,24.484,6.172l-4.527,13.168c-3.908-2.469-11.109-5.761-20.369-5.761c-10.699,0-16.666,6.173-16.666,13.579
			c0,8.23,5.967,11.934,18.929,16.872c17.283,6.584,26.131,15.226,26.131,30.039c0,17.489-13.58,29.834-37.241,29.834
			c-10.905,0-20.987-2.675-27.982-6.79L49.141,130.736z"/>
	</g>
</g>
</svg>
