<?xml version="1.0" encoding="utf-8"?>
<!-- Generator: Adobe Illustrator 18.0.0, SVG Export Plug-In . SVG Version: 6.00 Build 0)  -->
<!DOCTYPE svg PUBLIC "-//W3C//DTD SVG 1.1//EN" "http://www.w3.org/Graphics/SVG/1.1/DTD/svg11.dtd">
<svg version="1.1" id="Layer_1" xmlns="http://www.w3.org/2000/svg" xmlns:xlink="http://www.w3.org/1999/xlink" x="0px" y="0px"
	 viewBox="16 26.6 13.2 16.8" enable-background="new 16 26.6 13.2 16.8" xml:space="preserve">
<path fill="#386EC6" d="M17.9,41c0,0-0.2-0.2-0.5-0.6c-0.8-1.1-2.2-3.8-1-7.1c0.2-0.4,0.4-0.8,0.6-1.2c0.1-0.1,0.2-0.3,0.2-0.4
	c0.1-0.2,0,0.5,0.1,1.1c0.3-1,0.4,2.9,1,0c-0.2-1.8,0.1-1.9,0.1-2.4c0-0.3,0.1-0.4,0.2-0.5c0.1-0.1,0.2-0.3,0.4-0.4
	c0.9-0.9,2.1-1.8,3.6-2.9c0,0,1.2,0.8,2.9,2.2c0.2,0.2,0.4,0.4,0.6,0.6c0.1,0.1,0.2,0.2,0.3,0.3c0.1,0.1,0.2,0.2,0.3,0.3
	c0.1,0.1,0.2,0.2,0.2,0.4c0.1,0,0,0.4,0,0.7c0.1,0,0,0.6,0.1,1.1c0.2-0.9,0.2,1.8,0.4,2.6c0.1-2.5,0.3-0.2,0.4-0.8
	c-0.1-2.1,0.1-0.8,0.1-1.2c-0.1-1.2,0-0.6,0.1-0.8c0-0.3,0.1-0.2,0.2,0c0.1,0.2,0.2,0.4,0.3,0.5c0,0.1,0.2,0.3,0.2,0.5
	c0,0.1,0.1,0.3,0.2,0.4c0,0,0.1,0.3,0.1,0.4c0,0.1,0.1,0.2,0.1,0.4c0,0.1,0,0.3,0.1,0.4c0,0.1,0,0.2,0,0.3c0,0.1,0,0.2,0,0.3
	c0,0.1,0,0.2,0,0.4c0,0.1,0,0.3,0,0.4c0,1.3-0.5,3-1.8,4.8c0,0-0.1,0-0.2,0.1c-0.9-0.4-0.3,0.3-0.5,0.6c-1.7-1.3-0.5,0.5-1,0.8
	c-1.4-1.8-0.7,0.4-1.3,0.6c-1-1.7-1.1,0.2-1.8,0.3c-0.3-2.5-1.5-0.2-2.3-0.5c0.4-1.9-1-0.6-1.4-0.9c0.8-1.3-0.5-0.5-0.6-0.7
	C18.7,40.7,18,41,17.9,41z"/>
<path fill="#689EE0" d="M17.8,40.7c0.6-0.4-0.1-0.2-0.3-0.6c0.4-0.4-0.2-0.5-0.3-0.7c0.2-0.3-0.1-0.6-0.2-0.9c0.1-0.3,0-0.7-0.1-1
	c-0.1-0.4-0.1-0.8-0.2-1.2c-0.1-0.8,0.1-1.7,0.4-2.7c0.1-0.2,0.2-0.4,0.2,0c0.2-0.7,0.1,1,0.2,1.7c0.2-1.6,0.3,0.4,0.5-0.3
	c-0.1-1.9,0.1-1.1,0.2-1.7c-0.1-1.2,0.1-1.1,0.1-1.4c0-0.3,0.1-0.4,0.1-0.5c0.1-0.1,0.2-0.2,0.3-0.4c0.9-1.1,2.1-2,3.8-3.2
	c0,0,1.1,0.7,2.5,1.9c0.1,0.1,0.2,0.2,0.3,0.3c0.1,0.1,0.2,0.2,0.3,0.3c0.1,0.1,0.2,0.2,0.3,0.3c0.1,0.1,0.2,0.2,0.3,0.4
	c0.2,0.2,0.2,0.3,0.3,0.4c0.2,0.2,0.2,0.3,0.3,0.6c0.1,0,0.1,1,0.1,1.4c0.1-0.4,0.1,0.7,0.2,1.1c0.2-1.3,0.2,0.6,0.3,0.5
	c0-1.6,0.1-0.3,0.2-0.6c0.1-1.4,0.1-0.9,0.2-0.9c0.1,0,0.2,0.3,0.2,0.5c0.1,0,0.1,0.3,0.1,0.4c0,0.1,0.1,0.3,0.1,0.5
	c0,0.1,0,0.3,0,0.5c0,0.2,0,0.4,0,0.6c0,0.4-0.1,0.8-0.2,1.3c-0.1,0.2,0,0.5,0,0.7c-0.3,0.2,0,0.5-0.1,0.8c-0.5,0.2-0.1,0.6-0.2,0.9
	c-0.7,0.1-0.3,0.6-0.4,1c-0.7-0.4,0,0.1-0.1,0.2c-1.5-0.8-0.2,0.3-0.4,0.6c-1.7-1.2-0.3,0.3-0.6,0.6c-1.5-1.2-0.6,0.4-1.1,0.8
	c-1.3-2.1-0.9,0.4-1.8,0.6c-0.9-2.9-1.8,0-2.5-0.2c0.2-2.1-1.1-0.4-1.6-0.8c1-2-0.9-0.8-1.2-1.1C19.1,40.2,17.9,40.8,17.8,40.7z"/>
<g>
	<circle fill="#FFFFFF" cx="19.3" cy="36" r="0.8">
	
		<animate  fill="remove" restart="always" calcMode="linear" additive="replace" accumulate="none" repeatCount="indefinite" dur="1s" to="1" from="0" attributeName="opacity" keyTimes="0;0.2;1" values="0;1;1">
		</animate>
	</circle>
	<circle fill="#FFFFFF" cx="22.6" cy="36" r="0.8">
	
		<animate  fill="remove" restart="always" calcMode="linear" additive="replace" accumulate="none" repeatCount="indefinite" dur="1s" to="1" from="0" attributeName="opacity" keyTimes="0;0.2;0.4;1" values="0;0;1;1">
		</animate>
	</circle>
	<circle fill="#FFFFFF" cx="25.8" cy="36" r="0.8">
	
		<animate  fill="remove" restart="always" calcMode="linear" additive="replace" accumulate="none" repeatCount="indefinite" dur="1s" to="1" from="0" attributeName="opacity" keyTimes="0;0.4;0.6;1" values="0;0;1;1">
		</animate>
	</circle>
</g>
</svg>
