<?xml version="1.0" encoding="utf-8"?>
<!-- Generator: Adobe Illustrator 18.0.0, SVG Export Plug-In . SVG Version: 6.00 Build 0)  -->
<!DOCTYPE svg PUBLIC "-//W3C//DTD SVG 1.1//EN" "http://www.w3.org/Graphics/SVG/1.1/DTD/svg11.dtd">
<svg version="1.1" id="Layer_1" xmlns="http://www.w3.org/2000/svg" xmlns:xlink="http://www.w3.org/1999/xlink" x="0px" y="0px"
	 viewBox="0 0 24.3 14.6" enable-background="new 0 0 24.3 14.6" xml:space="preserve">
<g>
	<path fill="#9AC3E8" d="M0.1,7.7C0,7.9,0,8.1,0.1,8.3c0,0,6.1,6.1,6.3,6.1c0.1,0,0.5,0,0.5,0C7.2,14,15.5,2.5,15.5,2.5
		c0.1-0.1,0.6-0.8,0.9-1.3c0.3-0.7,0.4-1.1,0-1.2c-0.4-0.1-1,0.5-1.4,0.8c0,0-6.1,6.8-7.9,8.6C6.8,9.6,6.4,9.7,6.1,9.5L2.3,7.1
		C2.2,7,1.1,6.5,1.1,6.5C1,6.5,0.8,6.6,0.7,6.7L0.1,7.7z"/>
	<path fill="#9AC3E8" d="M10.6,11.1c0,0,2.5,2.7,3.5,3.4c0.2,0.1,0.4,0,0.5,0l0,0c0.2,0,8.6-11.9,8.6-11.9c0.1-0.1,0.6-0.8,0.9-1.3
		c0.3-0.7,0.4-1.1,0-1.2c-0.4-0.1-1,0.5-1.4,0.8c0,0-6.2,6.9-7.9,8.6c-0.1,0.1-0.3,0.3-0.4,0.4c-0.2,0-0.3-0.2-0.5-0.3l-1.4-0.9
		L10.6,11.1z"/>
</g>
</svg>
