<?xml version="1.0" encoding="utf-8"?>
<!-- Generated by IcoMoon.io -->
<!DOCTYPE svg PUBLIC "-//W3C//DTD SVG 1.1//EN" "http://www.w3.org/Graphics/SVG/1.1/DTD/svg11.dtd">
<svg version="1.1" xmlns="http://www.w3.org/2000/svg" xmlns:xlink="http://www.w3.org/1999/xlink" width="27" height="32" viewBox="0 0 27 32">
<path d="M18.688 16.094q0.688 0 1.063 0.375t0.375 0.969q0 0.563-0.375 0.938t-1.063 0.375q-0.344 0-0.672-0.203t-0.578-0.453q-0.313-0.281-0.563-0.656 0.25-0.344 0.563-0.656 0.25-0.25 0.578-0.469t0.672-0.219zM13.219 16.094q0.344 0 0.672 0.219t0.578 0.469q0.313 0.313 0.563 0.656-0.25 0.375-0.563 0.656-0.25 0.25-0.578 0.453t-0.672 0.203q-0.688 0-1.063-0.375t-0.375-0.938q0-0.594 0.375-0.969t1.063-0.375zM13.25 3.125q2.719 0 5.109 1.031t4.172 2.813 2.813 4.156 1.031 5.094-1.031 5.109-2.813 4.172-4.172 2.813-5.109 1.031-5.094-1.031-4.156-2.813-2.813-4.172-1.031-5.109 1.031-5.094 2.813-4.156 4.156-2.813 5.094-1.031zM18.906 20.313q1.375 0 1.953-0.844t0.578-2-0.594-2.016-1.938-0.859q-0.688 0-1.219 0.313t-0.906 0.656q-0.438 0.406-0.781 0.938-0.313-0.531-0.719-0.938-0.344-0.344-0.906-0.656t-1.313-0.313-1.219 0.266-0.719 0.609q-0.313 0.375-0.406 0.844-0.188-0.406-0.5-0.75-0.25-0.281-0.656-0.516t-1.031-0.234q-0.438 0-0.734 0.094t-0.516 0.188q-0.25 0.125-0.406 0.281l0.375-1.719h3.281v-1.531h-4.375l-0.906 4.594h1.625q0.125-0.219 0.313-0.375 0.156-0.156 0.391-0.281t0.578-0.125q0.688 0 0.984 0.484t0.297 1.047-0.453 1.047-1.016 0.484q-0.438 0-0.656-0.172t-0.375-0.391q-0.156-0.25-0.219-0.594h-1.656q0.125 0.688 0.469 1.25 0.281 0.469 0.828 0.844t1.453 0.375q0.875 0 1.438-0.234t0.906-0.516q0.375-0.344 0.563-0.75 0.094 0.406 0.406 0.75 0.25 0.281 0.719 0.516t1.219 0.234 1.313-0.25 0.906-0.594q0.406-0.375 0.719-0.875 0.344 0.5 0.781 0.875 0.375 0.344 0.906 0.594t1.219 0.25z" fill="#444444"></path>
</svg>
