<?xml version="1.0" encoding="utf-8"?>
<!-- Generated by IcoMoon.io -->
<!DOCTYPE svg PUBLIC "-//W3C//DTD SVG 1.1//EN" "http://www.w3.org/Graphics/SVG/1.1/DTD/svg11.dtd">
<svg version="1.1" xmlns="http://www.w3.org/2000/svg" xmlns:xlink="http://www.w3.org/1999/xlink" width="27" height="32" viewBox="0 0 27 32">
<path d="M13.25 3.188q2.719 0 5.094 1.031t4.156 2.797 2.813 4.141 1.031 5.094-1.031 5.094-2.813 4.156-4.156 2.813-5.094 1.031-5.094-1.031-4.141-2.813-2.797-4.156-1.031-5.094 1.031-5.094 2.797-4.141 4.141-2.797 5.094-1.031zM15.063 8.906q-0.813 0-1.391 0.578t-0.578 1.391 0.578 1.375 1.391 0.563q0.844 0 1.422-0.563t0.578-1.375-0.578-1.391-1.422-0.578zM19.375 22.156l-0.125-0.25q-1.625-3.156-4.563-4.594-0.031-0.031-0.063-0.031l-0.031-0.031-0.063-0.031q-0.063-0.063-0.063-0.094 0.063-0.188 0.109-0.219t0.109-0.031h0.25q0.281 0.063 0.547 0.094t0.578 0.031q0.625 0 1.328-0.203t1.578-0.641l0.25-0.156-0.875-1.875-0.281 0.125q-0.313 0.156-0.797 0.281t-1.047 0.125q-0.688 0-1.188-0.188l-0.125-0.063-0.031-0.094q-0.031-0.031-0.031-0.094t-0.031-0.125v-0.5l-0.25-0.031q-0.406-0.094-1-0.375l-0.156-0.094-0.156 0.063q-1.031 0.594-1.531 1.578t-0.656 2.672q-0.063 0.438-0.094 0.609t-0.063 0.234q-0.344 0.688-0.797 1.172t-0.922 0.813-0.922 0.516-0.797 0.281l-0.344 0.094 0.938 2.5 0.281-0.094q1.031-0.25 1.766-0.609t1.266-0.781 0.906-0.875 0.719-0.891l0.219-0.313q0.063-0.063 0.125-0.063l0.125 0.063q0.844 0.375 1.469 0.781t1.078 0.813 0.719 0.781 0.422 0.625l0.156 0.281z" fill="#444444"></path>
</svg>
