<?xml version="1.0" encoding="utf-8"?>
<!-- Generator: Adobe Illustrator 16.0.0, SVG Export Plug-In . SVG Version: 6.00 Build 0)  -->
<!DOCTYPE svg PUBLIC "-//W3C//DTD SVG 1.1//EN" "http://www.w3.org/Graphics/SVG/1.1/DTD/svg11.dtd">
<svg version="1.1" id="Layer_1" xmlns="http://www.w3.org/2000/svg" xmlns:xlink="http://www.w3.org/1999/xlink" x="0px" y="0px"
	 width="448px" height="512px" viewBox="0 0 448 512" enable-background="new 0 0 448 512" xml:space="preserve">
<g id="aim">
	<g>
		<path d="M300.062,150.126c41.687,0,75.5-33.596,75.5-75.033c0-41.467-33.813-75.093-75.5-75.093
			c-41.721,0-75.533,33.626-75.533,75.093C224.531,116.531,258.344,150.126,300.062,150.126z M276.251,267.343
			C396.312,274.5,448,253.97,448,253.97L436.625,183c0,0-139.688,46.283-203.812-33.907c-9.312-3.093-8.281,3.063-8.281,3.063
			C158.313,209.75,191.437,369.094,0,378.374c2.063,33.909,9.313,84.283,9.313,84.283s150-16.501,212.124-99.751
			C300.062,430.782,345.562,512,345.562,512l69.344-37C414.906,475,372.5,355.717,276.251,267.343z"/>
	</g>
</g>
</svg>
