<?xml version="1.0" encoding="utf-8"?>
<!-- Generated by IcoMoon.io -->
<!DOCTYPE svg PUBLIC "-//W3C//DTD SVG 1.1//EN" "http://www.w3.org/Graphics/SVG/1.1/DTD/svg11.dtd">
<svg version="1.1" xmlns="http://www.w3.org/2000/svg" xmlns:xlink="http://www.w3.org/1999/xlink" width="27" height="32" viewBox="0 0 27 32">
<path d="M12.125 16.094q0-0.75 0.391-1.141t0.922-0.547q0.531-0.125 1.313-0.125v0.375q0 0.531-0.031 0.984t-0.313 0.922q-0.281 0.688-0.969 0.844-0.063 0-0.125 0.016t-0.125 0.016q-0.5 0-0.781-0.375t-0.281-0.969zM13.25 3.125q2.719 0 5.094 1.031t4.156 2.797 2.813 4.141 1.031 5.094-1.031 5.094-2.813 4.156-4.156 2.813-5.094 1.031-5.094-1.031-4.141-2.813-2.797-4.156-1.031-5.094 1.031-5.094 2.797-4.141 4.141-2.797 5.094-1.031zM14.531 11.25q0.188 0.281 0.203 0.625t0.016 0.688v0.25q-0.313 0.031-0.641 0.047t-0.672 0.078q-0.531 0.063-1.031 0.172t-0.938 0.328q-0.844 0.375-1.359 1.125t-0.516 1.844q0 1.406 0.75 2.109t1.844 0.703q0.688 0 1.25-0.156 0.438-0.156 0.828-0.422t0.828-0.734q0.25 0.344 0.406 0.578t0.594 0.609q0.25 0.094 0.438-0.031 0.25-0.25 0.656-0.594t0.656-0.594q0.125-0.094 0.109-0.219t-0.078-0.25q-0.25-0.344-0.453-0.703t-0.203-0.984v-2.844q0-0.906-0.063-1.703t-0.688-1.422q-0.531-0.5-1.281-0.703t-1.375-0.203h-0.375q-0.563 0.031-1.141 0.188t-1.078 0.484-0.859 0.844-0.484 1.266q-0.063 0.188 0.047 0.266t0.203 0.109l1.719 0.219q0.219-0.031 0.281-0.344 0.125-0.531 0.5-0.797t0.813-0.328h0.125q0.625 0 0.969 0.5zM19.875 21.438q0.219-0.156 0.094-0.344t-0.375-0.094q-0.094 0.063-0.203 0.094t-0.203 0.094q-1.438 0.563-2.891 0.844t-2.859 0.281q-2.219 0-4.281-0.594t-3.813-1.625q-0.156-0.094-0.234 0.016t0.078 0.234q1.594 1.5 3.656 2.344t4.406 0.844q1.469 0 3.047-0.406t2.891-1.219q0.156-0.125 0.344-0.234t0.344-0.234zM21.438 20.25q0-0.188-0.063-0.313-0.125-0.156-0.797-0.219t-1.391 0.156q-0.375 0.125-0.719 0.375-0.125 0.063-0.109 0.156t0.141 0.094q0.313-0.063 0.688-0.094 0.438-0.063 0.859-0.031t0.547 0.188q0.094 0.094 0.063 0.359t-0.125 0.594-0.203 0.641-0.203 0.5q-0.063 0.156 0.031 0.188t0.188-0.063q0.563-0.5 0.813-1.234t0.281-1.203v-0.094z" fill="#444444"></path>
</svg>
