<?xml version="1.0" encoding="utf-8"?>
<!-- Generated by IcoMoon.io -->
<!DOCTYPE svg PUBLIC "-//W3C//DTD SVG 1.1//EN" "http://www.w3.org/Graphics/SVG/1.1/DTD/svg11.dtd">
<svg version="1.1" xmlns="http://www.w3.org/2000/svg" xmlns:xlink="http://www.w3.org/1999/xlink" width="27" height="32" viewBox="0 0 27 32">
<path d="M13.281 3.188q2.719 0 5.094 1.031t4.141 2.797 2.797 4.141 1.031 5.094-1.031 5.094-2.797 4.156-4.141 2.813-5.094 1.031-5.094-1.031-4.156-2.813-2.813-4.156-1.031-5.094 1.031-5.094 2.813-4.141 4.156-2.797 5.094-1.031zM14.094 23.625q1 0 1.891-0.391t1.563-1.063 1.063-1.563 0.391-1.891q0-1.031-0.391-1.922t-1.063-1.547-1.563-1.047-1.891-0.391h-1.656v2.438h1.656q1 0 1.719 0.719t0.719 1.75q0 1-0.719 1.719t-1.719 0.719q-1.031 0-1.75-0.719t-0.719-1.719v-9.813h-2.438v9.813q0 1 0.391 1.891t1.047 1.563 1.547 1.063 1.922 0.391z" fill="#444444"></path>
</svg>
