<?xml version="1.0" encoding="utf-8"?>
<!-- Generated by IcoMoon.io -->
<!DOCTYPE svg PUBLIC "-//W3C//DTD SVG 1.1//EN" "http://www.w3.org/Graphics/SVG/1.1/DTD/svg11.dtd">
<svg version="1.1" xmlns="http://www.w3.org/2000/svg" xmlns:xlink="http://www.w3.org/1999/xlink" width="27" height="32" viewBox="0 0 27 32">
<path d="M17.563 15.406q0.594 0 0.969 0.375 0.188 0.188 0.297 0.406t0.141 0.844h-2.813q0.063-0.625 0.172-0.828t0.266-0.391q0.375-0.406 0.969-0.406zM10.844 15.031q-0.188 0.125-0.422 0.25t-0.547 0.125h-1.5v-2.469h1.281q0.344 0 0.594 0.078t0.469 0.141q0.469 0.25 0.469 0.969 0 0.688-0.344 0.906zM10.813 17.094q0.281 0.156 0.422 0.359t0.141 0.578q0 0.938-0.594 1.25-0.344 0.188-0.906 0.188h-1.5v-2.438h1.531q0.313 0 0.531-0.016t0.375 0.078zM13.281 3.125q2.719 0 5.094 1.031t4.156 2.797 2.813 4.156 1.031 5.109-1.031 5.094-2.813 4.156-4.156 2.813-5.094 1.031-5.109-1.031-4.156-2.813-2.797-4.156-1.031-5.094 1.031-5.109 2.797-4.156 4.156-2.797 5.109-1.031zM12.875 19.719q0.406-0.688 0.406-1.563 0-0.813-0.344-1.438-0.375-0.594-1.063-0.875 0.438-0.219 0.688-0.563 0.438-0.531 0.438-1.438 0-0.875-0.438-1.5-0.656-1.031-2.313-1.031h-4.344v9.813h4.063q0.344 0 0.656-0.031t0.594-0.094q0.563-0.125 1.031-0.5 0.406-0.375 0.625-0.781zM15.719 12.938h3.281v-1.625h-3.281v1.625zM20.625 17.844v-0.563t-0.016-0.438-0.016-0.344q-0.125-0.781-0.5-1.375-0.219-0.375-0.484-0.625t-0.578-0.406q-0.688-0.344-1.469-0.344-1.344 0-2.219 0.969-0.844 0.938-0.844 2.75 0 1.906 0.938 2.781 0.906 0.813 2.188 0.813 1.5 0 2.313-1.063 0.281-0.313 0.422-0.594t0.203-0.75h-1.656q-0.063 0.469-0.156 0.484t-0.188 0.078q-0.156 0.156-0.391 0.281t-0.516 0.125q-0.5 0-0.875-0.281-0.313-0.219-0.469-0.547t-0.188-0.953h4.5z" fill="#444444"></path>
</svg>
