<?xml version="1.0" encoding="utf-8"?>
<!-- Generated by IcoMoon.io -->
<!DOCTYPE svg PUBLIC "-//W3C//DTD SVG 1.1//EN" "http://www.w3.org/Graphics/SVG/1.1/DTD/svg11.dtd">
<svg version="1.1" xmlns="http://www.w3.org/2000/svg" xmlns:xlink="http://www.w3.org/1999/xlink" width="27" height="32" viewBox="0 0 27 32">
<path d="M11.531 14.313q-0.344 0-0.609-0.25t-0.266-0.625q0-0.344 0.266-0.609t0.609-0.266h2.594q0.375 0 0.625 0.266t0.25 0.609q0 0.375-0.25 0.625t-0.625 0.25h-2.594zM16.781 17.875q0.375 0 0.625 0.25t0.25 0.625q0 0.344-0.25 0.609t-0.625 0.266h-5.25q-0.344 0-0.609-0.266t-0.266-0.609q0-0.375 0.266-0.625t0.609-0.25h5.25zM13.25 3.219q2.719 0 5.094 1.031t4.141 2.797 2.797 4.141 1.031 5.063q0 2.719-1.031 5.094t-2.797 4.141-4.141 2.781-5.094 1.016q-2.688 0-5.063-1.016t-4.141-2.781-2.797-4.141-1.031-5.094q0-2.688 1.031-5.063t2.797-4.141 4.141-2.797 5.063-1.031zM21.5 15.063l-0.031-0.188-0.125-0.281-0.219-0.156q-0.094-0.094-0.359-0.094t-0.594-0.016-0.625-0.047-0.422-0.156q-0.188-0.188-0.25-0.5t-0.125-0.75q-0.063-0.406-0.109-0.656t-0.094-0.406-0.094-0.266-0.109-0.266q-0.25-0.5-0.672-0.938t-0.922-0.766-1.031-0.531-0.969-0.266h-3.25q-0.969 0-1.813 0.359t-1.484 0.984-1 1.469-0.359 1.813v5.406q0 0.938 0.359 1.781t1 1.484 1.484 1 1.813 0.359h5.313q0.969 0 1.813-0.359t1.469-1 1-1.484 0.375-1.781z" fill="#444444"></path>
</svg>
