<?xml version="1.0" encoding="utf-8"?>
<!-- Generated by IcoMoon.io -->
<!DOCTYPE svg PUBLIC "-//W3C//DTD SVG 1.1//EN" "http://www.w3.org/Graphics/SVG/1.1/DTD/svg11.dtd">
<svg version="1.1" xmlns="http://www.w3.org/2000/svg" xmlns:xlink="http://www.w3.org/1999/xlink" width="16" height="16" viewBox="0 0 16 16">
<path d="M13.656 2.343c-3.123-3.124-8.189-3.124-11.313 0s-3.125 8.19 0 11.313c3.124 3.125 8.19 3.125 11.313 0 3.125-3.123 3.125-8.189 0-11.313zM12.242 12.242c-2.343 2.344-6.142 2.344-8.485 0s-2.343-6.142 0-8.485c2.343-2.343 6.142-2.343 8.485 0s2.344 6.142 0 8.485zM9.414 8l2.121 2.121-1.414 1.414-2.121-2.121-2.121 2.121-1.415-1.414 2.121-2.121-2.121-2.121 1.415-1.415 2.121 2.121 2.121-2.121 1.414 1.415z" fill="#444444"></path>
</svg>
