<?xml version="1.0" encoding="utf-8"?>
<!-- Generator: Adobe Illustrator 16.0.0, SVG Export Plug-In . SVG Version: 6.00 Build 0)  -->
<!DOCTYPE svg PUBLIC "-//W3C//DTD SVG 1.1//EN" "http://www.w3.org/Graphics/SVG/1.1/DTD/svg11.dtd">
<svg version="1.1" id="Layer_1" xmlns="http://www.w3.org/2000/svg" xmlns:xlink="http://www.w3.org/1999/xlink" x="0px" y="0px"
	 width="498.923px" height="512px" viewBox="5.277 0 498.923 512" enable-background="new 5.277 0 498.923 512"
	 xml:space="preserve">
<g id="deviantart">
	<g>
		<path d="M278.886,244.132h-64.711l59.171,103.537c102.074-28.138,202.627-56.03,230.854-64.284
			c-55.939-75.917-184.175-104.268-328.79-78.961l-22.809-43.486l-55.85,12.577l22.229,45.465
			C14.745,256.465-18.509,337.986,22.054,416.795c0,0,113.616-31.184,231.374-63.645l-64.923-123.636
			c63.89-9.866,159.418-7.673,206.708,43.912c-13.946,3.624-45.587,11.541-83.561,20.922L278.886,244.132z M86.247,349.801
			c-5.604-45.678,12.941-81.033,46.987-101.648l39.252,80.515C123.52,340.666,86.247,349.801,86.247,349.801z"/>
	</g>
</g>
</svg>
