<?xml version="1.0" encoding="utf-8"?>
<!-- Generated by IcoMoon.io -->
<!DOCTYPE svg PUBLIC "-//W3C//DTD SVG 1.1//EN" "http://www.w3.org/Graphics/SVG/1.1/DTD/svg11.dtd">
<svg version="1.1" xmlns="http://www.w3.org/2000/svg" xmlns:xlink="http://www.w3.org/1999/xlink" width="27" height="32" viewBox="0 0 27 32">
<path d="M19.781 17.875h-0.813v-2.469h0.813v2.469zM13.25 3.156q2.719 0 5.094 1.031t4.156 2.797 2.813 4.141 1.031 5.094-1.031 5.094-2.813 4.156-4.156 2.813-5.094 1.031-5.094-1.031-4.141-2.813-2.797-4.156-1.031-5.094 1.031-5.094 2.797-4.141 4.141-2.797 5.094-1.031zM9.188 11.313h-1.656v2.469h-2.438v5.719h4.094v-8.188zM11.625 13.781h-1.625v5.719h1.625v-5.719zM11.625 11.313h-1.625v1.656h1.625v-1.656zM16.531 13.781h-4.094v5.719h2.469v0.813h-2.469v1.625h4.094v-8.156zM21.438 13.781h-4.094v5.719h2.438v0.813h-2.438v1.625h4.094v-8.156zM6.719 15.406h0.813v2.469h-0.813v-2.469zM14.906 17.875h-0.844v-2.469h0.844v2.469z" fill="#444444"></path>
</svg>
