<?xml version="1.0" encoding="utf-8"?>
<!-- Generated by IcoMoon.io -->
<!DOCTYPE svg PUBLIC "-//W3C//DTD SVG 1.1//EN" "http://www.w3.org/Graphics/SVG/1.1/DTD/svg11.dtd">
<svg version="1.1" xmlns="http://www.w3.org/2000/svg" xmlns:xlink="http://www.w3.org/1999/xlink" width="27" height="32" viewBox="0 0 27 32">
<path d="M13.25 3.156q2.719 0 5.094 1.031t4.156 2.797 2.813 4.141 1.031 5.094-1.031 5.094-2.813 4.156-4.156 2.813-5.094 1.031-5.094-1.031-4.141-2.813-2.797-4.156-1.031-5.094 1.031-5.094 2.797-4.141 4.141-2.797 5.094-1.031zM13.25 23.594q1.531 0 2.875-0.578t2.344-1.578 1.578-2.344 0.578-2.875-0.578-2.859-1.578-2.328-2.344-1.578-2.875-0.578q-1.5 0-2.844 0.578t-2.344 1.578-1.578 2.328-0.578 2.859 0.578 2.875 1.578 2.344 2.344 1.578 2.844 0.578zM13.875 16.438q-1.594 0.531-2.891 1.531t-2.234 2.406q-1.469-1.625-1.625-3.875 0.25 0.031 0.453 0.031h0.422q2.875 0 5.5-0.969l0.188 0.438zM14.656 15.094q1.969-0.875 3.656-2.313 1.063 1.531 1.063 3.406-1.188-0.281-2.313-0.281-1.031 0-2 0.219-0.094-0.25-0.188-0.516t-0.219-0.516zM9.688 21.219q0.813-1.313 2-2.234t2.594-1.391q0.344 1.063 0.563 2.172t0.344 2.266q-0.906 0.313-1.938 0.313-1.969 0-3.563-1.125zM15.469 17.281q0.875-0.156 1.594-0.156 1.156 0 2.188 0.313-0.25 1.281-1 2.344t-1.875 1.719q-0.219-2.125-0.906-4.219zM17.531 11.844q-0.813 0.656-1.656 1.203t-1.75 0.953q-0.531-0.969-1.141-1.891t-1.328-1.797q0.75-0.219 1.594-0.219 1.219 0 2.313 0.453t1.969 1.297zM12.969 14.469q-2.406 0.844-4.969 0.844h-0.422t-0.359-0.031q0.219-1.438 1.063-2.625t2.156-1.875q1.469 1.688 2.531 3.688z" fill="#444444"></path>
</svg>
