<?xml version="1.0" encoding="utf-8"?>
<!-- Generated by IcoMoon.io -->
<!DOCTYPE svg PUBLIC "-//W3C//DTD SVG 1.1//EN" "http://www.w3.org/Graphics/SVG/1.1/DTD/svg11.dtd">
<svg version="1.1" xmlns="http://www.w3.org/2000/svg" xmlns:xlink="http://www.w3.org/1999/xlink" width="16" height="16" viewBox="0 0 16 16">
<path d="M8 16c-4.418 0-8-3.582-8-8s3.582-8 8-8 8 3.582 8 8-3.582 8-8 8zM8 2c-3.313 0-6 2.687-6 6s2.687 6 6 6 6-2.687 6-6-2.687-6-6-6zM10.94 11.607l-0.175 0.102-0.509 0.309-0.3 0.219c-0.223 0.105-0.455 0.189-0.695 0.262v-0.295l-0.085-0.68c0 0-0.042-0.391-0.106-0.494-0.062-0.103-0.211-0.246-0.359-0.309s-0.254-0.062-0.339-0.164c-0.085-0.104-0.147-0.289-0.254-0.453s-0.233-0.33-0.233-0.412 0-0.927 0-0.927l0.106-0.782 0.233-0.165 0.274-0.309 0.19-0.062 0.658 0.123h0.467l0.189 0.391 0.445 0.35 0.275 0.433 0.359 0.123h0.402l0.275 0.33 0.17 0.35 0.063 0.248v0.411l-0.044 0.243c-0.267 0.441-0.607 0.828-1.007 1.158zM9.304 4.502l-0.466 0.248-0.17 0.473-0.275 0.247h-0.91l-0.424 0.165-0.021 0.33-0.169 0.267-0.043 0.288 0.085 0.247 0.106 0.248c0 0 0.254 0.288 0 0.494 0 0-0.318 0-0.381-0.103s-0.53-0.391-0.614-0.474c-0.085-0.083-0.36-0.165-0.36-0.165l-0.339-0.123-0.318-0.021 0.021-0.432-0.021-0.371-0.127-0.268-0.36-0.268-0.021-0.287 0.044-0.16c0.858-0.83 2.039-1.343 3.344-1.343 0.736 0 1.425 0.177 2.046 0.468l-0.013 0.108-0.614 0.432z" fill="#444444"></path>
</svg>
