<?xml version="1.0" encoding="utf-8"?>
<!-- Generated by IcoMoon.io -->
<!DOCTYPE svg PUBLIC "-//W3C//DTD SVG 1.1//EN" "http://www.w3.org/Graphics/SVG/1.1/DTD/svg11.dtd">
<svg version="1.1" xmlns="http://www.w3.org/2000/svg" xmlns:xlink="http://www.w3.org/1999/xlink" width="27" height="32" viewBox="0 0 27 32">
<path d="M13.25 3.156q2.719 0 5.109 1.031t4.172 2.813 2.813 4.156 1.031 5.094-1.031 5.109-2.813 4.172-4.172 2.813-5.109 1.031-5.094-1.031-4.156-2.813-2.813-4.172-1.031-5.109 1.031-5.094 2.813-4.156 4.156-2.813 5.094-1.031zM18.188 8.875h-2.781q-0.813 0-1.5 0.281t-1.203 0.75-0.797 1.063-0.281 1.188v1.656h-2.469v3.25h2.469v6.563h3.281v-6.563h2.438v-3.25h-2.438v-0.844q0-0.375 0.297-0.594t0.516-0.219h2.469v-3.281z" fill="#444444"></path>
</svg>
