<?xml version="1.0" encoding="utf-8"?>
<!-- Generated by IcoMoon.io -->
<!DOCTYPE svg PUBLIC "-//W3C//DTD SVG 1.1//EN" "http://www.w3.org/Graphics/SVG/1.1/DTD/svg11.dtd">
<svg version="1.1" xmlns="http://www.w3.org/2000/svg" xmlns:xlink="http://www.w3.org/1999/xlink" width="27" height="32" viewBox="0 0 27 32">
<path d="M18.75 21.438q0.25 0 0.5 0.281 0.188 0.281 0.188 0.875 0 0.563-0.219 0.813-0.188 0.25-0.469 0.25-0.375 0-0.563-0.344-0.156-0.313-0.156-0.813 0-0.563 0.219-0.781 0.188-0.281 0.5-0.281zM14.906 10.5q0.656 0 1.25 0.266t1.047 0.703 0.703 1.031 0.25 1.281-0.25 1.281-0.703 1.031-1.047 0.688-1.25 0.25q-0.688 0-1.281-0.25t-1.047-0.688-0.703-1.031-0.25-1.281 0.25-1.281 0.703-1.031 1.047-0.703 1.281-0.266zM14.906 15.406q0.688 0 1.156-0.469t0.469-1.156-0.469-1.172-1.156-0.484-1.172 0.484-0.484 1.172 0.484 1.156 1.172 0.469zM13.25 3.156q2.719 0 5.094 1.031t4.156 2.797 2.813 4.141 1.031 5.094-1.031 5.094-2.813 4.156-4.156 2.813-5.094 1.031-5.094-1.031-4.141-2.813-2.797-4.156-1.031-5.094 1.031-5.094 2.797-4.141 4.141-2.797 5.094-1.031zM5.906 17.844h1.625v-8.156h-1.625v8.156zM9.25 19.5h-3v4.813h0.875v-2.031h1.813v-0.844h-1.813v-1.125h2.125v-0.813zM12.563 23.875q0.438-0.469 0.438-1.313t-0.438-1.313q-0.469-0.5-1.188-0.5-0.5 0-0.844 0.219-0.375 0.25-0.563 0.656-0.219 0.5-0.219 0.906 0 0.5 0.219 1 0.188 0.406 0.594 0.656 0.438 0.219 0.844 0.219 0.688 0 1.156-0.531zM16.25 23.875q0.469-0.5 0.469-1.313 0-0.781-0.469-1.313-0.406-0.5-1.156-0.5-0.5 0-0.844 0.219-0.375 0.25-0.563 0.656-0.219 0.406-0.219 0.906 0 0.594 0.219 1 0.188 0.438 0.594 0.656 0.438 0.219 0.813 0.219 0.719 0 1.156-0.531zM20.25 19.5h-0.813v1.719q-0.375-0.469-0.906-0.469-0.594 0-0.969 0.469-0.375 0.438-0.375 1.344 0 0.875 0.375 1.344 0.438 0.5 0.938 0.5 0.281 0 0.531-0.156 0.25-0.125 0.469-0.438v0.5h0.75v-4.813zM20.625 11.313q0-0.656-0.484-1.141t-1.172-0.484h-1.625l-0.813-1.625h-3.281l-0.813 1.625h-1.625q-0.688 0-1.156 0.484t-0.469 1.141v4.906q0 0.688 0.469 1.156t1.156 0.469h8.156q0.688 0 1.172-0.469t0.484-1.156v-4.906zM11.375 21.5q0.313 0 0.563 0.281 0.219 0.25 0.219 0.781 0 0.563-0.219 0.813-0.25 0.281-0.563 0.281t-0.531-0.281q-0.219-0.25-0.219-0.813 0-0.531 0.219-0.781 0.219-0.281 0.531-0.281zM15.094 21.5q0.313 0 0.563 0.281 0.219 0.344 0.219 0.781 0 0.5-0.219 0.813-0.25 0.281-0.563 0.281-0.344 0-0.531-0.281-0.25-0.313-0.25-0.813 0-0.469 0.25-0.781 0.188-0.281 0.531-0.281z" fill="#444444"></path>
</svg>
