<?xml version="1.0" encoding="utf-8"?>
<!-- Generated by IcoMoon.io -->
<!DOCTYPE svg PUBLIC "-//W3C//DTD SVG 1.1//EN" "http://www.w3.org/Graphics/SVG/1.1/DTD/svg11.dtd">
<svg version="1.1" xmlns="http://www.w3.org/2000/svg" xmlns:xlink="http://www.w3.org/1999/xlink" width="27" height="32" viewBox="0 0 27 32">
<path d="M13.25 3.125q2.719 0 5.094 1.031t4.156 2.797 2.813 4.141 1.031 5.094-1.031 5.094-2.813 4.156-4.156 2.813-5.094 1.031-5.094-1.031-4.141-2.813-2.797-4.156-1.031-5.094 1.031-5.094 2.797-4.141 4.141-2.797 5.094-1.031zM19.281 10.5h-2.156q-0.844 0-1.547 0.469t-1.141 1.188v-1.656h-2.156q-0.656 0-1.234 0.281t-1.016 0.781-0.688 1.141-0.25 1.391v1.406h-2.375v2.375h2.375v5.719h2.375v-5.719h2.438v5.719h2.375v-5.719h2.375v-2.375h-2.375v-1.406q0-0.531 0.266-0.859t0.578-0.328h2.156v-2.406zM14.125 12.906q-0.094 0.281-0.156 0.563t-0.063 0.625v1.406h-2.438v-1.406q0-0.531 0.266-0.859t0.547-0.328h1.844z" fill="#444444"></path>
</svg>
