<?xml version="1.0" encoding="utf-8"?>
<!-- Generated by IcoMoon.io -->
<!DOCTYPE svg PUBLIC "-//W3C//DTD SVG 1.1//EN" "http://www.w3.org/Graphics/SVG/1.1/DTD/svg11.dtd">
<svg version="1.1" xmlns="http://www.w3.org/2000/svg" xmlns:xlink="http://www.w3.org/1999/xlink" width="27" height="32" viewBox="0 0 27 32">
<path d="M13.25 3.188q2.719 0 5.094 1.031t4.156 2.797 2.813 4.141 1.031 5.094-1.031 5.094-2.813 4.156-4.156 2.813-5.094 1.031-5.094-1.031-4.141-2.813-2.797-4.156-1.031-5.094 1.031-5.094 2.797-4.141 4.141-2.797 5.094-1.031zM15.125 14.219q-0.031 0.531 0.078 1.281t0.422 1.063q0.156 0.156 0.344 0.156 1.125 0 1.125-1.781 0-0.406-0.109-0.781t-0.266-0.688-0.375-0.5-0.438-0.188h-0.094q-0.594 0.094-0.688 1.438zM12.375 14.594q-0.156 0.5-0.078 1.063t0.359 0.938q0.094 0.156 0.25 0.297t0.406 0.172h0.125q0.531 0 0.781-0.5t0.281-1.125q0-0.469-0.188-0.891t-0.438-0.672-0.5-0.25q-0.219 0-0.5 0.125t-0.5 0.844zM20.531 16.906q0.156-0.875 0.063-1.563t-0.375-1q-0.25-0.281-0.594-0.281h-0.063q-0.719 0.063-0.938 0.578t-0.406 1.516q-0.094 0.469-0.281 1.172t-0.609 1.344-1.125 1.078-1.766 0.375q-1.156-0.063-1.719-0.406t-0.828-0.813-0.344-1-0.266-1q-0.063-0.156-0.094-0.281t-0.094-0.25q-0.156-0.375-0.438-0.797t-0.688-0.797-0.906-0.625-1.094-0.25h-2.063v1.531h1.5q0.344 0 0.844 0.453t0.688 1.234q0.531 2.406 1.828 3.625t3.266 1.219h0.156q1.563-0.031 2.719-0.609t1.922-1.375 1.188-1.656 0.516-1.422z" fill="#444444"></path>
</svg>
