<?xml version="1.0" encoding="utf-8"?>
<!-- Generated by IcoMoon.io -->
<!DOCTYPE svg PUBLIC "-//W3C//DTD SVG 1.1//EN" "http://www.w3.org/Graphics/SVG/1.1/DTD/svg11.dtd">
<svg version="1.1" xmlns="http://www.w3.org/2000/svg" xmlns:xlink="http://www.w3.org/1999/xlink" width="27" height="32" viewBox="0 0 27 32">
<path d="M17.156 15.813q1.281 0 2.031 0.906 0.75 0.938 0.75 2.219 0 0.969-0.359 1.656t-0.891 1.125-1.313 0.656q-0.813 0.25-1.516 0.313t-1.609 0.063h-1.844q-0.875 0-1.594-0.063t-1.531-0.313q-0.813-0.219-1.313-0.656-0.531-0.438-0.875-1.125t-0.344-1.656q0-1.281 0.75-2.219 0.75-0.906 2.031-0.906 0.25 0 0.766 0.063t1.328 0.156q0.375 0.063 0.813 0.094t0.906 0.031q0.438 0 0.875-0.031t0.813-0.094q0.844-0.094 1.359-0.156t0.766-0.063zM10.656 20.656q0.5-0.594 0.578-1.281t-0.109-1.313q-0.156-0.469-0.484-0.844t-0.766-0.375-0.813 0.375q-0.469 0.594-0.547 1.281t0.078 1.313q0.156 0.469 0.484 0.844t0.797 0.375q0.438 0 0.781-0.375zM17.594 20.656q0.5-0.594 0.578-1.281t-0.141-1.313q-0.125-0.469-0.453-0.844t-0.766-0.375-0.813 0.375q-0.469 0.594-0.547 1.281t0.078 1.313q0.156 0.469 0.484 0.844t0.797 0.375q0.438 0 0.781-0.375zM13.281 3.125q2.719 0 5.094 1.031t4.156 2.797 2.813 4.156 1.031 5.109-1.031 5.094-2.813 4.156-4.156 2.813-5.094 1.031-5.094-1.031-4.156-2.813-2.813-4.156-1.031-5.094 1.031-5.109 2.813-4.156 4.156-2.797 5.094-1.031zM21.688 20.625q0.656-1.344 0.656-3.594 0-2.625-1.469-4.313 0.281-0.875 0.281-1.813 0-1.219-0.531-2.375-1.125 0-2.063 0.438-0.438 0.219-0.938 0.547t-1.094 0.766q-1.406-0.375-3.031-0.375-0.875 0-1.703 0.109t-1.641 0.297q-1.188-0.938-2.063-1.344-0.938-0.438-2.031-0.438-0.563 1.125-0.563 2.375 0 0.969 0.281 1.844-1.469 1.719-1.469 4.281 0 2.25 0.688 3.594 0.5 1.094 1.547 1.734t2.172 0.922q0.813 0.25 1.656 0.344 0.438 0.063 0.844 0.094t0.75 0.031q0.344 0.031 0.719 0.031h1.766t0.859-0.031 0.859-0.094 0.984-0.156q1.094-0.188 1.844-0.5 0.813-0.344 1.531-0.953t1.156-1.422z" fill="#444444"></path>
</svg>
