<?xml version="1.0" encoding="utf-8"?>
<!-- Generator: Adobe Illustrator 18.0.0, SVG Export Plug-In . SVG Version: 6.00 Build 0)  -->
<!DOCTYPE svg PUBLIC "-//W3C//DTD SVG 1.1//EN" "http://www.w3.org/Graphics/SVG/1.1/DTD/svg11.dtd">
<svg version="1.1" id="Layer_1" xmlns="http://www.w3.org/2000/svg" xmlns:xlink="http://www.w3.org/1999/xlink" x="0px" y="0px"
	 viewBox="0 0 27 32" enable-background="new 0 0 27 32" xml:space="preserve">
<path fill="#444444" d="M13.5,2.9c1.8,0,3.5,0.3,5.1,1s3,1.6,4.2,2.8c1.2,1.2,2.1,2.6,2.8,4.2s1,3.3,1,5.1c0,1.8-0.3,3.5-1,5.1
	c-0.7,1.6-1.6,3-2.8,4.2c-1.2,1.2-2.6,2.1-4.2,2.8s-3.3,1-5.1,1c-1.8,0-3.5-0.3-5.1-1c-1.6-0.7-3-1.6-4.2-2.8
	c-1.2-1.2-2.1-2.6-2.8-4.2c-0.7-1.6-1-3.3-1-5.1c0-1.8,0.3-3.5,1-5.1s1.6-3,2.8-4.2s2.6-2.1,4.2-2.8S11.7,2.9,13.5,2.9z M16.8,15.6
	c0.7,0,1.3,0.3,1.7,0.8c0.4,0.5,0.6,1.2,0.6,1.9c0,0.6-0.1,1-0.3,1.4c-0.2,0.4-0.5,0.7-0.8,1c-0.3,0.2-0.7,0.4-1.1,0.6
	c-0.5,0.1-0.9,0.2-1.3,0.3c-0.4,0-0.9,0.1-1.4,0.1h-1.6c-0.5,0-1,0-1.4-0.1c-0.4,0-0.8-0.1-1.3-0.3c-0.5-0.1-0.8-0.3-1.1-0.6
	c-0.3-0.2-0.6-0.6-0.7-1c-0.2-0.4-0.3-0.9-0.3-1.4c0-0.7,0.2-1.4,0.6-1.9c0.4-0.5,1-0.8,1.7-0.8c0.1,0,0.4,0,0.7,0.1
	s0.7,0.1,1.1,0.1c0.2,0,0.4,0.1,0.7,0.1s0.5,0,0.8,0c0.2,0,0.5,0,0.7,0c0.2,0,0.5,0,0.7-0.1c0.5-0.1,0.9-0.1,1.2-0.1
	S16.7,15.6,16.8,15.6L16.8,15.6z M11.3,19.8c0.3-0.3,0.4-0.7,0.5-1.1c0-0.4,0-0.8-0.1-1.1c-0.1-0.3-0.2-0.5-0.4-0.7
	s-0.4-0.3-0.7-0.3c-0.2,0-0.5,0.1-0.7,0.3c-0.3,0.3-0.4,0.7-0.5,1.1c0,0.4,0,0.8,0.1,1.1c0.1,0.3,0.2,0.5,0.4,0.7s0.4,0.3,0.7,0.3
	C10.8,20.1,11.1,20,11.3,19.8L11.3,19.8z M17.2,19.8c0.3-0.3,0.4-0.7,0.5-1.1c0-0.4,0-0.8-0.1-1.1c-0.1-0.3-0.2-0.5-0.4-0.7
	s-0.4-0.3-0.7-0.3c-0.2,0-0.5,0.1-0.7,0.3c-0.3,0.3-0.4,0.7-0.5,1.1c0,0.4,0,0.8,0.1,1.1c0.1,0.3,0.2,0.5,0.4,0.7
	c0.2,0.2,0.4,0.3,0.7,0.3C16.8,20.1,17,20,17.2,19.8L17.2,19.8z M20.7,19.8c0.4-0.8,0.6-1.8,0.6-3.1c0-1.5-0.4-2.7-1.3-3.7
	c0.2-0.5,0.2-1,0.2-1.6c0-0.7-0.2-1.4-0.5-2c-0.6,0-1.2,0.1-1.8,0.4c-0.2,0.1-0.5,0.3-0.8,0.5c-0.3,0.2-0.6,0.4-0.9,0.7
	c-0.8-0.2-1.7-0.3-2.6-0.3c-0.5,0-1,0-1.5,0.1c-0.5,0.1-0.9,0.1-1.4,0.3c-0.7-0.5-1.3-0.9-1.8-1.1C8.5,9.5,8,9.4,7.3,9.4
	c-0.3,0.6-0.5,1.3-0.5,2c0,0.6,0.1,1.1,0.2,1.6c-0.8,1-1.3,2.2-1.3,3.7C5.8,18,6,19,6.4,19.8c0.3,0.6,0.7,1.1,1.3,1.5
	C8.3,21.6,9,21.9,9.6,22c0.5,0.1,0.9,0.2,1.4,0.3c0.2,0,0.5,0.1,0.7,0.1c0.2,0,0.4,0,0.6,0c0.2,0,0.4,0,0.6,0h1.5c0,0,0.2,0,0.7,0
	c0.5,0,0.7,0,0.7-0.1c0,0,0.3-0.1,0.8-0.1c0.6-0.1,1.1-0.2,1.6-0.4c0.5-0.2,0.9-0.5,1.3-0.8C20.1,20.6,20.4,20.2,20.7,19.8
	L20.7,19.8z"/>
</svg>
