<?xml version="1.0" encoding="utf-8"?>
<!-- Generated by IcoMoon.io -->
<!DOCTYPE svg PUBLIC "-//W3C//DTD SVG 1.1//EN" "http://www.w3.org/Graphics/SVG/1.1/DTD/svg11.dtd">
<svg version="1.1" xmlns="http://www.w3.org/2000/svg" xmlns:xlink="http://www.w3.org/1999/xlink" width="27" height="32" viewBox="0 0 27 32">
<path d="M12.906 12.781q0 1-0.438 1.594t-1.406 0.594q-0.656 0-1.172-0.391t-0.859-0.969-0.531-1.25-0.188-1.234q0-0.906 0.5-1.656 0.531-0.688 1.438-0.688 0.656 0 1.188 0.406t0.813 1.031q0.313 0.625 0.484 1.297t0.172 1.266zM13.781 20.25q0.094 0.094 0.156 0.344 0.156 0.313 0.156 0.75 0 0.656-0.281 1.094t-0.734 0.703-1 0.391-1.109 0.125q-1.313 0-2.469-0.594-0.563-0.313-0.906-0.828t-0.344-1.203q0-0.938 0.547-1.469t1.359-0.781q0.563-0.188 1.078-0.266t1.047-0.078q0.156 0 0.281 0.016t0.219 0.016l0.281 0.219q0.156 0.063 0.219 0.125t0.125 0.094l0.313 0.219q0.125 0.094 0.188 0.156l0.125 0.125q0.063 0.031 0.281 0.25 0.156 0.156 0.25 0.281t0.219 0.313zM13.281 3.125q2.719 0 5.094 1.031t4.156 2.797 2.813 4.156 1.031 5.109-1.031 5.094-2.813 4.156-4.156 2.813-5.094 1.031-5.094-1.031-4.156-2.813-2.813-4.156-1.031-5.094 1.031-5.109 2.813-4.156 4.156-2.797 5.094-1.031zM14.094 23.281q1.406-1.219 1.406-2.781 0-1.031-0.469-1.703t-1.031-1.156-1.031-0.859-0.469-0.844q0-0.563 0.484-0.984t0.953-0.953q0.344-0.344 0.578-0.906t0.234-1.313q0-0.781-0.406-1.656-0.375-0.813-1.094-1.25h1.344l1.344-0.781h-4.344q-0.906 0-1.844 0.188-1.375 0.313-2.313 1.406t-0.938 2.469q0 1.5 1.031 2.438 1.063 0.969 2.531 0.969h0.328t0.391-0.031q-0.031 0.063-0.078 0.203l-0.078 0.234q-0.063 0.094-0.063 0.406 0 0.719 0.625 1.469-1.5 0.031-3.031 0.5-0.813 0.25-1.438 0.719t-0.938 1.094q-0.375 0.719-0.375 1.344 0 0.844 0.438 1.438t1.125 0.969 1.469 0.531 1.5 0.156q2.656 0 4.156-1.313zM21.906 10.625h-2.531v-2.531h-1.281v2.531h-2.531v1.25h2.531v2.563h1.281v-2.563h2.531v-1.25z" fill="#444444"></path>
</svg>
