<?xml version="1.0" encoding="utf-8"?>
<!-- Generated by IcoMoon.io -->
<!DOCTYPE svg PUBLIC "-//W3C//DTD SVG 1.1//EN" "http://www.w3.org/Graphics/SVG/1.1/DTD/svg11.dtd">
<svg version="1.1" xmlns="http://www.w3.org/2000/svg" xmlns:xlink="http://www.w3.org/1999/xlink" width="27" height="32" viewBox="0 0 27 32">
<path d="M13.125 19.156q-0.594 0-1.109-0.219t-0.906-0.609-0.609-0.922-0.219-1.125 0.219-1.109 0.609-0.906 0.906-0.609 1.109-0.219q1.188 0 2.016 0.828t0.828 2.016q0 0.594-0.219 1.125t-0.609 0.922-0.906 0.609-1.109 0.219zM17.688 16.281q0-0.281-0.031-0.578t-0.094-0.547h1.281v6.281q0 0.25-0.156 0.406t-0.406 0.156h-10.313q-0.25 0-0.406-0.156t-0.156-0.406v-6.281h1.281q-0.063 0.25-0.094 0.547t-0.031 0.578q0 0.938 0.359 1.781t0.969 1.469 1.453 0.984 1.781 0.359 1.781-0.359 1.453-0.984 0.969-1.469 0.359-1.781zM13.25 3.188q2.719 0 5.094 1.031t4.156 2.797 2.813 4.141 1.031 5.094-1.031 5.094-2.813 4.156-4.156 2.813-5.094 1.031-5.094-1.031-4.141-2.813-2.797-4.156-1.031-5.094 1.031-5.094 2.797-4.141 4.141-2.797 5.094-1.031zM20.563 10.563q0-0.719-0.5-1.219t-1.219-0.5h-11.438q-0.719 0-1.219 0.5t-0.5 1.219v11.438q0 0.719 0.5 1.219t1.219 0.5h11.438q0.719 0 1.219-0.5t0.5-1.219v-11.438zM18.281 10.563q0.25 0 0.406 0.172t0.156 0.422v1.719q0 0.25-0.156 0.406t-0.406 0.156h-1.719q-0.25 0-0.422-0.156t-0.172-0.406v-1.719q0-0.25 0.172-0.422t0.422-0.172h1.719z" fill="#444444"></path>
</svg>
