<?xml version="1.0" encoding="utf-8"?>
<!-- Generator: Adobe Illustrator 16.0.0, SVG Export Plug-In . SVG Version: 6.00 Build 0)  -->
<!DOCTYPE svg PUBLIC "-//W3C//DTD SVG 1.1//EN" "http://www.w3.org/Graphics/SVG/1.1/DTD/svg11.dtd">
<svg version="1.1" id="Layer_1" xmlns="http://www.w3.org/2000/svg" xmlns:xlink="http://www.w3.org/1999/xlink" x="0px" y="0px"
	 width="507.4px" height="512px" viewBox="-16.405 0 507.4 512" enable-background="new -16.405 0 507.4 512" xml:space="preserve">
<g id="lastfm">
	<g>
		<path d="M393.782,245.053c-39.796-11.798-53.947-18.395-53.947-31.495c0-21.895,31.649-27.129,35.243-27.718
			c20.161-2.942,53.268,2.323,61.753,29.019l54.164-16.352c-17-53.731-75.533-74.542-124.372-67.327
			c-49.952,7.37-83.493,40.508-83.493,82.378c0,56.333,54.383,72.592,94.054,84.42c41.811,12.451,56.612,19.573,56.612,34.873
			c0,12.914-10.343,19.262-30.753,24.651c-40.538,10.651-94.796-0.125-109.6-24.774c-8.672-14.494-16.291-34.531-24.437-55.869
			c-24.155-63.177-57.262-149.674-152.492-149.674c-49.582,0-132.92,20.192-132.92,155.497c0,56.023,40.725,132.857,131.186,132.857
			c75.906,0,89.099-31.123,92.134-36.078l-24.775-48.312c-0.62,0.836-23.724,29.08-67.359,29.08
			c-71.261,0-74.45-76.681-74.45-77.547c0-70.208,22.793-100.217,76.185-100.217c51.936,0,73.057,45.091,99.349,113.719
			c8.949,23.6,17.498,45.834,28.615,64.385c23.443,39.177,78.042,55.775,128.864,55.775c15.546,0,30.689-1.828,44.472-5.45
			c45.524-12.016,72.685-39.331,72.685-78.042C490.5,273.917,434.632,257.287,393.782,245.053z"/>
	</g>
</g>
</svg>
