<?xml version="1.0" encoding="utf-8"?>
<!-- Generated by IcoMoon.io -->
<!DOCTYPE svg PUBLIC "-//W3C//DTD SVG 1.1//EN" "http://www.w3.org/Graphics/SVG/1.1/DTD/svg11.dtd">
<svg version="1.1" xmlns="http://www.w3.org/2000/svg" xmlns:xlink="http://www.w3.org/1999/xlink" width="27" height="32" viewBox="0 0 27 32">
<path d="M13.25 3.219q2.719 0 5.094 1.031t4.156 2.797 2.813 4.141 1.031 5.094-1.031 5.094-2.813 4.156-4.156 2.813-5.094 1.031-5.094-1.031-4.141-2.813-2.797-4.156-1.031-5.094 1.031-5.094 2.797-4.141 4.141-2.797 5.094-1.031zM9.188 13.031h-3.281v10.625h3.281v-10.625zM7.531 12.188q0.688 0 1.172-0.469t0.484-1.156-0.484-1.156-1.172-0.469-1.156 0.469-0.469 1.156 0.469 1.156 1.156 0.469zM20.625 17.5q0-1.125-0.625-2.203t-1.625-1.641q-0.906-0.5-2.109-0.531t-2.203 0.406v-0.5h-3.25v10.625h3.25v-6.5l1.375-0.656q0.25-0.125 0.672-0.125t0.672 0.156q0.188 0.094 0.375 0.406t0.188 0.563v6.156h3.281v-6.156z" fill="#444444"></path>
</svg>
