<?xml version="1.0" encoding="utf-8"?>
<!-- Generator: Adobe Illustrator 18.0.0, SVG Export Plug-In . SVG Version: 6.00 Build 0)  -->
<!DOCTYPE svg PUBLIC "-//W3C//DTD SVG 1.1//EN" "http://www.w3.org/Graphics/SVG/1.1/DTD/svg11.dtd">
<svg version="1.1" id="Layer_1" xmlns="http://www.w3.org/2000/svg" xmlns:xlink="http://www.w3.org/1999/xlink" x="0px" y="0px"
	 viewBox="0 0 27 32" enable-background="new 0 0 27 32" xml:space="preserve">
<path fill="#444444" d="M13.5,2.9c1.8,0,3.5,0.3,5.1,1c1.6,0.7,3,1.6,4.2,2.8c1.2,1.2,2.1,2.6,2.8,4.1s1,3.3,1,5.1
	c0,1.8-0.3,3.5-1,5.1s-1.6,3-2.8,4.2c-1.2,1.2-2.6,2.1-4.2,2.8s-3.3,1-5.1,1s-3.5-0.3-5.1-1c-1.6-0.7-3-1.6-4.1-2.8
	c-1.2-1.2-2.1-2.6-2.8-4.2s-1-3.3-1-5.1s0.3-3.5,1-5.1s1.6-3,2.8-4.1S6.8,4.6,8.4,4S11.7,2.9,13.5,2.9z M10.1,13.3H7.3v8.9h2.7V13.3
	z M8.7,12.6c0.4,0,0.7-0.1,1-0.4c0.3-0.3,0.4-0.6,0.4-1s-0.1-0.7-0.4-1c-0.3-0.3-0.6-0.4-1-0.4S8,10,7.7,10.2
	c-0.3,0.3-0.4,0.6-0.4,1s0.1,0.7,0.4,1C8,12.4,8.3,12.6,8.7,12.6z M19.7,17c0-0.6-0.2-1.2-0.5-1.8c-0.3-0.6-0.8-1.1-1.4-1.4
	c-0.5-0.3-1.1-0.4-1.8-0.4c-0.7,0-1.3,0.1-1.8,0.3v-0.4h-2.7v8.9h2.7v-5.4l1.2-0.5c0.1-0.1,0.3-0.1,0.6-0.1c0.2,0,0.4,0,0.6,0.1
	c0.1,0.1,0.2,0.2,0.3,0.3c0.1,0.2,0.2,0.3,0.2,0.5v5.2h2.7L19.7,17L19.7,17z"/>
</svg>
