<?xml version="1.0" encoding="utf-8"?>
<!-- Generator: Adobe Illustrator 16.0.0, SVG Export Plug-In . SVG Version: 6.00 Build 0)  -->
<!DOCTYPE svg PUBLIC "-//W3C//DTD SVG 1.1//EN" "http://www.w3.org/Graphics/SVG/1.1/DTD/svg11.dtd">
<svg version="1.1" id="Layer_1" xmlns="http://www.w3.org/2000/svg" xmlns:xlink="http://www.w3.org/1999/xlink" x="0px" y="0px"
	 width="512.488px" height="512px" viewBox="0 0 512.488 512" enable-background="new 0 0 512.488 512" xml:space="preserve">
<g id="ffffound">
	<g>
		<path d="M384.365,64.167c-62.185,0-113.483,47.295-128.121,84.142c-14.671-36.846-65.938-84.142-128.123-84.142
			C54.302,64.167,0,115.809,0,189.036c0,94.81,149.329,275.479,249.737,290.37c0,0.626,0,1.095,0,1.095
			c2.127,0,4.317-0.22,6.507-0.375c2.189,0.155,4.379,0.375,6.506,0.375c0,0,0-0.469,0-1.095
			c100.408-14.891,249.738-195.561,249.738-290.37C512.488,115.809,458.185,64.167,384.365,64.167z"/>
	</g>
</g>
</svg>
