<?xml version="1.0" encoding="utf-8"?>
<!-- Generated by IcoMoon.io -->
<!DOCTYPE svg PUBLIC "-//W3C//DTD SVG 1.1//EN" "http://www.w3.org/Graphics/SVG/1.1/DTD/svg11.dtd">
<svg version="1.1" xmlns="http://www.w3.org/2000/svg" xmlns:xlink="http://www.w3.org/1999/xlink" width="27" height="32" viewBox="0 0 27 32">
<path d="M13.281 3.188q2.719 0 5.094 1.031t4.141 2.797 2.797 4.141 1.031 5.094-1.031 5.094-2.797 4.156-4.141 2.813-5.094 1.031-5.094-1.031-4.156-2.813-2.813-4.156-1.031-5.094 1.031-5.094 2.813-4.141 4.156-2.797 5.094-1.031zM17.5 9.688q-0.625 0-1.047 0.328t-0.422 0.797q0 0.438 0.422 0.766t1.047 0.328 1.047-0.328 0.422-0.766q0-0.469-0.422-0.797t-1.047-0.328zM10.875 9.688q-0.625 0-1.063 0.328t-0.438 0.797q0 0.438 0.438 0.766t1.063 0.328 1.047-0.328 0.422-0.766q0-0.469-0.422-0.797t-1.047-0.328zM12.438 24.438q1.625 0 2.922-0.594t2.297-1.516 1.719-2.031 1.172-2.125 0.672-1.797 0.219-1.063q0-0.406-0.172-0.641t-0.391-0.359q-0.25-0.125-0.531-0.188h-12.594q-0.094 0.031-0.219 0.125-0.094 0.094-0.234 0.25t-0.266 0.438q-0.688 1.375-0.844 3.016t0.422 3.094 1.984 2.422 3.844 0.969zM8.281 21.125q-0.375-0.625-0.531-1.359t-0.125-1.484 0.234-1.438 0.484-1.25h11.563q-0.094 0.375-0.344 1.063t-0.672 1.5-1.016 1.672-1.391 1.563-1.813 1.141-2.234 0.438q-0.531 0-1.109-0.078t-1.141-0.281-1.063-0.563-0.844-0.922z" fill="#444444"></path>
</svg>
