<?xml version="1.0" encoding="utf-8"?>
<!-- Generated by IcoMoon.io -->
<!DOCTYPE svg PUBLIC "-//W3C//DTD SVG 1.1//EN" "http://www.w3.org/Graphics/SVG/1.1/DTD/svg11.dtd">
<svg version="1.1" xmlns="http://www.w3.org/2000/svg" xmlns:xlink="http://www.w3.org/1999/xlink" width="27" height="32" viewBox="0 0 27 32">
<path d="M19.781 12.094h0.844v8.188h-3.375q0.813-0.781 1.266-1.844t0.453-2.25-0.453-2.234-1.266-1.859h2.531zM9.281 12.094q-0.813 0.813-1.281 1.859t-0.469 2.234 0.469 2.25 1.281 1.844h-3.375v-8.188h3.375zM15.969 12.094q1 0.688 1.594 1.75t0.594 2.344q0 1.313-0.594 2.375t-1.594 1.719q-0.156 0.094-0.281 0.172t-0.281 0.141q-0.031 0.031-0.047 0.031t-0.047 0.031q-0.281 0.125-0.625 0.219-0.344 0.125-0.625 0.156h-0.156q-0.156 0.031-0.328 0.047t-0.328 0.016-0.328-0.016-0.328-0.047h-0.156q-0.25-0.031-0.594-0.156h-0.031q-0.156-0.063-0.297-0.109t-0.297-0.109l-0.125-0.063q-0.156-0.063-0.281-0.141t-0.25-0.172q-1-0.656-1.609-1.719t-0.609-2.375q0-1.281 0.609-2.344t1.609-1.75q0.125-0.063 0.25-0.141t0.281-0.172q0.063 0 0.078-0.016t0.047-0.016q0.313-0.156 0.594-0.25h0.031q0.219-0.063 0.594-0.125 0.063-0.031 0.156-0.031 0.156-0.031 0.328-0.047t0.328-0.016 0.328 0.016 0.328 0.047q0.125 0 0.156 0.031 0.156 0.031 0.313 0.047t0.313 0.078l0.625 0.25q0.031 0 0.047 0.016t0.047 0.016q0.156 0.094 0.281 0.172t0.281 0.141zM17.344 16.188q0-0.844-0.328-1.594t-0.875-1.297-1.297-0.875-1.594-0.328v0.844q0.688 0 1.281 0.25t1.031 0.688 0.703 1.031 0.266 1.281h0.813zM13.25 3.125q2.719 0 5.094 1.031t4.156 2.797 2.813 4.141 1.031 5.094-1.031 5.094-2.813 4.156-4.156 2.813-5.094 1.031-5.094-1.031-4.141-2.813-2.797-4.156-1.031-5.094 1.031-5.094 2.797-4.141 4.141-2.797 5.094-1.031zM21.438 12.094q0-0.344-0.234-0.578t-0.578-0.234h-4.438q-0.625-0.375-1.375-0.594t-1.563-0.219-1.547 0.219-1.359 0.594h-1.156q0-0.344-0.25-0.578t-0.594-0.234h-1.625q-0.344 0-0.578 0.234t-0.234 0.578q-0.344 0-0.578 0.234t-0.234 0.578v8.188q0 0.344 0.234 0.578t0.578 0.234h4.438q1.281 0.813 2.906 0.813 1.656 0 2.938-0.813h4.438q0.344 0 0.578-0.234t0.234-0.578v-8.188z" fill="#444444"></path>
</svg>
