<?xml version="1.0" encoding="utf-8"?>
<!-- Generated by IcoMoon.io -->
<!DOCTYPE svg PUBLIC "-//W3C//DTD SVG 1.1//EN" "http://www.w3.org/Graphics/SVG/1.1/DTD/svg11.dtd">
<svg version="1.1" xmlns="http://www.w3.org/2000/svg" xmlns:xlink="http://www.w3.org/1999/xlink" width="27" height="32" viewBox="0 0 27 32">
<path d="M13.281 3.125q2.719 0 5.094 1.031t4.141 2.797 2.797 4.141 1.031 5.094-1.031 5.094-2.797 4.156-4.141 2.813-5.094 1.031-5.094-1.031-4.156-2.813-2.813-4.156-1.031-5.094 1.031-5.094 2.813-4.141 4.156-2.797 5.094-1.031zM13.188 8.031q-1.406 0-2.813 0.531 0.063 0.063 0.531 0.469t1.156 1.016 1.469 1.313 1.453 1.313 1.109 1.047 0.438 0.5v-5.469q-0.625-0.344-1.531-0.531t-1.813-0.188zM5.094 16.219q0 1.094 0.313 2.125 0.063-0.063 0.609-0.563t1.328-1.219 1.703-1.547 1.703-1.547 1.313-1.203 0.563-0.516q-0.063-0.031-0.531-0.469t-1.031-0.953-1.031-0.938-0.5-0.453q-2.063 1.063-3.25 3t-1.188 4.281zM9.188 16.156q-0.906 0.844-1.656 1.5-0.625 0.563-1.156 1.063t-0.563 0.531q0.5 1.219 1.328 2.234t2.047 1.734v-7.063zM14 24.375q2.156-0.219 3.906-1.344t2.688-3.563h-10.594v4.219q1.188 0.531 2.5 0.688h1.5zM20.969 18.656q0.25-0.625 0.328-1.25t0.078-1.313q0-2.156-1.078-3.953t-2.953-2.922v9.438h3.625z" fill="#444444"></path>
</svg>
