<?xml version="1.0" encoding="utf-8"?>
<!-- Generated by IcoMoon.io -->
<!DOCTYPE svg PUBLIC "-//W3C//DTD SVG 1.1//EN" "http://www.w3.org/Graphics/SVG/1.1/DTD/svg11.dtd">
<svg version="1.1" xmlns="http://www.w3.org/2000/svg" xmlns:xlink="http://www.w3.org/1999/xlink" width="16" height="16" viewBox="0 0 16 16">
<path d="M7.966 0c0 0-5.466 0.062-5.466 5.969 0 3 5.466 10.031 5.466 10.031s5.534-6.969 5.534-10.062c0-5.876-5.534-5.938-5.534-5.938zM7.979 13c0 0-3.474-4.831-3.48-6.894-0.013-4.059 3.478-4.106 3.48-4.106 0.006 0 3.542 0.046 3.509 4.084-0.016 2.127-3.509 6.916-3.509 6.916zM8 4c-0.828 0-1.5 0.672-1.5 1.5s0.672 1.5 1.5 1.5 1.5-0.672 1.5-1.5-0.672-1.5-1.5-1.5z" fill="#444444"></path>
</svg>
