<?xml version="1.0" encoding="utf-8"?>
<!-- Generated by IcoMoon.io -->
<!DOCTYPE svg PUBLIC "-//W3C//DTD SVG 1.1//EN" "http://www.w3.org/Graphics/SVG/1.1/DTD/svg11.dtd">
<svg version="1.1" xmlns="http://www.w3.org/2000/svg" xmlns:xlink="http://www.w3.org/1999/xlink" width="27" height="32" viewBox="0 0 27 32">
<path d="M13.281 3.125q2.719 0 5.094 1.031t4.141 2.797 2.797 4.141 1.031 5.094-1.031 5.094-2.797 4.156-4.141 2.813-5.094 1.031-5.094-1.031-4.156-2.813-2.813-4.156-1.031-5.094 1.031-5.094 2.813-4.141 4.156-2.797 5.094-1.031zM17.406 19q0.563-0.469 0.953-1.125t0.641-1.438 0.344-1.578 0-1.547q-0.094-0.813-0.5-1.578t-1.063-1.359-1.5-1-1.781-0.5q-1.438-0.156-2.766 0.188t-2.344 1.078-1.641 1.828-0.625 2.469q0 1.313 0.469 2.125t1.656 1.25q0.406-0.375 0.422-0.703t-0.141-0.656-0.375-0.688-0.25-0.797q-0.125-1.156 0.453-2.203t1.547-1.703 2.219-0.781 2.5 0.594q0.594 0.344 0.938 0.984t0.484 1.438 0.063 1.656-0.375 1.578-0.797 1.25-1.188 0.656q-0.438 0.094-0.891-0.016t-0.641-0.297q-0.5-0.469-0.406-1.063t0.344-1.281 0.453-1.406-0.078-1.375q-0.25-0.563-0.703-0.672t-0.891 0.109-0.797 0.656-0.453 0.938q-0.063 0.531 0.094 1.047t0.156 1.016q0 0.563-0.156 1.203t-0.359 1.313-0.406 1.313-0.297 1.203q-0.063 0.438-0.109 1.188t0.078 1.219l-0.031 0.031h1.031q0.531-0.906 0.906-2.125t0.656-2.344q0.156-0.156 0.234 0.063t0.234 0.313q0.469 0.375 1.125 0.453t1.313-0.016 1.266-0.344 0.984-0.563z" fill="#444444"></path>
</svg>
