<?xml version="1.0" encoding="utf-8"?>
<!-- Generated by IcoMoon.io -->
<!DOCTYPE svg PUBLIC "-//W3C//DTD SVG 1.1//EN" "http://www.w3.org/Graphics/SVG/1.1/DTD/svg11.dtd">
<svg version="1.1" xmlns="http://www.w3.org/2000/svg" xmlns:xlink="http://www.w3.org/1999/xlink" width="27" height="32" viewBox="0 0 27 32">
<path d="M13.281 3.156q2.719 0 5.094 1.031t4.141 2.797 2.797 4.141 1.031 5.094-1.031 5.094-2.797 4.156-4.141 2.813-5.094 1.031-5.094-1.031-4.156-2.813-2.813-4.156-1.031-5.094 1.031-5.094 2.813-4.141 4.156-2.797 5.094-1.031zM13.25 23.594q1 0 1.703-0.875t0.703-2.625q0-0.875-0.203-1.344t-0.531-0.688-0.766-0.25-0.906-0.031-0.906 0.031-0.766 0.25-0.531 0.688-0.203 1.344q0 1.75 0.703 2.625t1.703 0.875zM11.625 15.969q0 0.625 0.469 1.078t1.156 0.453 1.156-0.453 0.469-1.078-0.469-1.063-1.156-0.438-1.156 0.438-0.469 1.063zM18.406 16.813q0-0.063 0.016-0.141t0.016-0.141q0-1-0.406-1.938t-1.109-1.672-1.641-1.172-2-0.438q-1.094 0-2.031 0.438t-1.656 1.172-1.125 1.672-0.406 1.938q0 0.063 0.016 0.141t0.016 0.141q0.063-0.938 0.484-1.656t1.125-1.203 1.625-0.734 1.953-0.25 1.938 0.25 1.594 0.734 1.109 1.203 0.484 1.656zM21.406 16.531q0-1.594-0.641-2.984t-1.75-2.422-2.594-1.641-3.172-0.609-3.172 0.609-2.594 1.641-1.75 2.422-0.641 2.984v0.313q0.063-1.531 0.719-2.719t1.766-1.984 2.563-1.219 3.109-0.422 3.109 0.422 2.547 1.219 1.766 1.984 0.734 2.719v-0.313z" fill="#444444"></path>
</svg>
