<?xml version="1.0" encoding="utf-8"?>
<!-- Generated by IcoMoon.io -->
<!DOCTYPE svg PUBLIC "-//W3C//DTD SVG 1.1//EN" "http://www.w3.org/Graphics/SVG/1.1/DTD/svg11.dtd">
<svg version="1.1" xmlns="http://www.w3.org/2000/svg" xmlns:xlink="http://www.w3.org/1999/xlink" width="27" height="32" viewBox="0 0 27 32">
<path d="M17.531 12.031q-0.469 0-0.813-0.344t-0.344-0.844q0-0.469 0.344-0.813t0.813-0.344 0.797 0.344 0.328 0.813q0 0.5-0.328 0.844t-0.797 0.344zM7.5 14.844q-1.094 0.844-1.563 2-0.469-0.406-0.469-0.969 0-0.531 0.391-0.906t0.922-0.375q0.406 0 0.719 0.25zM13.281 3.188q2.719 0 5.094 1.031t4.141 2.797 2.797 4.141 1.031 5.094-1.031 5.094-2.797 4.156-4.141 2.813-5.094 1.031-5.094-1.031-4.156-2.813-2.813-4.156-1.031-5.094 1.031-5.094 2.813-4.141 4.156-2.797 5.094-1.031zM19.781 17.75q0.531-0.25 0.875-0.75t0.344-1.125q0-0.875-0.609-1.484t-1.484-0.609q-0.438 0-0.828 0.188t-0.672 0.469q-0.875-0.531-1.953-0.859t-2.297-0.391l0.406-2.875 2.031 0.469v0.063q0 0.844 0.563 1.422t1.375 0.578 1.359-0.578 0.547-1.422q0-0.813-0.547-1.391t-1.359-0.578q-0.625 0-1.094 0.344t-0.688 0.875l-2.406-0.563q-0.125-0.031-0.281 0.063-0.125 0.063-0.125 0.219l-0.5 3.375q-1.219 0.031-2.297 0.344t-1.953 0.844q-0.594-0.594-1.406-0.594-0.875 0-1.484 0.609t-0.609 1.484q0 0.563 0.281 1.031t0.719 0.75q-0.094 0.344-0.094 0.719 0 1.094 0.563 2.031t1.531 1.641 2.266 1.109 2.766 0.406 2.766-0.406 2.266-1.109 1.531-1.641 0.563-2.031q0-0.156-0.016-0.313t-0.047-0.313zM12.719 14.281q1.25 0 2.375 0.328t1.953 0.875 1.313 1.297 0.484 1.594-0.484 1.578-1.313 1.297-1.953 0.875-2.375 0.313q-1.281 0-2.391-0.313t-1.938-0.875-1.313-1.297-0.484-1.578 0.484-1.594 1.313-1.297 1.938-0.875 2.391-0.328zM9.344 17.156q0 0.375 0.266 0.656t0.641 0.281q0.406 0 0.672-0.281t0.266-0.656q0-0.406-0.266-0.688t-0.672-0.281q-0.375 0-0.641 0.281t-0.266 0.688zM15.781 20.406q0.281-0.281 0-0.563t-0.563 0-0.906 0.469-1.5 0.188q-0.906 0-1.5-0.188-0.625-0.188-0.906-0.469t-0.563 0 0 0.563q0.438 0.469 1.25 0.688 0.813 0.25 1.719 0.25t1.719-0.25q0.781-0.219 1.25-0.688zM15.375 18.094q0.406 0 0.672-0.281t0.266-0.656q0-0.406-0.266-0.688t-0.672-0.281q-0.375 0-0.641 0.281t-0.266 0.688q0 0.375 0.266 0.656t0.641 0.281zM18.906 14.594q0.563 0 0.938 0.375t0.375 0.906q0 0.75-0.656 1.094-0.406-1.125-1.5-2.031 0.344-0.344 0.844-0.344z" fill="#444444"></path>
</svg>
