<?xml version="1.0" encoding="utf-8"?>
<!-- Generator: Adobe Illustrator 16.0.0, SVG Export Plug-In . SVG Version: 6.00 Build 0)  -->
<!DOCTYPE svg PUBLIC "-//W3C//DTD SVG 1.1//EN" "http://www.w3.org/Graphics/SVG/1.1/DTD/svg11.dtd">
<svg version="1.1" id="Layer_1" xmlns="http://www.w3.org/2000/svg" xmlns:xlink="http://www.w3.org/1999/xlink" x="0px" y="0px"
	 width="510.974px" height="512px" viewBox="0 0 510.974 512" enable-background="new 0 0 510.974 512" xml:space="preserve">
<g id="skype">
	<g>
		<path d="M473.676,291.131c1.685-11.166,2.838-22.455,2.838-34.025c0-125.779-101.982-227.763-227.762-227.763
			c-11.789,0-23.266,1.154-34.525,2.869c-22.735-19.399-52.114-31.188-84.331-31.188C58.196,1.024,0,59.189,0,130.92
			c0,29.285,9.793,56.231,26.197,77.938c-3.368,15.562-5.239,31.687-5.239,48.248c0,125.84,101.952,227.823,227.793,227.823
			c16.125,0,31.905-1.746,47.092-4.959c22.83,19.898,52.583,32.03,85.235,32.03c71.763,0,129.896-58.164,129.896-129.896
			C510.976,346.645,496.754,314.553,473.676,291.131z M355.007,356.312c-8.95,12.756-22.112,22.734-39.39,29.938
			c-17.277,7.267-37.768,10.854-61.439,10.854c-28.443,0-51.896-4.929-70.359-14.813c-13.068-7.081-23.702-16.562-31.905-28.442
			c-8.171-11.822-12.288-23.359-12.288-34.557c0-6.52,2.464-12.07,7.36-16.686c4.928-4.646,11.197-6.955,18.775-6.955
			c6.144,0,11.383,1.777,15.625,5.427c4.242,3.587,7.922,8.951,10.916,16.03c3.649,8.451,7.609,15.469,11.851,21.113
			c4.241,5.678,10.261,10.354,17.964,14.004c7.734,3.68,17.902,5.52,30.439,5.52c17.309,0,31.342-3.68,42.167-11.102
			c10.791-7.393,16.218-16.623,16.218-27.727c0-8.766-2.933-15.906-8.765-21.363c-5.832-5.49-13.349-9.668-22.611-12.568
			c-9.23-2.869-21.52-5.957-37.02-9.201c-20.677-4.459-37.986-9.667-51.927-15.594c-13.941-5.987-25.043-14.096-33.183-24.388
			c-8.202-10.323-12.288-23.11-12.288-38.361c0-14.596,4.304-27.507,12.974-38.828c8.608-11.291,21.114-20.023,37.518-26.073
			c16.374-6.082,35.585-9.106,57.729-9.106c17.651,0,32.996,1.996,45.846,6.019c12.911,4.023,23.608,9.387,32.123,16.062
			c8.482,6.705,14.721,13.722,18.65,21.051c3.929,7.329,5.894,14.503,5.894,21.457c0,6.394-2.463,12.164-7.328,17.278
			c-4.929,5.083-11.071,7.672-18.4,7.672c-6.674,0-11.757-1.559-15.22-4.616c-3.463-3.056-7.235-8.077-11.29-15.063
			c-5.24-9.979-11.509-17.808-18.869-23.391c-7.328-5.582-19.117-8.389-35.365-8.389c-15.032,0-27.164,3.025-36.396,9.106
			c-9.262,6.05-13.847,13.38-13.847,21.925c0,5.302,1.56,9.886,4.741,13.723c3.087,3.867,7.422,7.141,12.943,9.917
			c5.458,2.776,11.04,4.928,16.685,6.55c5.614,1.528,14.908,3.836,27.882,6.83c16.217,3.493,30.906,7.36,44.1,11.57
			c13.13,4.21,24.325,9.325,33.558,15.313c9.263,6.05,16.467,13.66,21.645,22.859c5.146,9.2,7.734,20.491,7.734,33.871
			C368.449,329.148,363.957,343.557,355.007,356.312z"/>
	</g>
</g>
</svg>
