<?xml version="1.0" encoding="utf-8"?>
<!-- Generated by IcoMoon.io -->
<!DOCTYPE svg PUBLIC "-//W3C//DTD SVG 1.1//EN" "http://www.w3.org/Graphics/SVG/1.1/DTD/svg11.dtd">
<svg version="1.1" xmlns="http://www.w3.org/2000/svg" xmlns:xlink="http://www.w3.org/1999/xlink" width="27" height="32" viewBox="0 0 27 32">
<path d="M13.281 3.188q2.719 0 5.094 1.031t4.141 2.797 2.797 4.141 1.031 5.094-1.031 5.094-2.797 4.156-4.141 2.813-5.094 1.031-5.094-1.031-4.156-2.813-2.813-4.156-1.031-5.094 1.031-5.094 2.813-4.141 4.156-2.797 5.094-1.031zM5.813 16.5q-0.656 0.563-0.656 1.375 0 0.844 0.656 1.344v-2.719zM7.156 16.094h-0.156q-0.156 0-0.266 0.016t-0.266 0.047v3.438q0.156 0.031 0.266 0.047t0.266 0.016h0.156v-3.563zM8.531 15.156q-0.406 0.5-0.563 1.219-0.031-0.031-0.063-0.047t-0.063-0.047v3.375h0.688v-4.5zM9.875 14.188q-0.188 0.063-0.359 0.156t-0.328 0.188v5.125h0.688v-5.469zM11.25 14.094q-0.125-0.031-0.219-0.047t-0.219-0.016q-0.063 0-0.125 0.016t-0.125 0.016v5.594h0.688v-5.563zM12.594 14.031q-0.063 0.125-0.156 0.219t-0.156 0.188q-0.344-0.188-0.688-0.281v5.5h1v-5.625zM19.406 19.656q1-0.063 1.484-0.625t0.484-1.344q0-0.813-0.547-1.375t-1.391-0.563q-0.344 0-0.75 0.156-0.156-1.281-1.125-2.172t-2.313-0.891q-0.688 0-1.266 0.234t-1.047 0.641v5.938h6.469z" fill="#444444"></path>
</svg>
