<?xml version="1.0" encoding="utf-8"?>
<!-- Generated by IcoMoon.io -->
<!DOCTYPE svg PUBLIC "-//W3C//DTD SVG 1.1//EN" "http://www.w3.org/Graphics/SVG/1.1/DTD/svg11.dtd">
<svg version="1.1" xmlns="http://www.w3.org/2000/svg" xmlns:xlink="http://www.w3.org/1999/xlink" width="27" height="32" viewBox="0 0 27 32">
<path d="M13.281 3.125q2.719 0 5.094 1.031t4.141 2.797 2.797 4.141 1.031 5.094-1.031 5.094-2.797 4.156-4.141 2.813-5.094 1.031-5.094-1.031-4.156-2.813-2.813-4.156-1.031-5.094 1.031-5.094 2.813-4.141 4.156-2.797 5.094-1.031zM7.563 23.563q0.656 0 1.141-0.484t0.484-1.172q0-0.656-0.484-1.141t-1.141-0.484q-0.688 0-1.172 0.484t-0.484 1.141q0 0.688 0.484 1.172t1.172 0.484zM14.906 23.563q0-1.875-0.703-3.516t-1.922-2.859-2.859-1.922-3.516-0.703v3q1.25 0 2.344 0.469t1.906 1.281 1.281 1.906 0.469 2.344h3zM20.625 23.563q0-3.031-1.156-5.719t-3.156-4.688-4.688-3.156-5.719-1.156v3.063q2.406 0 4.531 0.922t3.703 2.5 2.5 3.703 0.922 4.531h3.063z" fill="#444444"></path>
</svg>
