<?xml version="1.0" encoding="utf-8"?>
<!-- Generated by IcoMoon.io -->
<!DOCTYPE svg PUBLIC "-//W3C//DTD SVG 1.1//EN" "http://www.w3.org/Graphics/SVG/1.1/DTD/svg11.dtd">
<svg version="1.1" xmlns="http://www.w3.org/2000/svg" xmlns:xlink="http://www.w3.org/1999/xlink" width="27" height="32" viewBox="0 0 27 32">
<path d="M13.281 3.188q2.719 0 5.094 1.031t4.141 2.797 2.797 4.141 1.031 5.094-1.031 5.094-2.797 4.156-4.141 2.813-5.094 1.031-5.094-1.031-4.156-2.813-2.813-4.156-1.031-5.094 1.031-5.094 2.813-4.141 4.156-2.797 5.094-1.031zM12.25 12.438l5.094 4.125 1.031-1.25-5.094-4.125zM10.406 15.906l5.875 2.875 0.719-1.469-5.875-2.875zM9.344 19.688l6.375 1.469 0.375-1.594-6.375-1.469zM9.188 23.625h6.531v-1.656h-6.531v1.656zM19 17.063h-1.656v7.375h-9.781v-7.375h-1.656v9h13.094v-9zM20.156 13.656l-4-5.156-1.281 1 4 5.156zM22.281 12.469l-2.75-5.938-1.469 0.688 2.75 5.938z" fill="#444444"></path>
</svg>
