<?xml version="1.0" encoding="utf-8"?>
<!-- Generated by IcoMoon.io -->
<!DOCTYPE svg PUBLIC "-//W3C//DTD SVG 1.1//EN" "http://www.w3.org/Graphics/SVG/1.1/DTD/svg11.dtd">
<svg version="1.1" xmlns="http://www.w3.org/2000/svg" xmlns:xlink="http://www.w3.org/1999/xlink" width="16" height="16" viewBox="0 0 16 16">
<path d="M4 5c0-0.552 0.448-1 1-1s1 0.448 1 1c0 0.552-0.448 1-1 1s-1-0.448-1-1zM15.426 7.096l-7.097-7.096h-8.329v8.33l7.096 7.096c0.767 0.766 2.009 0.766 2.777 0l5.553-5.553c0.765-0.768 0.765-2.010 0-2.777zM13.344 9.178l-4.166 4.166c-0.383 0.383-1.004 0.383-1.387 0l-5.791-5.791v-5.553h5.553l5.791 5.791c0.383 0.382 0.383 1.004 0 1.387z" fill="#444444"></path>
</svg>
