<?xml version="1.0" encoding="utf-8"?>
<!-- Generated by IcoMoon.io -->
<!DOCTYPE svg PUBLIC "-//W3C//DTD SVG 1.1//EN" "http://www.w3.org/Graphics/SVG/1.1/DTD/svg11.dtd">
<svg version="1.1" xmlns="http://www.w3.org/2000/svg" xmlns:xlink="http://www.w3.org/1999/xlink" width="28" height="28" viewBox="0 0 28 28">
<path d="M4 21q0-0.406-0.297-0.703t-0.703-0.297-0.703 0.297-0.297 0.703 0.297 0.703 0.703 0.297 0.703-0.297 0.297-0.703zM22 12q0-0.797-0.609-1.398t-1.391-0.602h-5.5q0-0.906 0.75-2.492t0.75-2.508q0-1.531-0.5-2.266t-2-0.734q-0.406 0.406-0.594 1.328t-0.477 1.961-0.93 1.711q-0.344 0.359-1.203 1.422-0.063 0.078-0.359 0.469t-0.492 0.641-0.539 0.664-0.625 0.688-0.602 0.555-0.625 0.422-0.555 0.141h-0.5v10h0.5q0.203 0 0.492 0.047t0.516 0.102 0.594 0.172 0.547 0.18 0.555 0.195 0.453 0.164q3.297 1.141 5.344 1.141h1.891q3 0 3-2.609 0-0.406-0.078-0.875 0.469-0.25 0.742-0.82t0.273-1.148-0.281-1.078q0.828-0.781 0.828-1.859 0-0.391-0.156-0.867t-0.391-0.742q0.5-0.016 0.836-0.734t0.336-1.266zM24 11.984q0 1.391-0.766 2.547 0.141 0.516 0.141 1.078 0 1.203-0.594 2.25 0.047 0.328 0.047 0.672 0 1.578-0.938 2.781 0.016 2.172-1.328 3.43t-3.547 1.258h-2.016q-1.5 0-2.961-0.352t-3.383-1.023q-1.813-0.625-2.156-0.625h-4.5q-0.828 0-1.414-0.586t-0.586-1.414v-10q0-0.828 0.586-1.414t1.414-0.586h4.281q0.562-0.375 2.141-2.422 0.906-1.172 1.672-2 0.375-0.391 0.555-1.336t0.477-1.977 0.969-1.687q0.609-0.578 1.406-0.578 1.313 0 2.359 0.508t1.594 1.586 0.547 2.906q0 1.453-0.75 3h2.75q1.625 0 2.812 1.188t1.188 2.797z" fill="#444444"></path>
</svg>
