<?xml version="1.0" encoding="utf-8"?>
<!-- Generated by IcoMoon.io -->
<!DOCTYPE svg PUBLIC "-//W3C//DTD SVG 1.1//EN" "http://www.w3.org/Graphics/SVG/1.1/DTD/svg11.dtd">
<svg version="1.1" xmlns="http://www.w3.org/2000/svg" xmlns:xlink="http://www.w3.org/1999/xlink" width="27" height="32" viewBox="0 0 27 32">
<path d="M13.281 3.188q2.719 0 5.094 1.031t4.141 2.797 2.797 4.141 1.031 5.094-1.031 5.094-2.797 4.156-4.141 2.813-5.094 1.031-5.094-1.031-4.156-2.813-2.813-4.156-1.031-5.094 1.031-5.094 2.813-4.141 4.156-2.797 5.094-1.031zM18.156 20.5q-1.188 0.719-2.344 0.719-0.656 0-1.156-0.281-0.406-0.25-0.563-0.656-0.063-0.188-0.031-0.563t0.031-1.031v-4.063h3.25v-2.469h-3.25v-3.25h-2.375q-0.125 1.094-0.531 1.875-0.406 0.75-1.063 1.25-0.344 0.281-0.828 0.469t-0.922 0.344v1.781h2.438v5.469q0 0.813 0.094 1.422t0.625 1.109q0.25 0.25 0.609 0.422t0.766 0.297q0.438 0.156 0.797 0.219t0.891 0.063q0.938 0 1.75-0.188 0.438-0.094 0.875-0.25t0.938-0.375v-2.313z" fill="#444444"></path>
</svg>
