<?xml version="1.0" encoding="utf-8"?>
<!-- Generated by IcoMoon.io -->
<!DOCTYPE svg PUBLIC "-//W3C//DTD SVG 1.1//EN" "http://www.w3.org/Graphics/SVG/1.1/DTD/svg11.dtd">
<svg version="1.1" xmlns="http://www.w3.org/2000/svg" xmlns:xlink="http://www.w3.org/1999/xlink" width="27" height="32" viewBox="0 0 27 32">
<path d="M13.25 3.156q2.719 0 5.094 1.031t4.156 2.797 2.813 4.141 1.031 5.094-1.031 5.094-2.813 4.156-4.156 2.813-5.094 1.031-5.094-1.031-4.141-2.813-2.797-4.156-1.031-5.094 1.031-5.094 2.797-4.141 4.141-2.797 5.094-1.031zM19.75 13.406q0.906-0.688 1.594-1.656-0.438 0.188-0.891 0.313t-0.953 0.188q0.5-0.313 0.875-0.766t0.531-0.984q-0.469 0.25-0.969 0.453t-1.031 0.297q-0.438-0.438-1.031-0.719t-1.313-0.281q-0.656 0-1.234 0.25t-1 0.688-0.672 1.016-0.25 1.234q0 0.188 0.016 0.375t0.047 0.344q-1.969-0.094-3.656-0.969t-2.875-2.344q-0.438 0.719-0.438 1.594 0 0.813 0.391 1.516t1.016 1.141q-0.813-0.063-1.438-0.406v0.031q0 1.188 0.734 2.047t1.828 1.078q-0.219 0.063-0.422 0.094t-0.422 0.031q-0.156 0-0.297-0.016t-0.297-0.047q0.313 0.938 1.109 1.563t1.859 0.625q-0.813 0.656-1.828 1.016t-2.109 0.359q-0.219 0-0.406-0.016t-0.375-0.047q1.063 0.688 2.297 1.063t2.578 0.375q2.188 0 3.875-0.828t2.828-2.125 1.734-2.906 0.594-3.172v-0.406z" fill="#444444"></path>
</svg>
