<?xml version="1.0" encoding="utf-8"?>
<!-- Generated by IcoMoon.io -->
<!DOCTYPE svg PUBLIC "-//W3C//DTD SVG 1.1//EN" "http://www.w3.org/Graphics/SVG/1.1/DTD/svg11.dtd">
<svg version="1.1" xmlns="http://www.w3.org/2000/svg" xmlns:xlink="http://www.w3.org/1999/xlink" width="27" height="32" viewBox="0 0 27 32">
<path d="M13.281 3.188q2.719 0 5.094 1.031t4.141 2.797 2.797 4.141 1.031 5.094-1.031 5.094-2.797 4.156-4.141 2.813-5.094 1.031-5.094-1.031-4.156-2.813-2.813-4.156-1.031-5.094 1.031-5.094 2.813-4.141 4.156-2.797 5.094-1.031zM20.531 13.469q0.219-1.094-0.109-1.766t-0.969-0.953-1.453-0.188-1.563 0.5-1.344 1.109-0.75 1.672q0.625-0.375 1.094-0.328t0.719 0.344 0.234 0.813-0.328 1.078q-0.625 1.156-1.172 1.844t-0.891 0.688q-0.313 0-0.578-0.719t-0.609-2.094q-0.188-0.688-0.313-1.578t-0.359-1.656-0.656-1.234-1.172-0.344q-0.719 0.156-1.484 0.672t-1.422 1.078q-0.781 0.656-1.5 1.469l0.594 0.75q0.344-0.25 0.688-0.406 0.281-0.156 0.547-0.188t0.422 0.125q0.094 0.125 0.281 0.625t0.422 1.203 0.5 1.516 0.5 1.563 0.453 1.344 0.344 0.844q0.188 0.344 0.5 0.703t0.719 0.578 0.875 0.25 1-0.281q0.5-0.313 1.516-1.141t2.078-2.031 1.969-2.703 1.219-3.156z" fill="#444444"></path>
</svg>
