<?xml version="1.0" encoding="utf-8"?>
<!-- Generator: Adobe Illustrator 18.0.0, SVG Export Plug-In . SVG Version: 6.00 Build 0)  -->
<!DOCTYPE svg PUBLIC "-//W3C//DTD SVG 1.1//EN" "http://www.w3.org/Graphics/SVG/1.1/DTD/svg11.dtd">
<svg version="1.1" id="Layer_1" xmlns="http://www.w3.org/2000/svg" xmlns:xlink="http://www.w3.org/1999/xlink" x="0px" y="0px"
	 viewBox="0 0 27 32" enable-background="new 0 0 27 32" xml:space="preserve">
<g>
	<path d="M0.8,16c0-0.2,0-0.4,0-0.6c0,0,0,0,0-0.1C1,15,1.3,14.8,1.7,14.8c0.5,0,1,0,1.5,0c1.4,0,2.8,0,4.2,0c0.7,0,1.4,0,2.2,0
		c0.1,0,0.2,0,0.2,0.1c0,0.1,0.1,0.1,0.1,0c0.3-0.3,0.6-0.6,0.8-0.9c1-1.3,1.8-2.7,2.6-4.2c0.1-0.1,0.1-0.2,0.1-0.4c0-0.3,0-0.6,0-1
		c0-0.7,0-1.5,0-2.2c0-0.1,0-0.1,0-0.1c0.3-0.5,0.8-0.8,1.3-0.9c0.2,0,0.3,0,0.5-0.1c0.1,0,0.1,0,0.2,0c0.1,0,0.2,0,0.3,0
		c0.4,0,0.8,0.1,1.1,0.3c0.1,0.1,0.2,0.2,0.3,0.3c0.4,0.7,0.8,1.5,1,2.2c0.2,0.7,0.4,1.4,0.3,2.2c0,0.4-0.1,0.9-0.2,1.3
		c-0.1,0.5-0.3,1.1-0.4,1.6c0,0.1,0,0.1,0.1,0.1c2.1,0,4.2,0,6.3,0c0.3,0,0.6,0.1,0.9,0.2c0.9,0.5,1.2,1.6,0.9,2.5
		c-0.2,0.4-0.4,0.8-0.8,1.1c0,0,0,0.1,0,0.1c0.2,0.4,0.3,0.7,0.2,1.2c-0.1,0.6-0.4,1-0.8,1.4c-0.1,0.1-0.1,0.1-0.1,0.2
		c0.1,0.4,0.2,0.8,0.1,1.2c-0.1,0.5-0.3,1-0.8,1.4c0,0-0.1,0.1,0,0.1c0.1,0.6,0.1,1.1-0.1,1.6c-0.2,0.6-0.6,1-1.1,1.3
		c-0.4,0.3-0.9,0.4-1.4,0.4c-3.2,0-6.4,0-9.6,0c-0.1,0-0.2,0-0.3,0c-0.4-0.1-0.7-0.3-1-0.6c0,0,0,0-0.1-0.1c0,0.2,0,0.3,0,0.5
		c0,0.1,0,0.2,0,0.3c-0.1,0.3-0.4,0.6-0.8,0.6c-2.4,0-4.7,0-7.1,0c0,0-0.1,0-0.1,0c-0.3-0.1-0.7-0.4-0.7-0.7c0-0.2,0-0.3,0-0.5
		c0-0.4-0.1-0.7-0.1-1.1c0-0.3,0-0.6-0.1-0.9c0-0.4-0.1-0.7-0.1-1.1c0-0.3,0-0.6-0.1-0.9c0-0.4-0.1-0.7-0.1-1.1c0-0.3,0-0.6-0.1-0.9
		C1,19.1,1,18.8,1,18.4c0-0.3,0-0.6-0.1-0.9c0-0.4-0.1-0.7-0.1-1.1C0.8,16.3,0.8,16.1,0.8,16z M16.6,25C16.6,25,16.6,25,16.6,25
		c1.6,0,3.2,0,4.7,0c0.1,0,0.3,0,0.4-0.1c0.4-0.2,0.7-0.5,1-0.8c0.1-0.2,0.3-0.4,0.3-0.7c0-0.3-0.1-0.6-0.4-0.8
		c-0.1-0.1-0.2-0.3-0.1-0.4c0-0.1,0.1-0.1,0.1-0.1c0.1,0,0.1,0,0.2-0.1c0.4-0.2,0.7-0.5,0.8-1c0.2-0.5,0.1-0.9-0.3-1.2
		c-0.2-0.1-0.1-0.4,0.1-0.5c0.3-0.1,0.5-0.3,0.7-0.5c0.3-0.3,0.4-0.7,0.3-1.1c0-0.3-0.2-0.5-0.4-0.7c-0.1-0.1-0.1-0.4,0.1-0.4
		c0.1,0,0.3-0.1,0.4-0.2c0.5-0.3,0.8-0.9,0.7-1.4c-0.1-0.6-0.5-0.9-1-0.9c-1,0-2,0-2.9,0c-1.5,0-3,0-4.4,0c-0.1,0-0.1,0-0.1-0.1
		c0,0,0,0,0,0c0.2-1,0.5-2.1,0.6-3.1c0-0.4,0.1-0.7,0.1-1.1c0-0.3-0.1-0.6-0.1-0.9c-0.2-0.9-0.6-1.7-0.9-2.5c0,0,0-0.1-0.1-0.1
		c-0.3-0.2-0.6-0.3-0.9-0.2c-0.3,0-0.5,0.1-0.8,0.3c-0.1,0-0.1,0.1-0.1,0.2c0,1.1,0,2.1,0,3.2c0,0.1,0,0.1,0,0.2
		c-0.3,0.6-0.7,1.3-1,1.9c-0.7,1.3-1.6,2.5-2.5,3.7c0,0.1-0.1,0.1-0.1,0.1c-0.4,0.3-0.8,0.5-1.2,0.8c-0.1,0-0.1,0.1-0.1,0.2
		c0,2.5,0,5,0,7.6c0,0,0,0,0,0.1c0,0,0,0.1,0.1,0.1c0.2,0,0.4,0,0.6,0c0.2,0,0.3,0,0.5,0.1c0.3,0.2,0.6,0.4,0.9,0.5
		c0.1,0,0.1,0.1,0.2,0.1c0.1,0,0.3,0,0.4,0c0.5,0,1,0,1.6,0C14.6,25,15.6,25,16.6,25z M6.7,24.9c0.4,0,0.7-0.3,0.7-0.7
		c0-0.4-0.3-0.7-0.7-0.7c-0.4,0-0.7,0.3-0.7,0.7C6,24.5,6.3,24.9,6.7,24.9z"/>
	<path fill="none" d="M15.2,5.1c-0.2,0-0.3,0-0.5,0.1c-0.6,0.1-1,0.4-1.3,0.9c0,0,0,0.1,0,0.1c0,0.7,0,1.5,0,2.2c0,0.3,0,0.6,0,1
		c0,0.1,0,0.2-0.1,0.4c-0.7,1.5-1.6,2.9-2.6,4.2c-0.3,0.3-0.5,0.6-0.8,0.9c-0.1,0.1-0.1,0.1-0.1,0c-0.1-0.1-0.1-0.1-0.2-0.1
		c-0.7,0-1.4,0-2.2,0c-1.4,0-2.8,0-4.2,0c-0.5,0-1,0-1.5,0c-0.4,0-0.7,0.2-0.9,0.6c0,0,0,0,0,0.1c0-3.4,0-6.8,0-10.3
		c0,0,0-0.1,0.1-0.1C5.6,5.1,10.4,5.1,15.2,5.1z"/>
	<path fill="none" d="M16.6,25c-1,0-1.9,0-2.9,0c-0.5,0-1,0-1.6,0c-0.1,0-0.3,0-0.4,0c-0.1,0-0.2,0-0.2-0.1
		c-0.3-0.2-0.6-0.3-0.9-0.5c-0.1-0.1-0.3-0.1-0.5-0.1c-0.2,0-0.4,0-0.6,0c0,0-0.1,0-0.1-0.1c0,0,0,0,0-0.1c0-2.5,0-5,0-7.6
		c0-0.1,0-0.1,0.1-0.2c0.4-0.3,0.8-0.5,1.2-0.8c0.1,0,0.1-0.1,0.1-0.1c0.9-1.2,1.7-2.4,2.5-3.7c0.4-0.6,0.7-1.3,1-1.9
		c0-0.1,0-0.1,0-0.2c0-1.1,0-2.1,0-3.2c0-0.1,0-0.1,0.1-0.2c0.2-0.2,0.5-0.2,0.8-0.3c0.3,0,0.6,0.1,0.9,0.2c0,0,0.1,0,0.1,0.1
		c0.4,0.8,0.7,1.6,0.9,2.5c0.1,0.3,0.1,0.6,0.1,0.9c0,0.4,0,0.7-0.1,1.1c-0.1,1-0.4,2.1-0.6,3.1c0,0,0,0,0,0c0,0.1,0,0.1,0.1,0.1
		c1.5,0,3,0,4.4,0c1,0,2,0,2.9,0c0.4,0,0.9,0.3,1,0.9c0.1,0.5-0.2,1.1-0.7,1.4c-0.1,0.1-0.2,0.1-0.4,0.2c-0.2,0-0.2,0.3-0.1,0.4
		c0.2,0.2,0.3,0.5,0.4,0.7c0.1,0.4,0,0.8-0.3,1.1c-0.2,0.2-0.4,0.4-0.7,0.5c-0.2,0.1-0.3,0.4-0.1,0.5c0.4,0.3,0.5,0.7,0.3,1.2
		c-0.2,0.4-0.4,0.7-0.8,1c-0.1,0-0.1,0.1-0.2,0.1c-0.1,0-0.1,0.1-0.1,0.1c-0.1,0.2,0,0.3,0.1,0.4c0.2,0.2,0.4,0.5,0.4,0.8
		c0,0.3-0.1,0.5-0.3,0.7c-0.2,0.3-0.6,0.6-1,0.8C21.5,25,21.4,25,21.3,25C19.7,25,18.1,25,16.6,25C16.6,25,16.6,25,16.6,25z"/>
	<path fill="none" d="M6.7,24.9c-0.4,0-0.7-0.3-0.7-0.7c0-0.4,0.3-0.7,0.7-0.7c0.4,0,0.7,0.3,0.7,0.7C7.4,24.6,7.1,24.9,6.7,24.9z
		 M6.5,24.4C6.6,24.4,6.6,24.4,6.5,24.4c0.1-0.1,0-0.2,0-0.2C6.5,24.2,6.5,24.3,6.5,24.4C6.5,24.4,6.5,24.4,6.5,24.4z M6.9,24.1
		C6.9,24.1,6.9,24.1,6.9,24.1c0.1-0.1,0.1-0.2,0-0.2C6.8,23.9,6.8,24,6.9,24.1C6.8,24.1,6.8,24.1,6.9,24.1z M6.9,24.4
		C6.9,24.4,6.9,24.4,6.9,24.4c0.1-0.1,0-0.2,0-0.2C6.8,24.2,6.8,24.3,6.9,24.4C6.8,24.4,6.8,24.4,6.9,24.4z M6.6,24
		C6.6,24,6.6,23.9,6.6,24c-0.1-0.1-0.2-0.1-0.2,0C6.5,24.1,6.5,24.1,6.6,24C6.6,24.1,6.6,24.1,6.6,24z"/>
	<path d="M6.5,24.4C6.5,24.4,6.5,24.4,6.5,24.4c-0.1-0.1-0.1-0.2,0-0.2C6.6,24.2,6.6,24.3,6.5,24.4C6.6,24.4,6.6,24.4,6.5,24.4z"/>
	<path d="M6.9,24.1C6.8,24.1,6.8,24.1,6.9,24.1c-0.1-0.1-0.1-0.2,0-0.2C6.9,23.9,6.9,24,6.9,24.1C6.9,24.1,6.9,24.1,6.9,24.1z"/>
	<path d="M6.9,24.4C6.8,24.4,6.8,24.4,6.9,24.4c-0.1-0.1-0.1-0.2,0-0.2C6.9,24.2,6.9,24.3,6.9,24.4C6.9,24.4,6.9,24.4,6.9,24.4z"/>
	<path d="M6.6,24C6.6,24.1,6.6,24.1,6.6,24c-0.1,0.1-0.2,0.1-0.2,0C6.5,24,6.5,23.9,6.6,24C6.6,23.9,6.6,24,6.6,24z"/>
</g>
</svg>
