<?xml version="1.0" encoding="utf-8"?>
<!-- Generated by IcoMoon.io -->
<!DOCTYPE svg PUBLIC "-//W3C//DTD SVG 1.1//EN" "http://www.w3.org/Graphics/SVG/1.1/DTD/svg11.dtd">
<svg version="1.1" xmlns="http://www.w3.org/2000/svg" xmlns:xlink="http://www.w3.org/1999/xlink" width="27" height="32" viewBox="0 0 27 32">
<path d="M13.281 3.188q2.719 0 5.094 1.031t4.141 2.797 2.797 4.141 1.031 5.094-1.031 5.094-2.797 4.156-4.141 2.813-5.094 1.031-5.094-1.031-4.156-2.813-2.813-4.156-1.031-5.094 1.031-5.094 2.813-4.141 4.156-2.797 5.094-1.031zM7.656 14.719q1.313-0.5 2.469-0.5 0.813 0 1.453 0.266t1.141 0.578l1.344-4.531q-0.219-0.125-0.688-0.359t-0.875-0.328q-0.469-0.125-1.094-0.125-0.563 0.031-1.172 0.156t-1.328 0.406zM8.313 20.281q0.875 0 1.516 0.266t1.172 0.609q0.125-0.406 0.328-1.063t0.391-1.344 0.359-1.281 0.266-0.906q-0.125-0.063-0.25-0.156t-0.25-0.156q-1.063-0.531-2-0.531-0.156 0-0.25 0.031-0.625 0.063-1.141 0.172t-0.859 0.266l-0.188 0.063t-0.219 0.063l-1.281 4.469q1.313-0.5 2.406-0.5zM18.844 17.844q-1.219 0.406-2.375 0.406-1.063 0-1.781-0.266t-1.188-0.609l-1.313 4.5q0.156 0.094 0.453 0.234t0.672 0.297 0.781 0.266 0.781 0.109q1.219 0 2.75-0.625zM20.625 11.781q-1.281 0.469-2.469 0.469-1 0-1.719-0.266t-1.188-0.609l-1.313 4.531q1.281 0.875 2.844 0.875 1.281 0 2.5-0.594v-0.031h0.063z" fill="#444444"></path>
</svg>
