<?xml version="1.0" encoding="utf-8"?>
<!-- Generated by IcoMoon.io -->
<!DOCTYPE svg PUBLIC "-//W3C//DTD SVG 1.1//EN" "http://www.w3.org/Graphics/SVG/1.1/DTD/svg11.dtd">
<svg version="1.1" xmlns="http://www.w3.org/2000/svg" xmlns:xlink="http://www.w3.org/1999/xlink" width="27" height="32" viewBox="0 0 27 32">
<path d="M13.281 3.188q2.719 0 5.094 1.031t4.141 2.797 2.797 4.141 1.031 5.094-1.031 5.094-2.797 4.156-4.141 2.813-5.094 1.031-5.094-1.031-4.156-2.813-2.813-4.156-1.031-5.094 1.031-5.094 2.813-4.141 4.156-2.797 5.094-1.031zM5.906 15.438q0 1.094 0.297 2.094t0.844 1.859 1.313 1.547 1.703 1.125l-3.5-9.625q-0.313 0.719-0.484 1.453t-0.172 1.547zM13.281 22.781q1.313 0 2.438-0.406-0.063-0.063-0.063-0.094l-2.25-6.188-2.219 6.406q0.969 0.281 2.094 0.281zM16.938 19.906l0.75-2.469q0.531-1.438 0.531-2.375 0-0.688-0.188-1.172t-0.406-0.859q-0.281-0.438-0.5-0.859t-0.219-0.859q0-0.5 0.344-0.906t0.875-0.406q0.031 0 0.047 0.016t0.047 0.016q-0.969-0.906-2.234-1.422t-2.703-0.516q-1.969 0-3.563 0.906t-2.594 2.406h1.094t0.656-0.031l0.688-0.063q0.125 0 0.219 0.078t0.094 0.188-0.063 0.219-0.219 0.109q-0.125 0-0.25 0.031-0.313 0.063-0.594 0.063l2.688 7.969 1.625-4.844-1.156-3.125q-0.156 0-0.281-0.016t-0.25-0.047-0.25-0.031q-0.156 0-0.219-0.094t-0.047-0.219 0.094-0.203 0.234-0.078l0.688 0.063q0.281 0.031 0.625 0.031h1.234t0.641-0.031l0.688-0.063q0.156 0 0.234 0.078t0.094 0.188-0.047 0.219-0.219 0.109q-0.125 0-0.25 0.031-0.313 0.063-0.594 0.063zM16.969 21.781q1.656-0.938 2.656-2.609t1-3.734q0-0.969-0.234-1.844t-0.672-1.688q0.031 0.188 0.047 0.375t0.016 0.375q0 0.563-0.125 1.203t-0.438 1.453z" fill="#444444"></path>
</svg>
