<?xml version="1.0" encoding="utf-8"?>
<!-- Generator: Adobe Illustrator 16.0.0, SVG Export Plug-In . SVG Version: 6.00 Build 0)  -->
<!DOCTYPE svg PUBLIC "-//W3C//DTD SVG 1.1//EN" "http://www.w3.org/Graphics/SVG/1.1/DTD/svg11.dtd">
<svg version="1.1" id="Layer_1" xmlns="http://www.w3.org/2000/svg" xmlns:xlink="http://www.w3.org/1999/xlink" x="0px" y="0px"
	 width="517.266px" height="512px" viewBox="-18.75 0 517.266 512" enable-background="new -18.75 0 517.266 512"
	 xml:space="preserve">
<g id="yahoo">
	<g>
		<path d="M233.293,186.44l10.164,5.502l33.635,1.835c0,0,2.797,10.04-4.6,15.542c-7.368,5.44-72.805,81.072-72.805,81.072
			l-82.937-128.26c0,0,1.834-2.734,13.803-2.734c11.998,0,41.064,0,41.064,0v-31.024H-18.75v31.924c0,0,29.501,0,41.501,0
			c11.967,0,25.768,12.808,37.769,24.682c11.999,11.875,78.521,126.427,78.521,126.427l1.866,58.781c0,0-0.933,16.91-24.9,16.91
			c-23.966,0-33.169,1.834-33.169,1.834v27.479h199.789v-25.708c0,0-5.533-6.403-10.133-6.403c-4.635,0-43.459,0-48.992,0
			c-5.502,0-7.368-6.403-7.368-14.608c0-8.207,0-53.748,0-53.748l110.758-113.059c0,0,16.568-10.01,28.536-10.01
			c11.998,0,27.636,0,27.636,0l10.166-30.898H231.459L233.293,186.44z M447.349,333.011l51.167-168.983l-71.621-5.471l0.062,172.618
			L447.349,333.011z M395.748,415.605h61.517l3.017-59.405l-64.532,1.553L395.748,415.605L395.748,415.605z"/>
	</g>
</g>
</svg>
