<?xml version="1.0" encoding="utf-8"?>
<!-- Generator: Adobe Illustrator 16.0.0, SVG Export Plug-In . SVG Version: 6.00 Build 0)  -->
<!DOCTYPE svg PUBLIC "-//W3C//DTD SVG 1.1//EN" "http://www.w3.org/Graphics/SVG/1.1/DTD/svg11.dtd">
<svg version="1.1" id="Layer_1" xmlns="http://www.w3.org/2000/svg" xmlns:xlink="http://www.w3.org/1999/xlink" x="0px" y="0px"
	 width="417.269px" height="512px" viewBox="0 0 417.269 512" enable-background="new 0 0 417.269 512" xml:space="preserve">
<g id="yelp">
	<g>
		<path d="M184.08,226.061c14.777,1.031,25.244-8.999,25.244-26.307c0-17.28,6.499-182.625-7.215-194.528
			C188.391-6.648,134.713,4.758,119.966,9.6C88.597,19.847,53.727,35.844,53.008,49.561
			C52.258,63.247,169.331,224.966,184.08,226.061z M346.674,126.704c-12.246,0.374-105.199,111.636-89.701,132.539
			c9.654,12.998,20.869,11.56,47.209,6.499c26.276-5.03,111.262-20.903,113.042-42.524
			C419.006,201.628,367.922,126.704,346.674,126.704z M164.115,291.454c0-14.402-44.649-34.618-44.649-34.618
			s-81.799-35.275-96.92-33.87c-15.124,1.47-21.028,40.368-22.309,68.487C-3.356,370.66,35.168,350.1,35.168,350.1
			s81.049-25.9,96.922-31.65C147.897,312.671,164.115,305.828,164.115,291.454z M204.324,347.039
			c-18.684-1.844-39.993,31.684-51.491,44.648c-11.56,12.998-56.207,58.738-56.551,70.988
			c-0.376,12.246,23.746,25.212,56.927,37.462c33.118,12.246,70.55,20.902,72.019-5.438c1.405-26.275,0-100.105,0-108.387
			C225.228,378.032,225.946,349.195,204.324,347.039z M390.291,354.852c-17.309-6.123-112.354-48.615-128.945-30.619
			c-10.53,11.467-3.969,30.242,7.156,48.303c11.186,17.997,51.553,78.859,51.553,78.859s7.187,16.188,19.777,16.188
			c12.623,0,37.492-23.56,50.086-41.15c12.623-17.59,25.557-38.771,25.557-50.334C415.475,364.566,407.57,360.975,390.291,354.852z"
			/>
	</g>
</g>
</svg>
