<?xml version="1.0" encoding="utf-8"?>
<!-- Generated by IcoMoon.io -->
<!DOCTYPE svg PUBLIC "-//W3C//DTD SVG 1.1//EN" "http://www.w3.org/Graphics/SVG/1.1/DTD/svg11.dtd">
<svg version="1.1" xmlns="http://www.w3.org/2000/svg" xmlns:xlink="http://www.w3.org/1999/xlink" width="27" height="32" viewBox="0 0 27 32">
<path d="M19.063 19.156q0.25 0 0.344 0.156 0.125 0.125 0.125 0.438v0.531h-0.938v-0.531q0-0.281 0.094-0.438 0.156-0.156 0.375-0.156zM15.406 19.156q0.219 0 0.313 0.125 0.125 0.125 0.125 0.375v2.625q0 0.25-0.094 0.344-0.094 0.125-0.281 0.125-0.125 0-0.25-0.063-0.156-0.063-0.25-0.188v-3.156q0.125-0.125 0.219-0.156 0.063-0.031 0.219-0.031zM13.281 3.188q2.719 0 5.094 1.031t4.141 2.797 2.797 4.141 1.031 5.094-1.031 5.094-2.797 4.156-4.141 2.813-5.094 1.031-5.094-1.031-4.156-2.813-2.813-4.156-1.031-5.094 1.031-5.094 2.813-4.141 4.156-2.797 5.094-1.031zM9.594 16.594h-3.688v1h1.25v5.875h1.188v-5.875h1.25v-1zM9.625 13.344l1.563-4.438h-1.375l-0.813 3.031h-0.094l-0.875-3.031h-1.344l1.594 4.563v3h1.344v-3.125zM13.094 18.406h-1.063v3.844q-0.063 0.094-0.156 0.156l-0.188 0.125q-0.188 0.094-0.281 0.094-0.156 0-0.219-0.063t-0.063-0.281v-3.875h-1.063v4.25q0 0.438 0.188 0.656 0.188 0.25 0.531 0.25 0.281 0 0.625-0.188 0.281-0.125 0.625-0.469v0.563h1.063v-5.063zM13 16.594q0.844 0 1.281-0.406 0.469-0.375 0.469-1.125v-2.875q0-0.594-0.469-1.031-0.438-0.406-1.219-0.406-0.813 0-1.281 0.375-0.5 0.375-0.5 1.031v2.906q0 0.719 0.469 1.125 0.438 0.406 1.25 0.406zM16.938 19.625q0-0.625-0.281-0.969-0.219-0.313-0.75-0.313-0.281 0-0.5 0.125-0.25 0.094-0.438 0.344v-2.219h-1.094v6.875h1.094v-0.375q0.094 0.125 0.203 0.203t0.234 0.141q0.219 0.094 0.563 0.094 0.469 0 0.719-0.281 0.25-0.313 0.25-0.813v-2.813zM16.563 16.531q0.375 0 0.688-0.156t0.688-0.531v0.625h1.188v-5.594h-1.188v4.25q-0.125 0.156-0.375 0.313-0.188 0.094-0.313 0.094-0.219 0-0.25-0.094-0.094-0.094-0.094-0.281v-4.281h-1.188v4.688q0 0.5 0.219 0.719 0.156 0.25 0.625 0.25zM20.625 19.781q0-0.75-0.406-1.125-0.375-0.375-1.125-0.375-0.719 0-1.156 0.406-0.438 0.438-0.438 1.094v2.25q0 0.75 0.406 1.156 0.438 0.438 1.125 0.438 0.781 0 1.188-0.406 0.406-0.375 0.406-1.188v-0.25h-1.094v0.219q0 0.469-0.094 0.594-0.125 0.125-0.375 0.125-0.313 0-0.375-0.156-0.094-0.125-0.094-0.563v-0.938h2.031v-1.281zM13 11.719q0.219 0 0.406 0.094 0.125 0.125 0.125 0.313v3.031q0 0.25-0.125 0.344-0.125 0.125-0.406 0.125-0.25 0-0.344-0.125-0.156-0.094-0.156-0.344v-3.031q0-0.156 0.156-0.313 0.125-0.094 0.344-0.094z" fill="#444444"></path>
</svg>
