<?xml version="1.0" encoding="utf-8"?>
<!-- Generator: Adobe Illustrator 16.0.0, SVG Export Plug-In . SVG Version: 6.00 Build 0)  -->
<!DOCTYPE svg PUBLIC "-//W3C//DTD SVG 1.1//EN" "http://www.w3.org/Graphics/SVG/1.1/DTD/svg11.dtd">
<svg version="1.1" id="Layer_1" xmlns="http://www.w3.org/2000/svg" xmlns:xlink="http://www.w3.org/1999/xlink" x="0px" y="0px"
	 width="800px" height="560px" viewBox="0 0 800 560" enable-background="new 0 0 800 560" xml:space="preserve">
<path fill="#E24500" d="M232.021,137.738C370.17,26.044,556.755-29.25,731.873,145.872c13.46,13.456,38.564,72.709,35.504,147.888
	c-3.958,97.514-42.389,203.782-180.758,193.688C341.615,469.589,8.667,608.971,20.527,446.206
	C25.369,379.688,109.712,236.62,232.021,137.738"/>
<g>
	<path fill="#EBE9E8" d="M458.115,372.576c0-32.484,16.576-73.975,22.122-73.975c3.46,0,20.745,104.412,118.925,104.412
		c28.354,0,61.545-14.511,61.545-49.787c0-71.227-186.703-52.56-186.703-190.151c0-84.38,67.761-130.005,142.443-130.005
		c86.438,0,134.161,51.867,134.161,65.687c0,13.134-38.734,69.146-54.624,69.146c-17.992,0-22.14-53.235-85.753-53.235
		c-21.433,0-50.476,9.669-50.476,30.421c0,71.225,201.904,69.848,201.904,210.201c0,89.901-74.682,141.065-157.66,141.065
		C530.714,496.356,458.115,453.491,458.115,372.576z"/>
</g>
<circle fill="#EBE9E8" cx="94.872" cy="447.725" r="28.999"/>
<rect x="92.464" y="418.396" transform="matrix(0.6519 0.7583 -0.7583 0.6519 372.2915 83.9378)" fill="#C13505" width="4.504" height="58.184"/>
</svg>
