<?xml version="1.0" encoding="utf-8"?>
<!-- Generator: Adobe Illustrator 16.0.0, SVG Export Plug-In . SVG Version: 6.00 Build 0)  -->
<!DOCTYPE svg PUBLIC "-//W3C//DTD SVG 1.1//EN" "http://www.w3.org/Graphics/SVG/1.1/DTD/svg11.dtd">
<svg version="1.1" id="Layer_1" xmlns="http://www.w3.org/2000/svg" xmlns:xlink="http://www.w3.org/1999/xlink" x="0px" y="0px"
	 width="149.068px" height="189.406px" viewBox="0 0 149.068 189.406" enable-background="new 0 0 149.068 189.406"
	 xml:space="preserve">
<path fill="#CC4940" d="M21.396,162.217c0,0-2.153-2.352-5.094-6.658c-8.821-12.92-24.724-43.426-10.828-80.771
	c1.695-4.555,4.102-9.215,6.979-13.988c0.948-1.569,1.953-3.15,2.809-4.26c1.255-2.125,0.22,5.072,0.564,12.912
	c3.526-11.275,4.407,32.274,10.885,0.508c-2.406-20.429,0.674-21.949,0.717-26.896c-0.316-3.16,0.975-4.679,2.268-6.176
	c1.349-1.508,2.757-3.002,4.222-4.489C44.183,21.986,57.415,11.894,74.669,0c0,0,14.078,8.706,32.438,24.97
	c2.295,2.033,4.605,4.197,6.91,6.502c1.154,1.152,2.301,2.335,3.426,3.521c1.173,1.262,2.207,2.336,3.293,3.538
	c1.295,1.586,2.183,2.46,2.841,4.452c0.952,0.542,0.209,4.889,0.305,8.404c1.068-0.031,0.262,7.197,0.557,12.847
	c2.599-10.483,1.926,20.124,4.086,29.085c1.646-28.387,3.238-2.197,4.64-9.271c-1.154-23.619,1.08-9.494,1.461-14.088
	c-1.244-13.603,0.438-6.592,0.562-8.814c-0.069-3.159,1.137-2.3,2.306-0.348c0.682,2.33,2.307,4.02,3.391,6.107
	c0.133,1.488,1.838,3.714,2.602,5.436c-0.159,0.82,1.384,3.271,1.927,4.795c-0.23,0.531,0.979,2.922,1.364,4.352
	c-0.146,0.604,0.709,2.825,0.982,4.266c-0.045,0.842,0.51,2.909,0.684,4.418c-0.03,0.775,0.232,2.273,0.314,3.475
	c0.029,1.066,0.149,2.458,0.197,3.779c0.057,1.338,0.098,2.762,0.118,4.25c0.021,1.486,0.019,3.039-0.002,4.666
	c-0.19,14.975-6.176,33.463-20.266,54.621c0,0-1.064,0.324-1.986,1.633c-9.688-4.924-3.021,3.941-5.83,7.115
	c-19.19-15.244-5.748,5.357-11.196,9.365c-15.381-19.936-8.412,4.643-15.138,7.256c-10.883-19.748-12.008,2.639-20.465,3.074
	c-3.096-27.912-16.885-2.586-25.524-5.846c4.075-21.103-10.767-6.353-15.334-10.039c8.885-14.285-5.363-5.371-7.285-7.646
	C31.06,158.932,23.444,162.455,21.396,162.217z"/>
<path fill="#DB5E56" d="M20.858,158.398c6.867-4.086-1.52-2.722-3.711-7.334c4.113-4.213-1.917-5.103-2.867-8.271
	c2.822-3.918-1.42-6.59-1.907-10.321c0.686-3.646-0.519-7.441-1.443-11.527c-0.944-4.09-1.647-8.473-1.923-13.111
	C8.456,98.557,9.62,88.262,13.7,77.295c0.994-2.675,2.175-4.857,2.603,0.334c1.664-8.115,1.102,11.359,2.438,19.623
	c1.948-18.171,3.418,4.891,5.801-3.805c-0.627-20.959,1.403-12.158,1.938-19.382c-1.141-14.078,0.607-12.386,0.744-16.278
	c-0.004-3.443,0.656-4.504,1.269-5.739c0.998-1.394,2.039-2.765,3.129-4.12c9.809-12.193,23.491-23.042,43.032-36.512
	c0,0,12.402,7.668,28.574,21.996c1.265,1.12,2.533,2.284,3.803,3.495c1.271,1.211,2.541,2.471,3.794,3.767
	c1.282,1.323,2.407,2.565,3.571,3.905c1.465,1.583,2.31,2.74,3.453,4.211c1.734,1.875,2.248,2.984,3.32,4.564
	c2.029,2.148,2.162,3.332,2.932,6.906c1.355,0.034,0.81,10.922,1.219,15.693c1.177-4.323,0.845,7.459,1.656,12.359
	c1.783-15.156,2.604,6.299,3.604,5.74c0.407-17.678,1.336-3.348,2.032-6.521c0.73-15.357,1.507-10.469,2.261-10.332
	c1.041,0.468,1.686,3.591,2.321,5.26c0.607,0.415,1.125,3.224,1.527,4.855c0.375,0.827,0.713,3.318,0.943,5.107
	c0.207,1.391,0.373,3.656,0.455,5.705c0.082,2.076,0.104,4.414,0.069,6.967c-0.057,4.396-0.68,9.136-1.942,14.191
	c-0.636,2.528,0.037,5.098,0.043,7.868c-3.115,2.671-0.361,5.851-0.785,9.029c-6.045,2.082-1.441,6.707-2.551,10.336
	c-7.576,1.06-2.97,7.267-4.963,11.058c-7.652-4.371-0.355,0.614-1.072,1.803c-16.865-9.073-2.437,3.668-4.84,6.812
	c-18.742-13.869-3.326,3.76-6.353,6.715c-16.41-14.08-6.272,5.037-11.895,8.562c-15.123-23.446-10.164,4.522-20.179,7.068
	c-10.61-32.271-20.256,0.108-28.354-1.716c2.588-23.924-11.947-4.911-18.643-9.062c11.713-22.94-10.15-9.006-13.449-12.944
	C35.603,152.791,21.677,159.738,20.858,158.398z"/>
<g>
	<g enable-background="new    ">
		<path fill="#FFFFFF" d="M48.808,130.736c5.35,3.498,14.814,7.201,23.867,7.201c13.168,0,19.34-6.584,19.34-14.813
			c0-8.642-5.144-13.374-18.517-18.312c-17.9-6.379-26.336-16.255-26.336-28.188c0-16.048,12.962-29.216,34.36-29.216
			c10.082,0,18.929,2.88,24.484,6.172l-4.526,13.168c-3.909-2.469-11.11-5.761-20.369-5.761c-10.699,0-16.666,6.173-16.666,13.579
			c0,8.23,5.967,11.934,18.93,16.872c17.282,6.584,26.13,15.226,26.13,30.039c0,17.489-13.579,29.834-37.241,29.834
			c-10.905,0-20.987-2.675-27.982-6.79L48.808,130.736z"/>
	</g>
</g>
</svg>
