<?xml version="1.0" encoding="utf-8"?>
<!-- Generator: Adobe Illustrator 16.0.0, SVG Export Plug-In . SVG Version: 6.00 Build 0)  -->
<!DOCTYPE svg PUBLIC "-//W3C//DTD SVG 1.1//EN" "http://www.w3.org/Graphics/SVG/1.1/DTD/svg11.dtd">
<svg version="1.1" id="Layer_1" xmlns="http://www.w3.org/2000/svg" xmlns:xlink="http://www.w3.org/1999/xlink" x="0px" y="0px"
	 width="148.951px" height="200px" viewBox="0 0 148.951 200" enable-background="new 0 0 148.951 200" xml:space="preserve">
<path fill="#C60956" d="M21.396,167.766c-0.001,0-2.154-2.352-5.094-6.658c-8.821-12.92-24.725-43.426-10.828-80.772
	c1.695-4.555,4.101-9.214,6.979-13.989c0.95-1.569,1.953-3.15,2.809-4.26c1.255-2.125,0.22,5.073,0.563,12.913
	c3.528-11.275,4.41,32.275,10.886,0.507c-2.407-20.429,0.674-21.95,0.716-26.897c-0.317-3.159,0.974-4.678,2.267-6.176
	c1.349-1.507,2.756-3.001,4.222-4.489c10.268-10.412,23.5-20.504,40.754-32.397c0,0,14.078,8.706,32.438,24.97
	c2.294,2.033,4.604,4.197,6.91,6.503c1.154,1.152,2.301,2.334,3.426,3.521c1.171,1.262,2.207,2.336,3.293,3.538
	c1.295,1.586,2.181,2.46,2.839,4.452c0.953,0.542,0.21,4.888,0.305,8.405c1.068-0.031,0.263,7.197,0.558,12.846
	c2.597-10.483,1.925,20.124,4.085,29.085c1.647-28.387,3.239-2.197,4.639-9.271c-1.153-23.62,1.081-9.495,1.461-14.089
	c-1.243-13.602,0.44-6.592,0.562-8.814c-0.069-3.159,1.138-2.3,2.306-0.348c0.682,2.331,2.307,4.021,3.391,6.108
	c0.132,1.488,1.838,3.713,2.601,5.435c-0.16,0.82,1.384,3.271,1.927,4.795c-0.23,0.532,0.979,2.923,1.365,4.352
	c-0.147,0.604,0.709,2.825,0.982,4.265c-0.046,0.842,0.51,2.91,0.683,4.418c-0.031,0.775,0.233,2.274,0.315,3.474
	c0.029,1.067,0.149,2.46,0.197,3.779c0.056,1.339,0.098,2.762,0.118,4.25c0.021,1.487,0.019,3.04-0.001,4.667
	c-0.191,14.974-6.177,33.462-20.267,54.62c0,0-1.064,0.324-1.986,1.633c-9.688-4.924-3.021,3.942-5.83,7.116
	c-19.191-15.245-5.747,5.356-11.196,9.364c-15.382-19.935-8.413,4.643-15.137,7.256c-10.884-19.747-12.009,2.639-20.465,3.074
	c-3.096-27.911-16.886-2.585-25.526-5.846c4.076-21.102-10.764-6.351-15.333-10.038c8.883-14.286-5.364-5.371-7.287-7.645
	C31.061,164.479,23.445,168.003,21.396,167.766z"/>
<path fill="#D31C5D" d="M20.858,163.946c6.868-4.086-1.518-2.721-3.709-7.334c4.113-4.213-1.918-5.101-2.867-8.27
	c2.821-3.918-1.42-6.59-1.908-10.322c0.685-3.646-0.518-7.441-1.444-11.527c-0.944-4.09-1.647-8.473-1.922-13.111
	c-0.549-9.276,0.614-19.572,4.695-30.538c0.995-2.675,2.176-4.858,2.604,0.333c1.664-8.114,1.101,11.36,2.437,19.623
	c1.949-18.17,3.419,4.891,5.8-3.805c-0.626-20.959,1.405-12.157,1.938-19.381c-1.141-14.078,0.606-12.386,0.744-16.278
	c-0.004-3.443,0.657-4.504,1.268-5.74c0.997-1.393,2.039-2.765,3.129-4.12c9.808-12.194,23.493-23.042,43.034-36.512
	c0,0,12.401,7.668,28.574,21.996c1.263,1.12,2.532,2.284,3.802,3.496c1.271,1.211,2.541,2.47,3.794,3.766
	c1.282,1.323,2.407,2.566,3.571,3.906c1.466,1.583,2.309,2.739,3.453,4.21c1.734,1.875,2.248,2.985,3.32,4.565
	c2.03,2.147,2.163,3.332,2.933,6.906c1.354,0.034,0.809,10.922,1.219,15.693c1.176-4.323,0.843,7.458,1.656,12.359
	c1.783-15.157,2.604,6.299,3.604,5.74c0.408-17.677,1.336-3.346,2.033-6.521c0.73-15.357,1.506-10.468,2.259-10.332
	c1.041,0.468,1.687,3.591,2.322,5.26c0.607,0.415,1.125,3.224,1.527,4.855c0.375,0.828,0.713,3.319,0.944,5.107
	c0.206,1.391,0.373,3.657,0.454,5.705c0.083,2.077,0.104,4.415,0.07,6.967c-0.057,4.396-0.679,9.136-1.943,14.192
	c-0.634,2.529,0.037,5.097,0.044,7.869c-3.116,2.669-0.362,5.85-0.786,9.029c-6.044,2.081-1.441,6.706-2.55,10.336
	c-7.576,1.058-2.97,7.265-4.963,11.056c-7.652-4.37-0.356,0.615-1.073,1.803c-16.864-9.073-2.436,3.668-4.839,6.812
	c-18.743-13.869-3.327,3.759-6.352,6.715c-16.411-14.081-6.273,5.037-11.895,8.562c-15.123-23.447-10.164,4.523-20.179,7.067
	c-10.61-32.271-20.255,0.109-28.355-1.715c2.588-23.923-11.948-4.911-18.642-9.062c11.712-22.94-10.152-9.005-13.451-12.945
	C35.603,158.339,21.678,165.287,20.858,163.946z"/>
<g>
	<text transform="matrix(1 0 0 1 36.2568 154.8027)" fill="#FFFFFF" font-family="'MyriadPro-Regular'" font-size="205.7448">s</text>
</g>
</svg>
