<?xml version="1.0" encoding="utf-8"?>
<!-- Generator: Adobe Illustrator 18.0.0, SVG Export Plug-In . SVG Version: 6.00 Build 0)  -->
<!DOCTYPE svg PUBLIC "-//W3C//DTD SVG 1.1//EN" "http://www.w3.org/Graphics/SVG/1.1/DTD/svg11.dtd">
<svg version="1.1" id="Layer_1" xmlns="http://www.w3.org/2000/svg" xmlns:xlink="http://www.w3.org/1999/xlink" x="0px" y="0px"
	 viewBox="0 0 18 54" enable-background="new 0 0 18 54" xml:space="preserve">
<path fill="#5187C6" d="M14,53H4c-1.7,0-3-1.4-3-3V40c0-1.7,1.4-3,3-3h10c1.7,0,3,1.4,3,3v10C17,51.7,15.7,53,14,53z"/>
<g>
	<path fill="#FFFFFF" d="M14.2,43.6L8.9,49c-0.5,0.5-1,0.5-1.4,0l-2.7-2.7c-0.5-0.5-0.5-1,0-1.4s1-0.5,1.4,0l2,2l4.5-4.5
		c0.5-0.5,1-0.5,1.4,0C14.6,42.6,14.6,43.3,14.2,43.6z"/>
</g>
<g>
	<path fill="#DCDCDC" d="M14.1,17.1H3.9c-1.7,0-3-1.3-3-3V3.9c0-1.7,1.3-3,3-3h10.3c1.7,0,3,1.3,3,3v10.3
		C17.1,15.8,15.8,17.1,14.1,17.1z"/>
	<path fill="#FFFFFF" d="M14,16.4H4c-1.3,0-2.4-1.1-2.4-2.4V4c0-1.3,1.1-2.4,2.4-2.4H14c1.3,0,2.4,1.1,2.4,2.4V14
		C16.4,15.3,15.3,16.4,14,16.4z"/>
</g>
<g>
	<path fill="#DCDCDC" d="M14,35H4c-1.7,0-3-1.4-3-3V22c0-1.7,1.4-3,3-3h10c1.7,0,3,1.4,3,3v10C17,33.7,15.7,35,14,35z"/>
	<path fill="#EEEEEE" d="M13.7,34.2H4.3c-1.4,0-2.5-1.1-2.5-2.5v-9.4c0-1.4,1.1-2.5,2.5-2.5h9.4c1.4,0,2.5,1.1,2.5,2.5v9.4
		C16.2,33.1,15.1,34.2,13.7,34.2z"/>
</g>
</svg>
