<?xml version="1.0" encoding="UTF-8"?>
<svg width="150px" height="190px" viewBox="0 0 150 190" version="1.1" xmlns="http://www.w3.org/2000/svg" xmlns:xlink="http://www.w3.org/1999/xlink">
    <!-- Generator: Sketch 41 (35326) - http://www.bohemiancoding.com/sketch -->
    <title>logo</title>
    <desc>Created with Sketch.</desc>
    <defs></defs>
    <g id="Page-1" stroke="none" stroke-width="1" fill="none" fill-rule="evenodd">
        <g id="logo">
            <path d="M21.7,162.2 C21.7,162.2 19.5,159.8 16.6,155.5 C7.8,142.6 -8.1,112.1 5.8,74.8 C7.5,70.2 9.9,65.6 12.8,60.8 C13.7,59.2 14.8,57.7 15.6,56.5 C16.9,54.4 15.8,61.6 16.2,69.4 C19.7,58.1 20.6,101.7 27.1,69.9 C24.7,49.5 27.8,48 27.8,43 C27.5,39.8 28.8,38.3 30.1,36.8 C31.5,35.3 32.9,33.8 34.3,32.3 C44.5,22 57.7,11.9 75,0 C75,0 89.1,8.7 107.4,25 C109.7,27 112,29.2 114.3,31.5 C115.5,32.7 116.6,33.8 117.7,35 C118.9,36.3 119.9,37.3 121,38.5 C122.3,40.1 123.2,41 123.8,43 C124.8,43.5 124,47.9 124.1,51.4 C125.2,51.4 124.4,58.6 124.7,64.2 C127.3,53.7 126.6,84.3 128.8,93.3 C130.4,64.9 132,91.1 133.4,84 C132.2,60.4 134.5,74.5 134.9,69.9 C133.7,56.3 135.3,63.3 135.5,61.1 C135.4,57.9 136.6,58.8 137.8,60.8 C138.5,63.1 140.1,64.8 141.2,66.9 C141.3,68.4 143,70.6 143.8,72.3 C143.6,73.1 145.2,75.6 145.7,77.1 C145.5,77.6 146.7,80 147.1,81.5 C147,82.1 147.8,84.3 148.1,85.8 C148.1,86.6 148.6,88.7 148.8,90.2 C148.8,91 149,92.5 149.1,93.7 C149.1,94.8 149.2,96.2 149.3,97.5 C149.4,98.8 149.4,100.3 149.4,101.7 L149.4,106.4 C149.2,121.4 143.2,139.9 129.1,161 C129.1,161 128,161.3 127.1,162.6 C117.4,157.7 124.1,166.5 121.3,169.7 C102.1,154.5 115.6,175.1 110.1,179.1 C94.7,159.2 101.7,183.7 95,186.4 C84.1,166.7 83,189 74.5,189.5 C71.4,161.6 57.6,186.9 49,183.7 C53.1,162.6 38.2,177.3 33.7,173.7 C42.6,159.4 28.3,168.3 26.4,166.1 C31.4,158.9 23.8,162.5 21.7,162.2 Z" id="Shape" fill="#4A89DC"></path>
            <path d="M21.2,158.4 C28.1,154.3 19.7,155.7 17.5,151.1 C21.6,146.9 15.6,146 14.6,142.8 C17.4,138.9 13.2,136.2 12.7,132.5 C13.4,128.9 12.2,125.1 11.3,121 C10.4,116.9 9.7,112.5 9.4,107.9 C8.8,98.6 10,88.3 14,77.3 C15,74.6 16.2,72.4 16.6,77.6 C18.3,69.5 17.7,89 19,97.2 C20.9,79 22.4,102.1 24.8,93.4 C24.2,72.4 26.2,81.2 26.7,74 C25.6,59.9 27.3,61.6 27.4,57.7 C27.4,54.3 28.1,53.2 28.7,52 C29.7,50.6 30.7,49.2 31.8,47.9 C41.6,35.7 55.3,24.9 74.8,11.4 C74.8,11.4 87.2,19.1 103.4,33.4 C104.7,34.5 105.9,35.7 107.2,36.9 C108.5,38.1 109.7,39.4 111,40.7 C112.3,42 113.4,43.3 114.6,44.6 C116.1,46.2 116.9,47.3 118.1,48.8 C119.8,50.7 120.3,51.8 121.4,53.4 C123.4,55.5 123.6,56.7 124.3,60.3 C125.7,60.3 125.1,71.2 125.5,76 C126.7,71.7 126.3,83.5 127.2,88.4 C129,73.2 129.8,94.7 130.8,94.1 C131.2,76.4 132.1,90.8 132.8,87.6 C133.5,72.2 134.3,77.1 135.1,77.3 C136.1,77.8 136.8,80.9 137.4,82.6 C138,83 138.5,85.8 138.9,87.5 C139.3,88.3 139.6,90.8 139.8,92.6 C140,94 140.2,96.3 140.3,98.3 C140.4,100.4 140.4,102.7 140.4,105.3 C140.3,109.7 139.7,114.4 138.5,119.5 C137.9,122 138.5,124.6 138.5,127.4 C135.4,130.1 138.1,133.3 137.7,136.4 C131.7,138.5 136.3,143.1 135.1,146.7 C127.5,147.8 132.1,154 130.1,157.8 C122.4,153.4 129.7,158.4 129,159.6 C112.1,150.5 126.6,163.3 124.2,166.4 C105.5,152.5 120.9,170.2 117.8,173.1 C101.4,159 111.5,178.1 105.9,181.7 C91,158 96,186 86,188.5 C75.4,156.2 65.7,188.6 57.6,186.8 C60.2,162.9 45.7,181.9 39,177.7 C50.7,154.8 28.8,168.7 25.5,164.8 C35.9,152.8 22,159.7 21.2,158.4 Z" id="Shape" fill="#5D9CEC"></path>
            <path d="M48.5,130 C49.8,128.2 52.2,127.9 53.9,129.2 C60.3,134.1 67.1,137.3 75.9,137.3 C87.1,137.3 92.7,131.1 92.7,123.5 C92.7,114.4 82.5,110.4 73.3,106.8 C61.2,102.3 47.9,96.3 47.9,81.3 C47.9,67.1 58.8,56.2 77.1,56.2 C86.1,56.2 94,59.4 100.2,63.7 C102.1,65 102.5,67.6 101.2,69.5 L99,72.5 C97.8,74.2 95.5,74.6 93.8,73.4 C88.9,70 83.6,67.8 77.4,67.8 C66.7,67.8 61.8,73.8 61.8,80.5 C61.8,88.9 71.1,92 80.7,95.8 C93,100.5 106.6,105.8 106.6,122.5 C106.6,136.9 95.6,148.9 75.4,148.9 C64.8,148.9 54.7,144.9 46.9,139.2 C45.1,137.9 44.7,135.3 46,133.5 L48.5,130 Z" id="Shape" fill="#FFFFFF"></path>
        </g>
    </g>
</svg>