<svg width="308px" height="80px" viewBox="0 0 308 80" version="1.1" xmlns="http://www.w3.org/2000/svg" xmlns:xlink="http://www.w3.org/1999/xlink">
    <!-- Generator: Sketch 48.2 (47327) - http://www.bohemiancoding.com/sketch -->
    <desc>Created with Sketch.</desc>
    <defs></defs>
    <g id="Page-1" stroke="none" stroke-width="1" fill="none" fill-rule="evenodd">
        <g id="Artboard" transform="translate(-44.000000, -76.000000)" fill="#3A3A3A">
            <g id="portfolio" transform="translate(44.000000, 76.000000)">
                <path d="M20.864,55.288 C24.5600185,55.288 27.6679874,53.888014 30.188,51.088 C32.7080126,48.3439863 33.968,44.7880218 33.968,40.42 C33.968,36.1079784 32.7080126,32.552014 30.188,29.752 C27.6679874,26.951986 24.5600185,25.552 20.864,25.552 C17.1119812,25.552 13.9760126,26.951986 11.456,29.752 C8.99198768,32.552014 7.76,36.1079784 7.76,40.42 C7.76,44.7880218 8.99198768,48.371986 11.456,51.172 C13.9760126,53.9160137 17.1119812,55.288 20.864,55.288 Z M22.124,62.344 C19.0999849,62.344 16.3420125,61.7000064 13.85,60.412 C11.3579875,59.1239936 9.44000672,57.4160106 8.096,55.288 L7.76,55.288 L8.096,61 L8.096,79.144 L0.368,79.144 L0.368,19.84 L7.76,19.84 L7.76,25.552 L8.096,25.552 C9.44000672,23.4239894 11.3579875,21.7160064 13.85,20.428 C16.3420125,19.1399936 19.0999849,18.496 22.124,18.496 C27.5560272,18.496 32.1479812,20.6239787 35.9,24.88 C39.7640193,29.1920216 41.696,34.3719698 41.696,40.42 C41.696,46.5240305 39.7640193,51.7039787 35.9,55.96 C32.1479812,60.2160213 27.5560272,62.344 22.124,62.344 Z M46.4,40.42 C46.4,34.0919684 48.3879801,28.8560207 52.364,24.712 C56.3960202,20.5679793 61.4639695,18.496 67.568,18.496 C73.6720305,18.496 78.7119801,20.5679793 82.688,24.712 C86.7200202,28.8560207 88.736,34.0919684 88.736,40.42 C88.736,46.8040319 86.7200202,52.0399796 82.688,56.128 C78.7119801,60.2720207 73.6720305,62.344 67.568,62.344 C61.4639695,62.344 56.3960202,60.2720207 52.364,56.128 C48.3879801,51.9839793 46.4,46.7480316 46.4,40.42 Z M54.128,40.42 C54.128,44.8440221 55.4159871,48.4279863 57.992,51.172 C60.5680129,53.9160137 63.759981,55.288 67.568,55.288 C71.376019,55.288 74.5679871,53.9160137 77.144,51.172 C79.7200129,48.4279863 81.008,44.8440221 81.008,40.42 C81.008,36.0519782 79.7200129,32.4960137 77.144,29.752 C74.5119868,26.951986 71.3200188,25.552 67.568,25.552 C63.8159812,25.552 60.6240132,26.951986 57.992,29.752 C55.4159871,32.4960137 54.128,36.0519782 54.128,40.42 Z M143.168,61.672 C139.807983,61.672 137.022011,60.6360104 134.81,58.564 C132.597989,56.4919896 131.464,53.6080185 131.408,49.912 L131.408,26.896 L124.184,26.896 L124.184,19.84 L131.408,19.84 L131.408,7.24 L139.136,7.24 L139.136,19.84 L149.216,19.84 L149.216,26.896 L139.136,26.896 L139.136,47.392 C139.136,50.1360137 139.667995,51.9979951 140.732,52.978 C141.796005,53.9580049 142.999993,54.448 144.344,54.448 C144.960003,54.448 145.561997,54.3780007 146.15,54.238 C146.738003,54.0979993 147.283997,53.9160011 147.788,53.692 L150.224,60.58 C148.20799,61.3080036 145.856013,61.672 143.168,61.672 Z M94.952,19.84 L102.344,19.84 L102.344,26.56 L102.68,26.56 C104.976011,21.2959737 109.707964,18.664 116.876,18.664 L118.472,18.832 L118.472,26.896 L115.028,26.56 C111.443982,26.56 108.490012,27.6659889 106.166,29.878 C103.841988,32.0900111 102.68,34.9039829 102.68,38.32 L102.68,61 L94.952,61 L94.952,19.84 Z M176.432,0.184 C179.232014,0.184 181.527991,0.65999524 183.32,1.612 L181.22,8.416 C179.875993,7.74399664 178.364008,7.408 176.684,7.408 C174.77999,7.408 173.226006,8.06599342 172.022,9.382 C170.817994,10.6980066 170.216,12.4479891 170.216,14.632 L170.216,19.84 L180.968,19.84 L180.968,26.896 L170.216,26.896 L170.216,61 L162.488,61 L162.488,26.896 L154.76,26.896 L154.76,19.84 L162.488,19.84 L162.488,13.876 C162.488,9.78797956 163.789987,6.4840126 166.394,3.964 C168.998013,1.4439874 172.34398,0.184 176.432,0.184 Z M183.488,40.42 C183.488,34.0919684 185.47598,28.8560207 189.452,24.712 C193.48402,20.5679793 198.551969,18.496 204.656,18.496 C210.760031,18.496 215.79998,20.5679793 219.776,24.712 C223.80802,28.8560207 225.824,34.0919684 225.824,40.42 C225.824,46.8040319 223.80802,52.0399796 219.776,56.128 C215.79998,60.2720207 210.760031,62.344 204.656,62.344 C198.551969,62.344 193.48402,60.2720207 189.452,56.128 C185.47598,51.9839793 183.488,46.7480316 183.488,40.42 Z M191.216,40.42 C191.216,44.8440221 192.503987,48.4279863 195.08,51.172 C197.656013,53.9160137 200.847981,55.288 204.656,55.288 C208.464019,55.288 211.655987,53.9160137 214.232,51.172 C216.808013,48.4279863 218.096,44.8440221 218.096,40.42 C218.096,36.0519782 216.808013,32.4960137 214.232,29.752 C211.599987,26.951986 208.408019,25.552 204.656,25.552 C200.903981,25.552 197.712013,26.951986 195.08,29.752 C192.503987,32.4960137 191.216,36.0519782 191.216,40.42 Z M240.188,0.856 L240.188,61 L232.46,61 L232.46,0.856 L240.188,0.856 Z M259.592,5.644 C259.592,7.15600756 259.060005,8.44399468 257.996,9.508 C256.931995,10.5720053 255.644008,11.104 254.132,11.104 C252.619992,11.104 251.332005,10.5720053 250.268,9.508 C249.203995,8.44399468 248.672,7.15600756 248.672,5.644 C248.672,4.13199244 249.203995,2.84400532 250.268,1.78 C251.332005,0.71599468 252.619992,0.184 254.132,0.184 C255.644008,0.184 256.931995,0.71599468 257.996,1.78 C259.060005,2.84400532 259.592,4.13199244 259.592,5.644 Z M257.996,19.84 L257.996,61 L250.268,61 L250.268,19.84 L257.996,19.84 Z M265.304,40.42 C265.304,34.0919684 267.29198,28.8560207 271.268,24.712 C275.30002,20.5679793 280.367969,18.496 286.472,18.496 C292.576031,18.496 297.61598,20.5679793 301.592,24.712 C305.62402,28.8560207 307.64,34.0919684 307.64,40.42 C307.64,46.8040319 305.62402,52.0399796 301.592,56.128 C297.61598,60.2720207 292.576031,62.344 286.472,62.344 C280.367969,62.344 275.30002,60.2720207 271.268,56.128 C267.29198,51.9839793 265.304,46.7480316 265.304,40.42 Z M273.032,40.42 C273.032,44.8440221 274.319987,48.4279863 276.896,51.172 C279.472013,53.9160137 282.663981,55.288 286.472,55.288 C290.280019,55.288 293.471987,53.9160137 296.048,51.172 C298.624013,48.4279863 299.912,44.8440221 299.912,40.42 C299.912,36.0519782 298.624013,32.4960137 296.048,29.752 C293.415987,26.951986 290.224019,25.552 286.472,25.552 C282.719981,25.552 279.528013,26.951986 276.896,29.752 C274.319987,32.4960137 273.032,36.0519782 273.032,40.42 Z"></path>
            </g>
        </g>
    </g>
</svg>
